SplineFontDB: 3.0
FontName: Pelagiad-Regular
FullName: Pelagiad Regular
FamilyName: Pelagiad
Weight: Regular
Copyright: Copyright Isaskar, but you may use and modify this font as you like, just don't claim you made it. THIS IS AN UNFINISHED VERSION.
UComments: "2015-2-24: Created with FontForge (http://fontforge.org)"
Version: 0.5
ItalicAngle: 0
UnderlinePosition: -50
UnderlineWidth: 25
Ascent: 849
Descent: 175
InvalidEm: 0
LayerCount: 2
Layer: 0 0 "Back" 1
Layer: 1 0 "Fore" 0
XUID: [1021 550 254111602 2708]
FSType: 0
OS2Version: 0
OS2_WeightWidthSlopeOnly: 0
OS2_UseTypoMetrics: 1
CreationTime: 1424795239
ModificationTime: 1425915405
PfmFamily: 17
TTFWeight: 400
TTFWidth: 5
LineGap: 92
VLineGap: 0
OS2TypoAscent: 849
OS2TypoAOffset: 0
OS2TypoDescent: -175
OS2TypoDOffset: 0
OS2TypoLinegap: 92
OS2WinAscent: 849
OS2WinAOffset: 0
OS2WinDescent: 175
OS2WinDOffset: 0
HheadAscent: 849
HheadAOffset: 0
HheadDescent: -175
HheadDOffset: 0
OS2CapHeight: 0
OS2XHeight: 0
OS2Vendor: 'PfEd'
Lookup: 258 0 0 "'kern' Horizontal Kerning in Latin lookup 0" { "'kern' Horizontal Kerning in Latin lookup 0-1" [153,15,0] "'kern' Horizontal Kerning in Latin lookup 0-2" [153,15,0] "'kern' Horizontal Kerning in Latin lookup 0-3" [153,15,0] "'kern' Horizontal Kerning in Latin lookup 0-4" [153,15,0] "'kern' Horizontal Kerning in Latin lookup 0-5" [153,15,0] "'kern' Horizontal Kerning in Latin lookup 0-6" [153,15,0] } ['kern' ('DFLT' <'dflt' > 'latn' <'dflt' > ) ]
MarkAttachClasses: 1
DEI: 91125
KernClass2: 1+ 2 "'kern' Horizontal Kerning in Latin lookup 0-6"
 94 a h m n u agrave aacute acircumflex atilde adieresis aring ugrave uacute ucircumflex udieresis
 9 m n p v w
 0 {} -14 {}
KernClass2: 1+ 2 "'kern' Horizontal Kerning in Latin lookup 0-5"
 3 A R
 7 m n p r
 0 {} -71 {}
KernClass2: 2 2 "'kern' Horizontal Kerning in Latin lookup 0-4"
 1 T
 27 agrave egrave ograve ugrave
 0 {} 0 {} 0 {} -68 {}
KernClass2: 2 2 "'kern' Horizontal Kerning in Latin lookup 0-3"
 1 T

StartChar: o
Encoding: 111 111 0
Width: 468
VWidth: -3
Flags: HW
HStem: -19 69<234.185 336.507> 316 69<134.443 252.409>
VStem: 28 100<168.335 289.438> 341 99<89.306 245.5>
LayerCount: 2
Back
Fore
SplineSet
341 114 m 0
 341 206 266 316 200 316 c 0
 141 316 128 304 128 254 c 0
 128 148 239 50 282 50 c 7
 339 50 341 60 341 114 c 0
264 -19 m 0
 138 -19 28 82 28 188 c 0
 28 321 111 385 242 385 c 0
 348 385 440 275 440 216 c 0
 440 89 388 -19 264 -19 c 0
EndSplineSet
Validated: 1
EndChar

StartChar: n
Encoding: 110 110 1
Width: 549
VWidth: -3
Flags: HW
HStem: -14 21G<101 143.5 355 372> 304 78<242.453 392.5>
VStem: 101 104<29.875 279.321> 378 94<74.245 257.523>
LayerCount: 2
Back
Fore
SplineSet
355 -14 m 5
 365 24 378 82 378 145 c 7
 378 261 340 304 267 304 c 0
 236 304 239 297 205 273 c 1
 205 103 l 2
 205 68 178 -17 109 -17 c 2
 101 -17 l 1
 101 153 l 2
 101 362 10 294 10 327 c 0
 10 347 81 383 101 383 c 0
 115 383 176 370 198 326 c 1
 237 361 268 382 339 382 c 0
 446 382 472 275 472 183 c 0
 472 135 464 97 456 73 c 1
 481 87 505 101 519 101 c 3
 540 101 540 70 540 69 c 0
 540 47 378 -14 366 -14 c 2
 355 -14 l 5
EndSplineSet
Validated: 1
EndChar

StartChar: c
Encoding: 99 99 2
Width: 428
VWidth: -3
Flags: HW
HStem: -19 67<204.498 323.697> 311 72<165.834 284.583>
VStem: 28 106<113.165 275.697>
LayerCount: 2
Back
Fore
SplineSet
400 97 m 1
 372 48 349 -18 223 -19 c 0
 99 -19 28 81 28 185 c 0
 28 318 108 383 239 383 c 0
 335 383 390 348 390 317 c 3
 390 287 359 270 329 253 c 1
 285 289 270 311 204 311 c 3
 171 311 134 264 134 179 c 3
 134 110 201 48 284 48 c 0
 333 48 345 109 370 109 c 0
 383 109 388 99 400 97 c 1
EndSplineSet
Validated: 1
EndChar

StartChar: E
Encoding: 69 69 3
Width: 657
VWidth: -12
Flags: HW
HStem: -26 108<298.24 468.507> 261 104<162 276.137> 566 90<208.988 356.489>
VStem: 28 124<365 442.531> 585 57<108.687 162.526> 603 39<-87.1846 62.4571>
LayerCount: 2
Back
Fore
SplineSet
435 82 m 4xf8
 506 82 570 110 585 119 c 5
 584 285 l 5
 532 282 230 263 162 261 c 5
 173 181 235 82 435 82 c 4xf8
271 566 m 4
 174 566 156 458 152 365 c 5
 533 387 l 5
 484 452 378 566 271 566 c 4
596 64 m 5
 510 11 450 -26 339 -26 c 4
 120 -26 28 141 28 329 c 4
 28 477 146 656 295 656 c 4
 382 656 484 617 549 552 c 5
 568 602 568 655 601 655 c 4
 615 655 619 638 619 626 c 4
 619 582 583 483 570 398 c 5
 655 405 l 5
 645 282 642 15 642 -65 c 6
 642 -69 l 5
 630 -77 625 -91 612 -91 c 6
 603 -91 l 5xf4
 603 -91 602 -47 596 64 c 5
EndSplineSet
Validated: 1
EndChar

StartChar: I
Encoding: 73 73 4
Width: 422
VWidth: -15
Flags: HW
HStem: -10 60<353.126 400.717> 5 51<237 292.932> 567 51<236.358 294> 609 20G<10 73 393.5 411>
VStem: 145 91<63.7988 561.236> 295 57<56 567>
LayerCount: 2
Back
Fore
SplineSet
413 -10 m 5x9c
 338 0 297 5 211 5 c 7
 128 5 90 -9 16 -9 c 6
 10 -9 l 5
 10 -2 l 6
 10 73 138 43 138 79 c 4
 138 253 145 365 145 539 c 4
 145 587 10 552 10 621 c 2
 10 629 l 1
 17 629 l 5
 129 625 126 609 190 609 c 4x5c
 222 609 260 614 295 618 c 5x2c
 296 631 297 654 315 654 c 4
 330 654 341 637 345 625 c 5
 366 627 384 628 403 629 c 5
 411 629 l 5
 411 621 l 6
 411 591 382 575 352 569 c 5
 352 50 l 5
 382 42 413 32 413 -2 c 6
 413 -10 l 5x9c
237 73 m 7
 237 55 270 57 295 56 c 5
 294 567 l 5x6c
 266 566 236 558 236 542 c 7
 236 364 237 251 237 73 c 7
EndSplineSet
Validated: 1
EndChar

StartChar: e
Encoding: 101 101 5
Width: 443
VWidth: -3
Flags: HW
HStem: -18 71<186.629 330.22> 327 53<172.503 235.539>
VStem: 28 113<212 289.486>
DStem2: 216 241 256 208 0.903986 0.427561<-80.1983 53.441>
LayerCount: 2
Back
Fore
SplineSet
407 98 m 5
 379 49 357 -17 226 -18 c 4
 102 -18 28 82 28 186 c 4
 28 318 94 380 225 380 c 4
 301 380 341 337 363 317 c 5
 378 325 392 329 403 329 c 4
 421 329 428 314 428 296 c 4
 428 273 345 247 256 208 c 4
 191 181 167 164 146 152 c 5
 159 76 202 53 276 53 c 4
 359 53 347 110 375 110 c 4
 389 110 395 101 407 98 c 5
194 327 m 4
 176 327 145 261 141 212 c 5
 159 219 180 228 216 241 c 4
 234 249 252 255 266 263 c 5
 251 290 224 327 194 327 c 4
EndSplineSet
Validated: 1
EndChar

StartChar: p
Encoding: 112 112 6
Width: 535
VWidth: 8
Flags: HW
HStem: -11 67<242.053 382.001> 313 82<251.798 341.044> 314 61<27.4196 101.288>
VStem: 103 111<-104 19 82.6736 292.184> 394 113<89.2522 251.681>
LayerCount: 2
Back
Fore
SplineSet
315 395 m 0xd8
 423 395 507 281 507 225 c 0
 507 97 464 -11 338 -11 c 0
 264 -11 242 1 214 19 c 1
 214 -104 l 1
 237 -105 348 -104 348 -129 c 0
 348 -174 60 -175 60 -175 c 1
 51 -175 l 5
 51 -167 l 2
 51 -137 93 -118 103 -114 c 1
 103 53 103 147 103 314 c 1
 100 317 10 312 10 375 c 2
 10 383 l 1
 19 382 l 1
 19 382 64 375 89 375 c 0xb8
 130 375 203 387 203 387 c 1
 214 389 l 1
 211 329 l 1
 239 357 256 395 315 395 c 0xd8
292 313 m 0xd8
 249 313 229 288 211 260 c 1
 214 115 l 1
 227 70 282 56 339 56 c 0
 388 56 394 95 394 151 c 0
 394 235 352 313 292 313 c 0xd8
EndSplineSet
Validated: 1
EndChar

StartChar: q
Encoding: 113 113 7
Width: 516
VWidth: 8
Flags: HW
HStem: -6 74<160.833 254.466> 330 64<149.953 246.617>
VStem: 28 87<116.904 287.025> 302 110<-70 39 87.043 278.156>
LayerCount: 2
Back
Fore
SplineSet
209 330 m 0
 152 330 115 288 115 216 c 0
 115 115 161 68 222 68 c 0
 252 68 292 93 302 101 c 1
 302 255 l 1
 291 268 231 330 209 330 c 0
302 -175 m 5
 302 39 l 1
 274 25 216 -6 175 -6 c 0
 84 -6 28 90 28 172 c 0
 28 292 89 394 192 394 c 0
 246 394 277 381 310 357 c 1
 329 374 376 407 405 407 c 2
 412 407 l 1
 412 -70 l 5
 426 -64 451 -58 493 -58 c 6
 507 -58 l 5
 507 -58 443 -145 302 -175 c 5
EndSplineSet
Validated: 1
EndChar

StartChar: a
Encoding: 97 97 8
Width: 470
VWidth: -3
Flags: HW
HStem: -13 21G<88.5 170.5 374 415> 41 10<178 263> 311 69<123.757 261.859>
VStem: 19 109<53.89 111.802> 277 112<223.542 295.023>
LayerCount: 2
Back
Fore
SplineSet
178 51 m 4
 242 51 268 137 276 171 c 5
 234 160 128 122 128 76 c 4
 128 57 147 51 178 51 c 4
117 -13 m 4
 60 -13 19 6 19 59 c 4
 19 188 277 194 277 248 c 4
 277 292 242 311 192 311 c 4
 157 311 126 298 122 292 c 5
 123 288 155 292 155 270 c 7
 155 246 113 244 89 244 c 7
 61 244 19 260 19 291 c 4
 19 353 140 380 205 380 c 4
 262 380 389 360 389 297 c 6
 390 90 l 6
 390 60 470 71 470 38 c 4
 470 14 436 -9 394 -9 c 4
 354 -9 273 39 263 41 c 5
 254 40 224 -13 117 -13 c 4
EndSplineSet
Validated: 1
EndChar

StartChar: b
Encoding: 98 98 9
Width: 530
VWidth: -15
Flags: HW
HStem: -36 64<252.058 371.718> 319 73<238.203 334.093>
VStem: 84 108<81.2812 284.019 337 543.915> 397 105<79.6215 245.319>
LayerCount: 2
Back
Fore
SplineSet
10 582 m 4
 10 609 134 590 177 641 c 5
 192 658 l 5
 192 337 l 5
 233 372 271 392 327 392 c 4
 451 392 502 279 502 144 c 4
 502 83 410 -36 305 -36 c 4
 173 -36 84 32 84 174 c 6
 84 534 l 5
 71 541 10 564 10 582 c 4
328 28 m 4
 382 28 397 89 397 165 c 4
 397 230 344 319 287 319 c 4
 265 319 224 315 192 249 c 5
 192 99 l 5
 226 63 273 28 328 28 c 4
EndSplineSet
Validated: 1
EndChar

StartChar: d
Encoding: 100 100 10
Width: 510
VWidth: -13
Flags: HW
HStem: -28 76<190.518 273.43> 310 59<170.539 291.123> 601 20G<382 406.5>
VStem: 28 107<108.6 269.378> 314 111<84.6303 286.632 347 549.342>
LayerCount: 2
Back
Fore
SplineSet
239 48 m 0
 271 48 285 69 314 122 c 1
 314 252 l 1
 289 297 280 310 223 310 c 0
 159 310 135 237 135 183 c 0
 135 103 201 48 239 48 c 0
211 -28 m 0
 106 -28 28 72 28 167 c 0
 28 293 88 369 189 369 c 0
 261 369 285 362 314 347 c 1
 314 541 l 1
 303 545 256 560 256 581 c 0
 256 603 372 621 392 621 c 0
 421 621 436 614 436 593 c 0
 436 570 425 563 425 550 c 2
 425 76 l 1
 440 83 453 86 470 86 c 0
 487 86 501 81 501 52 c 2
 501 46 l 1
 339 -24 l 1
 319 26 l 1
 281 -5 238 -28 211 -28 c 0
EndSplineSet
Validated: 1
EndChar

StartChar: f
Encoding: 102 102 12
Width: 308
VWidth: -13
Flags: HW
HStem: 569 68<211.278 314.322>
VStem: 66 107<23.8557 290.693 370 499.578>
LayerCount: 2
Back
Fore
SplineSet
344 470 m 1
 336 479 285 562 235 569 c 0
 210 569 173 484 173 448 c 2
 173 370 l 1
 207 360 254 380 254 323 c 0
 254 280 202 302 173 283 c 1
 173 68 l 2
 173 27 79 -44 79 -44 c 1
 66 -56 l 1
 66 284 l 1
 46 298 19 292 19 311 c 0
 19 345 42 358 66 371 c 1
 66 550 170 637 277 637 c 0
 350 637 404 597 404 570 c 0
 404 542 350 478 350 478 c 1
 344 470 l 1
EndSplineSet
Validated: 1
EndChar

StartChar: m
Encoding: 109 109 13
Width: 779
VWidth: -3
Flags: HW
HStem: -18 19G<103 141.5 344 385 565 581.5> 304 77<237.328 339.744> 316 65<488.365 630.735>
VStem: 103 100<13.0195 279.321> 344 102<11.25 266.818> 587 115<68.1503 298.997>
LayerCount: 2
Back
Fore
SplineSet
565 -20 m 1xbc
 580 41 587 92 587 146 c 7
 587 271 586 316 517 316 c 0xbc
 486 316 477 308 446 285 c 1
 446 108 l 2
 446 18 418 -18 352 -18 c 2
 344 -18 l 1
 344 151 l 2
 344 292 286 304 263 304 c 0xdc
 233 304 236 297 203 273 c 1
 203 104 l 2
 203 19 174 -18 109 -18 c 2
 103 -18 l 1
 103 153 l 2
 103 362 10 294 10 327 c 0
 10 347 81 381 101 381 c 0xbc
 114 381 173 370 195 326 c 1
 231 360 263 381 333 381 c 0xdc
 369 381 420 368 439 324 c 1
 478 358 517 381 587 381 c 0
 692 381 702 268 702 177 c 0
 702 129 694 91 686 67 c 1
 711 81 735 95 749 95 c 3
 770 95 770 64 770 63 c 0
 770 40 587 -20 576 -20 c 2
 565 -20 l 1xbc
EndSplineSet
Validated: 1
EndChar

StartChar: l
Encoding: 108 108 14
Width: 255
VWidth: -14
Flags: HW
VStem: 63 98<56 560.625>
LayerCount: 2
Back
Fore
SplineSet
237 64 m 4
 237 41 111 -29 71 -29 c 6
 63 -29 l 5
 63 521 l 6
 63 553 19 570 19 595 c 4
 21 620 126 641 161 644 c 5
 161 56 l 5
 175 59 213 89 213 89 c 5
 218 94 l 5
 223 88 l 5
 223 88 237 76 237 64 c 4
EndSplineSet
Validated: 1
EndChar

StartChar: g
Encoding: 103 103 15
Width: 481
VWidth: 8
Flags: HW
HStem: -174 53<133.9 349.246> -22 70<144.205 347.832> 102 47<159.566 253.538> 296 74<351 410> 346 55<127.835 220.301>
VStem: 28 89<-102.082 -63.5749 195.733 339.772> 52 91<29.5 81.7604> 265 97<160.453 294.708> 360 93<-107.473 -37.1963>
LayerCount: 2
Back
Fore
SplineSet
143 63 m 3xf3
 143 56 160 48 234 48 c 2
 341 48 l 2
 415 48 453 -29 453 -58 c 0
 453 -124 362 -174 238 -174 c 0
 117 -174 28 -154 28 -99 c 0xf480
 28 -77 67 -46 111 -19 c 1
 82 -12 52 14 52 45 c 0
 52 68 90 97 124 122 c 1
 70 152 30 202 30 280 c 0
 30 345 95 401 189 401 c 0xea
 222 401 258 389 287 370 c 1
 439 370 l 1
 439 361 l 1
 438 327 412 299 412 299 c 1
 410 296 l 1
 351 296 l 1
 359 268 362 245 362 226 c 3
 362 160 301 102 209 102 c 3
 151 102 143 80 143 63 c 3xf3
265 218 m 3xe9
 265 312 201 346 162 346 c 0
 126 346 122 322 122 266 c 0
 122 180 179 149 210 149 c 0
 259 149 265 187 265 218 c 3xe9
360 -74 m 0xe480
 360 -52 352 -22 251 -22 c 0
 150 -22 117 -41 117 -74 c 0
 117 -99 151 -121 261 -121 c 0
 331 -121 360 -105 360 -74 c 0xe480
EndSplineSet
Validated: 1
EndChar

StartChar: i
Encoding: 105 105 16
Width: 245
VWidth: -10
Flags: HW
VStem: 63 98<58 313.225>
LayerCount: 2
Back
Fore
SplineSet
83 453 m 0
 83 475 127 555 156 555 c 0
 180 555 213 543 213 513 c 0
 213 481 146 426 110 426 c 0
 93 426 83 438 83 453 c 0
236 67 m 0
 236 44 110 -25 70 -25 c 2
 63 -25 l 1
 62 284 l 2
 62 326 10 307 10 336 c 0
 13 359 126 381 161 384 c 1
 161 58 l 1
 178 62 212 91 212 91 c 1
 217 95 l 1
 221 90 l 1
 221 90 236 78 236 67 c 0
EndSplineSet
Validated: 1
EndChar

StartChar: h
Encoding: 104 104 17
Width: 525
VWidth: -14
Flags: HW
HStem: 292 78<206.795 357.5>
VStem: 66 102<6.16812 277.438 318 555.245> 344 94<61.8807 245.11>
LayerCount: 2
Back
Fore
SplineSet
320 -26 m 1
 338 29 344 80 344 133 c 3
 344 249 305 292 231 292 c 0
 200 292 202 285 168 261 c 1
 168 20 l 2
 168 -2 119 -20 66 -31 c 5
 66 515 l 2
 66 560 14 560 14 588 c 0
 17 613 132 638 168 640 c 1
 168 318 l 1
 203 350 235 370 304 370 c 0
 411 370 438 262 438 170 c 0
 438 122 431 85 423 61 c 1
 448 75 471 89 485 89 c 3
 505 89 506 57 506 56 c 0
 506 34 344 -26 332 -26 c 2
 320 -26 l 1
EndSplineSet
Validated: 1
EndChar

StartChar: r
Encoding: 114 114 18
Width: 398
VWidth: -3
Flags: HW
HStem: -17 21G<67 88.5> 298 87<239.711 301.754> 353 20G<167 180>
VStem: 67 104<14.413 267.103>
LayerCount: 2
Back
Fore
SplineSet
379 345 m 0xd0
 379 326 349 266 330 266 c 0
 296 266 295 298 260 298 c 0xd0
 239 298 209 277 171 253 c 1
 171 46 l 6
 171 16 101 -16 76 -17 c 5
 67 -17 l 5
 67 272 l 1
 66 326 10 306 10 347 c 0
 10 369 164 373 170 373 c 2
 180 373 l 1xb0
 178 365 l 1
 178 365 177 346 174 328 c 1
 222 350 273 385 286 385 c 0
 300 385 379 367 379 345 c 0xd0
EndSplineSet
Validated: 1
EndChar

StartChar: s
Encoding: 115 115 19
Width: 376
VWidth: -4
Flags: HW
HStem: -12 63<140.264 240.335> 340 45<140.746 265>
VStem: 31 102<195 328.582> 256 92<86.0707 227>
LayerCount: 2
Back
Fore
SplineSet
84 135 m 5
 122 89 147 51 204 51 c 7
 233 51 256 79 256 107 c 4
 256 221 31 127 31 263 c 4
 31 373 162 385 248 385 c 4
 282 385 332 378 332 335 c 4
 332 305 307 281 276 281 c 4
 217 281 230 340 189 340 c 4
 159 340 133 322 133 298 c 4
 133 232 348 290 348 164 c 4
 348 56 237 -12 151 -12 c 4
 94 -12 28 1 28 65 c 7
 28 99 51 124 84 135 c 5
EndSplineSet
Validated: 1
EndChar

StartChar: t
Encoding: 116 116 20
Width: 379
VWidth: -6
Flags: HW
HStem: -22 80<180.506 285.757> 311 66<169 330.117>
VStem: 66 103<70.9357 304>
LayerCount: 2
Back
Fore
SplineSet
313 311 m 0
 312 311 312 311 311 311 c 0
 291 311 194 305 169 304 c 1
 169 114 l 2
 169 63 219 58 252 58 c 0
 295 58 303 73 325 73 c 0
 347 73 360 66 360 51 c 0
 360 32 259 -22 196 -22 c 0
 143 -22 66 24 66 68 c 2
 66 295 l 1
 64 299 19 318 19 337 c 0
 19 356 139 436 154 436 c 7
 169 436 169 384 169 374 c 1
 192 375 254 377 314 377 c 0
 329 377 333 363 333 353 c 0
 333 340 328 315 313 311 c 0
EndSplineSet
Validated: 1
EndChar

StartChar: j
Encoding: 106 106 21
Width: 297
VWidth: 1
Flags: HW
HStem: -176 53<53.5671 120.632>
VStem: 132 101<-114.04 320.5>
LayerCount: 2
Back
Fore
SplineSet
154 453 m 0
 154 475 199 554 228 554 c 0
 252 554 283 542 283 512 c 0
 283 480 218 426 182 426 c 0
 165 426 154 438 154 453 c 0
31 -61 m 5
 35 -69 55 -123 86 -123 c 4
 120 -123 132 -92 132 -30 c 6
 131 282 l 2
 131 314 89 329 89 353 c 0
 91 377 198 397 232 400 c 1
 233 -42 l 6
 233 -148 160 -176 116 -176 c 4
 50 -176 -13 -159 -13 -113 c 4
 -13 -79 24 -64 25 -64 c 6
 31 -61 l 5
EndSplineSet
Validated: 1
EndChar

StartChar: k
Encoding: 107 107 22
Width: 524
VWidth: -14
Flags: HW
HStem: -26 70<357.024 455.833>
VStem: 58 99<-11.8358 167.027 236 567.625>
LayerCount: 2
Back
Fore
SplineSet
157 14 m 2
 157 -10 102 -29 66 -29 c 2
 58 -29 l 1
 58 550 l 2
 58 562 14 570 14 595 c 0
 17 620 122 642 157 644 c 1
 157 236 l 1
 231 274 412 367 446 367 c 0
 480 367 483 324 483 324 c 1
 483 319 l 1
 292 221 l 1
 379 151 409 44 438 44 c 0
 459 44 445 77 478 77 c 0
 499 77 501 54 501 40 c 0
 501 6 426 -26 382 -26 c 0
 302 -26 257 177 193 177 c 0
 183 177 167 153 157 122 c 1
 157 14 l 2
EndSplineSet
Validated: 1
EndChar

StartChar: P
Encoding: 80 80 23
Width: 658
VWidth: -14
Flags: HW
HStem: -19 56<15.1354 140.75 297.629 541.134> 3 50<275 419.661> 148 56<350.88 496.355> 560 44<10.1108 104.943> 571 6<217 364>
VStem: 149 126<53 180 254.625 517.901> 542 107<315.995 487.711>
LayerCount: 2
Back
Fore
SplineSet
364 571 m 0x2e
 328 571 285 537 275 527 c 1
 275 270 l 1
 290 258 365 204 445 204 c 0
 527 204 542 319 542 409 c 0
 542 501 461 571 364 571 c 0x2e
13 3 m 0x66
 13 17 23 37 44 37 c 0
 129 37 136 48 142 55 c 1
 149 78 149 192 149 293 c 3
 149 382 131 518 131 518 c 2
 130 531 68 560 25 560 c 0
 12 560 10 574 10 580 c 0
 10 590 16 604 30 604 c 0xb6
 134 604 113 577 217 577 c 0
 274 577 280 652 394 652 c 0
 533 652 649 538 649 404 c 0
 649 300 535 148 423 148 c 0
 328 148 298 174 275 180 c 1
 275 53 l 1
 429 52 486 34 521 34 c 0
 535 34 542 20 542 10 c 0
 542 0 535 -16 521 -16 c 0
 459 -16 396 3 201 3 c 0x6e
 97 3 103 -19 35 -19 c 0xa6
 21 -19 13 -8 13 3 c 0x66
EndSplineSet
Validated: 1
EndChar

StartChar: period
Encoding: 46 46 24
Width: 263
VWidth: 9
Flags: HW
HStem: -20 149<82.8928 162.22>
VStem: 40 172<24.8728 86.5195>
LayerCount: 2
Back
Fore
SplineSet
127 -20 m 4
 106 -20 40 27 40 54 c 4
 40 74 94 129 119 129 c 4
 132 129 212 78 212 60 c 4
 212 40 150 -20 127 -20 c 4
EndSplineSet
Validated: 1
EndChar

StartChar: comma
Encoding: 44 44 25
Width: 269
VWidth: 13
Flags: HW
VStem: 163 61<-36.4563 9.64568>
LayerCount: 2
Back
Fore
SplineSet
134 150 m 0
 155 150 206 43 206 43 c 1
 216 32 224 8 224 -19 c 0
 224 -60 199 -104 138 -104 c 0
 113 -104 86 -90 86 -73 c 0
 86 -24 163 -51 163 -19 c 0
 163 -15 157 4 153 10 c 1
 128 8 112 -18 94 -18 c 0
 65 -18 22 69 22 93 c 0
 22 120 112 150 134 150 c 0
EndSplineSet
Validated: 1
EndChar

StartChar: u
Encoding: 117 117 26
Width: 512
VWidth: -4
Flags: HW
HStem: -15 78<130 291.003>
VStem: 50 98<105.924 337.64> 351 95<126.685 332.823>
LayerCount: 2
Back
Fore
SplineSet
187 386 m 1
 159 325 148 264 148 221 c 7
 148 104 181 63 263 63 c 0
 311 63 350 130 351 265 c 0
 351 363 291 331 291 360 c 3
 291 381 389 384 429 384 c 3
 444 384 446 343 446 311 c 0
 446 196 437 131 437 130 c 0
 437 65 493 67 493 39 c 0
 493 25 462 -16 438 -16 c 0
 424 -16 365 -3 341 41 c 1
 298 6 263 -15 183 -15 c 0
 77 -15 50 93 50 185 c 0
 50 248 63 311 63 333 c 1
 63 333 28 342 28 359 c 3
 28 381 156 386 177 386 c 2
 187 386 l 1
EndSplineSet
Validated: 1
EndChar

StartChar: v
Encoding: 118 118 27
Width: 419
VWidth: -3
Flags: HW
HStem: 335 55<13.2641 44.9985>
VStem: 355 60<210.022 377.356>
LayerCount: 2
Back
Fore
SplineSet
247 -26 m 1
 93 110 78 335 12 335 c 2
 5 335 l 1
 5 342 l 2
 5 372 29 390 71 390 c 0
 181 390 205 168 273 102 c 1
 336 174 355 245 355 310 c 0
 355 320 336 344 336 365 c 2
 336 370 l 1
 358 380 371 386 393 386 c 7
 413 386 415 364 415 354 c 3
 415 206 354 90 247 -26 c 1
EndSplineSet
Validated: 1
EndChar

StartChar: w
Encoding: 119 119 28
Width: 656
VWidth: -3
Flags: HW
HStem: 335 55<12.9908 43.7395>
VStem: 558 94<329.727 377.348>
LayerCount: 2
Back
Fore
SplineSet
238 -26 m 5
 92 109 75 335 12 335 c 6
 5 335 l 5
 5 342 l 6
 5 372 28 390 70 390 c 4
 176 390 199 168 263 102 c 5
 302 145 323 186 335 226 c 5
 325 247 317 262 307 273 c 4
 285 303 252 307 252 342 c 4
 252 370 272 388 316 388 c 4
 424 388 454 165 517 97 c 5
 565 180 578 248 589 311 c 5
 575 331 566 346 558 370 c 5
 581 380 607 383 629 383 c 7
 649 383 652 362 652 352 c 6
 652 350 l 5
 623 210 541 -24 485 -24 c 4
 452 -24 412 77 373 161 c 5
 351 99 300 47 238 -26 c 5
EndSplineSet
Validated: 1
EndChar

StartChar: y
Encoding: 121 121 29
Width: 419
VWidth: 8
Flags: HW
HStem: 345 53<10.3913 53.8377>
VStem: 337 78<267.174 392.516>
LayerCount: 2
Back
Fore
SplineSet
84 -100 m 5
 140 -33 139 -39 189 30 c 1
 123 203 74 344 12 345 c 1
 5 345 l 1
 5 354 l 2
 5 385 25 398 94 398 c 0
 170 398 231 259 270 141 c 1
 312 213 337 274 337 326 c 0
 337 387 356 398 385 398 c 0
 403 398 415 379 415 365 c 0
 415 223 227 -33 202 -67 c 5
 211 -80 236 -101 236 -101 c 5
 242 -105 l 5
 238 -112 l 5
 238 -112 200 -176 180 -176 c 4
 140 -176 86 -104 86 -104 c 5
 84 -100 l 5
EndSplineSet
Validated: 1
EndChar

StartChar: x
Encoding: 120 120 30
Width: 511
VWidth: -4
Flags: HW
HStem: -15 70<372 442.81> -10 114<44.0985 109.898> 288 103<402.969 466.487> 328 61<30.2779 68.2832>
DStem2: 124 56 238 115 0.577002 0.816743<0.729639 113.966 246.1 373.491> 266 257 201 167 0.599173 -0.800619<-144.511 0 96.9111 251.267>
LayerCount: 2
Back
Fore
SplineSet
463 82 m 1xa0
 480 78 492 63 492 52 c 7
 492 37 418 -15 390 -15 c 0xa0
 354 -15 336 -10 317 12 c 0
 299 32 257 84 238 115 c 1
 192 46 156 -10 127 -10 c 0
 29 -10 19 44 19 56 c 0
 19 63 24 104 65 104 c 0
 105 104 115 73 124 56 c 1
 152 97 178 135 201 167 c 1
 141 249 116 292 22 328 c 1
 22 334 l 2
 22 367 38 389 86 389 c 0x50
 137 389 198 340 266 257 c 1
 329 352 362 391 418 391 c 0
 446 391 481 367 481 337 c 0
 481 309 455 288 428 288 c 0
 409 288 403 308 400 321 c 1
 367 287 334 246 302 202 c 1
 351 113 406 55 416 55 c 0
 426 55 454 65 463 82 c 1xa0
EndSplineSet
Validated: 1
EndChar

StartChar: z
Encoding: 122 122 31
Width: 452
VWidth: 0
Flags: W
HStem: -10 21G<30 140> 13 60<161.509 389.571> 314 60<60.9665 203.368> 326 35<306 377.166>
VStem: 388 34<-34.3953 -6.00801>
LayerCount: 2
Back
Fore
SplineSet
30 285 m 1xe8
 30 313 67 374 96 374 c 3xe8
 178 374 292 326 320 326 c 3
 355 326 351 361 371 361 c 3xd8
 383 361 385 360 385 348 c 3
 385 329 159 73 159 73 c 3
 415 73 422 56 422 44 c 3
 422 18 421 -39 393 -39 c 3
 389 -39 388 -33 388 -26 c 7
 388 -17 391 -6 391 -6 c 1
 391 -6 230 13 180 13 c 3
 116 13 30 -10 30 -10 c 1
 250 231 285 272 285 272 c 1
 174 293 168 314 75 314 c 3
 51 314 30 285 30 285 c 1xe8
EndSplineSet
Validated: 1
EndChar

StartChar: z
Encoding: 122 122 32
Width: 494
VWidth: -2
Flags: HW
HStem: 4 77<202 423.461> 318 79<72.4995 225.013> 347 35<348.5 426.325>
LayerCount: 2
Back
Fore
SplineSet
415 382 m 7xa0
 428 382 438 373 438 361 c 7
 438 333 202 81 202 81 c 5
 457 80 476 67 476 44 c 7
 476 21 476 -50 438 -50 c 7
 427 -50 426 -33 426 -29 c 4
 426 -23 426 -19 427 -15 c 5
 392 -11 252 4 204 4 c 4
 134 4 46 -20 46 -20 c 5
 19 -27 l 5
 37 -7 l 5
 216 183 286 254 308 277 c 5
 193 299 185 318 90 318 c 4
 70 318 49 291 49 291 c 5
 35 271 l 5
 35 296 l 6
 35 327 74 397 112 397 c 4xc0
 204 397 335 347 362 347 c 4
 392 347 383 382 415 382 c 7xa0
EndSplineSet
Validated: 1
EndChar

StartChar: quotesingle
Encoding: 39 39 33
Width: 177
VWidth: 41
Flags: HW
HStem: 380 314<60.7083 84.5327>
VStem: 30 117<491.774 651.066>
LayerCount: 2
Back
Fore
SplineSet
30 394 m 6
 30 545 40 694 86 694 c 7
 128 694 147 679 147 645 c 4
 147 605 129 380 43 380 c 6
 30 380 l 5
 30 394 l 6
EndSplineSet
Validated: 1
EndChar

StartChar: quotedbl
Encoding: 34 34 34
Width: 348
VWidth: 41
Flags: HW
HStem: 377 316<58.6293 82.6978 230.629 255.698>
VStem: 30 115<488.888 657.212> 202 116<488.888 657.212>
LayerCount: 2
Back
Fore
SplineSet
202 391 m 2
 202 543 208 693 257 693 c 3
 297 693 318 677 318 643 c 0
 318 602 299 377 215 377 c 2
 202 377 l 1
 202 391 l 2
30 391 m 2
 30 543 36 693 85 693 c 3
 125 693 145 677 145 643 c 0
 145 602 126 377 42 377 c 2
 30 377 l 1
 30 391 l 2
EndSplineSet
Validated: 1
EndChar

StartChar: A
Encoding: 65 65 35
Width: 688
VWidth: -15
Flags: HW
HStem: -9 41<401.644 476.832> 0 56<160.608 237.44> 287 76<317.4 407> 562 69<255 366> 575 69<53.6733 185.115 471.731 541.11>
VStem: 68 80<59 178.836>
DStem2: 186 575 207 347 0.225546 0.974233<-507.967 -308.799 -217.389 -0.0250606>
LayerCount: 2
Back
Fore
SplineSet
207 347 m 5x34
 407 363 l 5
 366 562 l 5
 255 559 l 5
 207 347 l 5x34
46 644 m 6x6c
 158 644 204 631 319 631 c 4x34
 400 631 399 644 483 644 c 4
 501 644 544 641 544 611 c 4
 544 572 492 576 470 573 c 5
 470 499 582 165 582 70 c 4
 582 57 606 52 640 52 c 4
 660 52 666 28 666 16 c 4
 666 6 661 -9 646 -9 c 4
 604 -9 623 -1 528 -1 c 4
 492 -1 464 -9 424 -9 c 4
 410 -9 401 6 401 16 c 4
 401 25 407 32 418 32 c 4xac
 427 32 453 43 484 55 c 5
 428 287 l 5
 359 283 254 263 183 248 c 5
 168 198 150 131 148 59 c 5
 172 58 187 56 217 56 c 7
 235 56 238 36 238 26 c 4
 238 16 233 0 218 0 c 4
 184 0 194 -2 159 -2 c 4
 126 -2 81 -7 47 -7 c 4
 29 -7 24 16 24 29 c 4
 24 38 25 55 40 55 c 4
 47 55 64 58 68 60 c 5
 70 124 174 526 186 575 c 5
 170 580 80 576 62 589 c 4
 44 602 37 635 37 644 c 5
 46 644 l 6x6c
EndSplineSet
Validated: 1
EndChar

StartChar: B
Encoding: 66 66 36
Width: 653
VWidth: -15
Flags: HW
HStem: -24 49<50.1729 136.727 282.779 449.94> 558 45<28.1846 122.702> 579 72<280.976 405.971>
VStem: 139 111<55.7484 537.748> 447 116<408.629 537.014> 497 119<68.3856 222.967>
LayerCount: 2
Back
Fore
SplineSet
336 579 m 0xb8
 293 579 250 544 250 481 c 2
 250 126 l 1
 251 60 274 25 391 25 c 0
 422 25 497 60 497 122 c 0xb4
 497 291 384 280 310 328 c 1
 294 338 l 1
 312 343 l 1
 409 372 447 418 447 469 c 0
 447 522 414 579 336 579 c 0xb8
414 -24 m 0
 274 -24 292 1 201 1 c 0
 191 1 138 -20 72 -20 c 0
 58 -20 50 -10 50 1 c 0
 50 18 65 30 83 30 c 3
 139 30 139 40 139 50 c 2
 139 519 l 1
 137 533 89 558 46 558 c 0
 34 558 28 570 28 578 c 0
 28 588 35 603 49 603 c 7xd4
 135 603 107 576 190 576 c 7
 247 576 254 651 368 651 c 0
 483 651 563 574 563 483 c 0xb8
 563 417 528 354 456 331 c 1
 520 301 616 279 616 155 c 0
 616 17 490 -24 414 -24 c 0
EndSplineSet
Validated: 1
EndChar

StartChar: C
Encoding: 67 67 37
Width: 680
VWidth: -12
Flags: HW
HStem: -26 62<228.5 490.82> 593 64<233.944 361.542>
VStem: 28 106<246.389 444.171> 595 46<-89.0486 25>
LayerCount: 2
Back
Fore
SplineSet
641 -69 m 1
 629 -77 624 -91 611 -91 c 2
 609 -91 l 1
 596 -84 604 -81 595 25 c 1
 513 -24 446 -26 338 -26 c 4
 119 -26 28 141 28 329 c 0
 28 477 145 657 294 657 c 0
 381 657 441 655 504 590 c 1
 550 626 570 655 600 655 c 0
 615 655 618 637 618 626 c 3
 618 593 548 533 484 484 c 1
 480 489 l 1
 480 489 367 593 282 593 c 0
 209 593 134 430 134 346 c 0
 134 164 337 36 441 36 c 0
 473 36 537 92 630 152 c 1
 642 159 l 1
 642 146 l 2
 642 81 641 11 641 -65 c 2
 641 -69 l 1
EndSplineSet
Validated: 1
EndChar

StartChar: D
Encoding: 68 68 38
Width: 629
VWidth: -12
Flags: HW
HStem: -21 55<253.468 457.015> 570 44<0.128174 91.5586> 583 72<266.19 390.976>
VStem: 30 30<-77.8076 -48.3358> 111 110<60.4062 550.456> 514 87<145.508 402.261>
LayerCount: 2
Back
Fore
SplineSet
514 236 m 0xbc
 514 470 408 583 332 583 c 0
 284 583 221 547 221 520 c 2
 221 61 l 1
 281 47 351 34 413 34 c 0
 443 34 514 79 514 236 c 0xbc
174 12 m 3
 101 12 83 -21 60 -82 c 1
 55 -82 l 2
 34 -82 30 -37 30 -31 c 0
 30 19 88 64 111 74 c 1
 111 530 l 1
 109 544 60 570 17 570 c 0
 5 570 0 582 0 590 c 0
 0 600 7 614 21 614 c 0xdc
 126 614 81 579 184 579 c 0
 206 579 250 655 362 655 c 0
 479 655 601 532 601 313 c 0
 601 64 489 -21 408 -21 c 0
 268 -21 266 12 174 12 c 3
EndSplineSet
Validated: 1
EndChar

StartChar: colon
Encoding: 58 58 39
Width: 263
VWidth: -3
Flags: HW
HStem: -17 149<82.0366 161.189> 219 150<75.4861 155.22>
VStem: 32 173<263.874 325.836> 40 173<28.2148 88.8359>
LayerCount: 2
Back
Fore
SplineSet
120 219 m 0xe0
 99 219 32 266 32 293 c 0
 32 313 88 369 113 369 c 0
 126 369 205 318 205 300 c 0
 205 280 143 219 120 219 c 0xe0
127 -17 m 0
 106 -17 40 29 40 56 c 0
 40 76 95 132 120 132 c 0
 133 132 213 80 213 62 c 0xd0
 213 42 150 -17 127 -17 c 0
EndSplineSet
Validated: 1
EndChar

StartChar: semicolon
Encoding: 59 59 40
Width: 250
VWidth: 2
Flags: HW
HStem: 224 150<62.8928 141.806>
VStem: 20 173<269.898 330.836> 161 60<-44.4563 15.1752>
LayerCount: 2
Back
Fore
SplineSet
132 151 m 0xa0
 153 151 203 48 203 48 c 2
 213 35 221 4 221 -27 c 0
 221 -68 195 -112 134 -112 c 0
 109 -112 83 -98 83 -81 c 0
 83 -32 161 -59 161 -27 c 0
 161 -20 154 8 150 16 c 1
 125 14 110 -11 92 -11 c 0
 63 -11 19 71 19 94 c 0
 19 119 110 151 132 151 c 0xa0
107 224 m 0
 86 224 20 271 20 298 c 0
 20 318 76 374 101 374 c 0
 114 374 193 322 193 304 c 0xc0
 193 284 130 224 107 224 c 0
EndSplineSet
Validated: 1
EndChar

StartChar: less
Encoding: 60 60 41
Width: 485
VWidth: -3
Flags: HW
HStem: -14 21G<403 425.5> 302 79<328.378 449.843>
VStem: 403 58<-4.3904 24.9315>
LayerCount: 2
Back
Fore
SplineSet
456 359 m 3
 456 337 451 324 441 302 c 1
 435 302 l 2
 422 302 397 293 379 293 c 0
 341 293 240 243 167 198 c 1
 266 157 461 113 461 54 c 0
 461 12 441 -14 410 -14 c 2
 403 -14 l 1
 403 -5 l 2
 403 61 157 71 8 195 c 1
 78 249 312 379 423 381 c 0
 433 381 456 379 456 359 c 3
EndSplineSet
Validated: 1
EndChar

StartChar: greater
Encoding: 62 62 42
Width: 485
VWidth: -3
Flags: HW
HStem: -14 21G<42.5 66> 302 79<18.543 139.902>
VStem: 8 58<-4.3904 24.5779>
LayerCount: 2
Back
Fore
SplineSet
461 195 m 1
 312 71 66 60 66 -5 c 2
 66 -14 l 1
 58 -14 l 2
 27 -14 8 12 8 54 c 0
 8 111 204 158 301 198 c 1
 226 244 127 293 89 293 c 0
 71 293 46 302 33 302 c 2
 28 302 l 1
 18 324 12 337 12 359 c 7
 12 379 36 381 46 381 c 0
 157 379 392 249 461 195 c 1
EndSplineSet
Validated: 1
EndChar

StartChar: F
Encoding: 70 70 43
Width: 525
VWidth: -14
Flags: HW
HStem: -18 56<32.8906 134.945> -2 49<273 420.518> 310 74<61 135> 316 76<276 437> 566 73<92.1424 142 280.624 427.945>
VStem: 135 139<42.3877 310 392 542.547> 440 44<232.932 313.178 392 423.723>
LayerCount: 2
Back
Fore
SplineSet
516 597 m 1xae
 509 556 481 440 481 381 c 0
 483 367 484 351 484 333 c 0
 484 290 478 228 448 226 c 1
 440 226 l 1
 440 234 l 1
 438 302 449 316 386 316 c 0
 288 316 300 313 276 312 c 1
 270 40 l 2
 271 42 273 47 273 47 c 1
 418 47 369 40 401 40 c 0
 415 40 422 26 422 16 c 0
 422 6 415 -7 401 -7 c 0
 338 -7 379 -2 179 -2 c 0x5e
 76 -2 121 -18 52 -18 c 0
 38 -18 31 -6 31 5 c 0
 31 19 41 38 62 38 c 0
 110 38 130 47 136 50 c 1
 135 310 l 1
 61 310 l 1
 28 384 l 1
 135 384 l 1
 135 455 l 2
 135 476 110 566 98 566 c 0
 88 566 61 547 51 547 c 0
 36 547 33 566 33 573 c 0
 33 591 123 639 133 639 c 0
 151 639 176 599 210 570 c 1
 261 606 303 643 390 643 c 3
 436 643 472 621 516 597 c 1xae
332 572 m 0
 294 572 273 538 269 529 c 1
 274 392 l 1
 437 392 l 1
 458 529 l 1
 439 539 375 572 332 572 c 0
EndSplineSet
Validated: 1
EndChar

StartChar: G
Encoding: 71 71 44
Width: 717
VWidth: -15
Flags: HW
HStem: -29 93<308.658 491.151> 230 44<375.514 432.015> 590 64<233.017 350.099>
VStem: 28 107<237.93 446.839> 620 69<118.67 220.887>
LayerCount: 2
Back
Fore
SplineSet
659 365 m 5
 641 350 636 349 616 331 c 1
 639 303 689 276 689 170 c 0
 689 21 450 -29 338 -29 c 0
 120 -29 28 138 28 326 c 0
 28 472 89 654 295 654 c 0
 437 654 494 583 555 517 c 1
 609 541 619 553 648 553 c 0
 663 553 665 536 665 525 c 3
 665 490 588 474 501 432 c 1
 496 437 l 2
 496 438 375 590 282 590 c 0
 206 590 135 427 135 343 c 0
 135 161 296 64 400 64 c 0
 504 64 614 117 620 131 c 1
 620 203 586 272 512 272 c 3
 500 272 434 242 383 230 c 1
 364 242 374 262 362 274 c 1
 486 308 562 343 637 414 c 1
 637 414 655 383 659 365 c 5
EndSplineSet
Validated: 1
EndChar

StartChar: H
Encoding: 72 72 45
Width: 873
VWidth: -15
Flags: HW
HStem: -17 19G<10 55 459.5 503 572 605 827 864> 301 79<256 388.419> 320 78<585.423 607 721 773.954>
VStem: 137 119<58.4235 301 380 575.747> 607 112<58.4277 320 404 575.328>
LayerCount: 2
Back
Fore
SplineSet
864 -19 m 1xb8
 790 -9 746 -2 668 -2 c 3
 633 -2 630 -17 580 -17 c 2
 572 -17 l 1
 572 -8 l 2
 572 65 603 33 603 74 c 0
 603 155 606 250 607 320 c 1xb8
 256 301 l 1
 256 233 256 146 256 72 c 0
 256 36 502 66 503 -8 c 1
 503 -17 l 1
 495 -17 l 1
 424 -13 280 -8 204 -8 c 0
 129 -8 92 -22 18 -22 c 2
 10 -22 l 1
 10 -14 l 2
 10 63 137 29 137 67 c 0
 137 245 144 374 144 552 c 0
 144 600 10 556 10 627 c 2
 10 636 l 1
 18 636 l 1
 130 632 126 625 185 625 c 0
 216 625 264 636 286 637 c 1
 294 637 l 1
 294 628 l 1
 293 557 255 591 255 552 c 2
 255 380 l 1xd8
 607 398 l 1
 608 449 610 502 610 558 c 0
 610 609 571 559 571 627 c 2
 571 635 l 1
 580 635 l 2
 618 635 640 629 649 629 c 0
 680 629 831 648 853 649 c 1
 862 649 l 1
 862 641 l 1
 861 567 719 593 719 558 c 2
 719 404 l 1
 799 408 l 1
 799 399 l 1
 799 399 798 377 788 357 c 0
 778 342 753 327 752 326 c 2
 721 324 l 1
 721 251 720 158 720 76 c 0
 720 40 863 63 864 -9 c 1
 864 -19 l 1xb8
EndSplineSet
Validated: 1
EndChar

StartChar: J
Encoding: 74 74 46
Width: 341
VWidth: -10
Flags: HW
HStem: -152 67<98.6199 172.961> 577 52<79.979 176.863>
VStem: 180 123<-38.0589 576.208>
LayerCount: 2
Back
Fore
SplineSet
303 662 m 1
 303 56 l 2
 303 -48 220 -152 137 -152 c 0
 95 -152 35 -134 35 -90 c 0
 35 -56 73 -39 74 -39 c 2
 81 -38 l 1
 84 -44 l 1
 84 -44 109 -85 137 -85 c 0
 173 -85 180 -67 180 -6 c 2
 180 541 l 2
 180 549 180 560 176 577 c 1
 92 579 10 595 10 635 c 0
 10 647 21 664 39 664 c 0
 74 664 96 629 156 629 c 0
 236 629 251 661 294 662 c 1
 303 662 l 1
EndSplineSet
Validated: 1
EndChar

StartChar: K
Encoding: 75 75 47
Width: 664
VWidth: -15
Flags: HW
HStem: -21 45<573.315 639.738>
VStem: 84 121<38.7893 295.144 369 595.08>
LayerCount: 2
Back
Fore
SplineSet
614 595 m 1
 534 576 393 429 336 386 c 1
 429 304 559 24 603 24 c 0
 617 24 640 13 640 -1 c 7
 640 -15 552 -21 516 -21 c 0
 439 -21 303 305 241 305 c 0
 231 305 205 270 205 241 c 2
 205 51 l 2
 205 30 297 44 297 2 c 0
 297 -15 280 -16 269 -16 c 0
 245 -16 187 -8 146 -8 c 0
 105 -8 58 -20 30 -20 c 0
 18 -20 0 -17 0 0 c 0
 0 54 84 23 84 55 c 2
 84 577 l 2
 84 611 8 581 8 622 c 0
 8 639 25 643 37 643 c 0
 65 643 105 629 145 629 c 0
 185 629 225 641 250 641 c 0
 261 641 278 639 278 622 c 0
 278 588 205 604 205 582 c 2
 205 369 l 1
 286 421 543 646 579 646 c 0
 613 646 614 602 614 602 c 1
 614 595 l 1
EndSplineSet
Validated: 1
EndChar

StartChar: L
Encoding: 76 76 48
Width: 662
VWidth: -10
Flags: HW
HStem: -18 21G<10 53> -2 54<260.128 424.663>
VStem: 144 115<56.3603 580.391> 600 43<-126 -10>
LayerCount: 2
Back
Fore
SplineSet
291 52 m 4x70
 367 52 589 61 618 159 c 5
 622 159 l 6
 642 159 643 90 643 90 c 5
 643 -126 l 5
 600 -126 l 5
 600 -10 l 5
 540 -3 261 -2 205 -2 c 4x70
 128 -2 90 -18 16 -18 c 6
 10 -18 l 5xb0
 10 -9 l 6
 10 68 138 35 138 73 c 4
 138 251 144 379 144 557 c 4
 144 605 10 570 10 641 c 6
 10 649 l 5
 17 649 l 5
 129 645 125 629 186 629 c 4
 232 629 338 648 399 649 c 5
 408 649 l 5
 408 641 l 5
 407 571 259 607 259 557 c 4
 259 379 260 254 260 76 c 4
 260 68 271 52 291 52 c 4x70
EndSplineSet
Validated: 1
EndChar

StartChar: M
Encoding: 77 77 49
Width: 864
VWidth: -15
Flags: HW
HStem: -19 23G<10 38 183 228 419 433>
VStem: 87 70<41.3096 194.042> 596 112<487.108 569.391> 638 119<41.132 246.804>
LayerCount: 2
Back
Fore
SplineSet
523 611 m 1xe0
 556 617 626 621 641 621 c 0
 672 621 733 636 756 637 c 1
 765 637 l 1
 765 629 l 1
 764 557 708 595 708 559 c 0xe0
 708 502 757 156 757 70 c 0
 757 16 854 55 855 -18 c 1
 855 -27 l 1
 779 -18 782 -10 705 -10 c 3
 642 -10 634 -24 582 -26 c 1
 575 -26 l 1
 575 -18 l 2
 575 59 638 1 638 66 c 0xd0
 638 140 606 272 598 403 c 1
 567 320 493 125 433 0 c 1
 425 -17 l 1
 419 2 l 1
 419 2 273 361 224 460 c 1
 199 341 157 88 157 59 c 0
 157 21 228 61 228 -11 c 2
 228 -19 l 1
 220 -19 l 1
 146 -15 175 -11 99 -11 c 0
 66 -11 59 -22 17 -22 c 2
 10 -22 l 1
 10 -14 l 2
 10 62 87 23 87 61 c 0
 87 110 173 492 173 563 c 0
 173 606 56 557 55 616 c 1
 55 625 l 1
 174 625 l 2
 205 625 272 645 296 646 c 1
 306 646 l 1
 306 604 266 584 263 584 c 1
 314 481 404 302 454 174 c 1
 508 300 596 541 596 559 c 0
 596 583 523 550 523 604 c 2
 523 611 l 1xe0
EndSplineSet
Validated: 1
EndChar

StartChar: O
Encoding: 79 79 50
Width: 759
VWidth: -15
Flags: HW
HStem: -17 55<339.241 537.634> 591 57<274.387 455.226>
VStem: 28 131<215.361 446.538> 612 119<153.426 409.414>
LayerCount: 2
Back
Fore
SplineSet
612 264 m 0
 612 473 505 591 350 591 c 0
 247 591 159 489 159 341 c 0
 159 139 288 38 464 38 c 0
 583 38 612 166 612 264 c 0
439 -17 m 0
 167 -17 28 111 28 312 c 0
 28 541 178 648 404 648 c 0
 586 648 731 493 731 322 c 0
 731 101 654 -17 439 -17 c 0
EndSplineSet
Validated: 1
EndChar

StartChar: N
Encoding: 78 78 51
Width: 746
VWidth: -14
Flags: HW
HStem: -15 21G<32 80 325.5 371> 584 54<33.8762 153>
VStem: 126 72<50.3352 438 570.42 583.959> 630 70<5.32266 43 190 587.075>
LayerCount: 2
Back
Fore
SplineSet
140 638 m 3
 180 638 195 621 198 615 c 1
 198 595 l 1
 208 561 559 253 630 190 c 1
 630 578 l 2
 630 602 552 561 552 637 c 6
 552 645 l 1
 560 645 l 1
 610 643 631 638 643 638 c 0
 674 638 729 643 729 643 c 1
 737 645 l 1
 737 635 l 6
 737 563 700 602 700 580 c 2
 700 -38 l 1
 685 -27 l 1
 658 -13 635 33 625 42 c 1
 625 43 l 1
 198 438 l 1
 198 64 l 2
 198 28 370 66 371 -7 c 1
 371 -15 l 1
 363 -15 l 1
 288 -11 273 -7 193 -7 c 0
 113 -7 119 -15 41 -15 c 2
 32 -15 l 1
 32 -7 l 2
 32 69 126 31 126 69 c 2
 126 568 l 2
 126 582 121 584 99 584 c 0
 81 584 75 576 51 576 c 0
 31 576 10 583 10 608 c 2
 10 615 l 1
 72 625 74 638 140 638 c 3
EndSplineSet
Validated: 1
EndChar

StartChar: Q
Encoding: 81 81 52
Width: 781
VWidth: -7
Flags: HW
HStem: -176 61<707.875 770.656> -6 54<336.981 533.172> 602 56<272.736 452.152>
VStem: 28 130<225.4 456.625> 608 122<159.577 419.501>
LayerCount: 2
Back
Fore
SplineSet
608 274 m 0
 608 483 502 602 348 602 c 0
 246 602 158 499 158 351 c 0
 158 149 286 48 461 48 c 0
 580 48 608 176 608 274 c 0
436 -6 m 0
 166 -6 28 121 28 322 c 0
 28 551 177 658 401 658 c 0
 581 658 730 503 730 332 c 0
 730 206 707 113 645 57 c 1
 746 26 670 -115 730 -115 c 4
 775 -115 777 -63 808 -63 c 4
 821 -63 825 -74 825 -83 c 4
 825 -114 771 -176 715 -176 c 4
 610 -176 590 -88 590 -56 c 7
 590 -11 579 2 534 2 c 0
 495 2 456 -6 436 -6 c 0
EndSplineSet
Validated: 1
EndChar

StartChar: R
Encoding: 82 82 53
Width: 723
VWidth: -14
Flags: HW
HStem: -18 56<15.3953 141.718> -6 49<263.698 402.839> 3 53<259 379.146> 274 34<260 384> 557 44<10.0925 105.665> 571 6<202 349>
VStem: 131 128<425.002 533.989> 142 117<56 274> 492 110<344.503 524.046>
LayerCount: 2
Back
Fore
SplineSet
382 43 m 0x5180
 397 43 403 29 403 19 c 0
 403 9 397 -6 382 -6 c 0x5180
 319 -6 394 3 200 3 c 0x3180
 96 3 103 -18 35 -18 c 0x9180
 21 -18 13 -8 13 3 c 0x3180
 13 17 23 38 44 38 c 0
 129 38 136 48 142 55 c 1x9180
 149 78 149 285 149 289 c 2
 131 515 l 2
 130 528 70 557 27 557 c 0x9a80
 15 557 10 569 10 577 c 0x1680
 10 586 14 601 28 601 c 0x1a80
 132 601 98 577 202 577 c 0
 259 577 266 652 379 652 c 0
 517 652 602 568 602 434 c 0
 602 360 561 295 497 263 c 1
 529 215 587 136 638 65 c 0
 642 59 699 54 699 25 c 0
 699 -9 656 -13 621 -13 c 0
 596 -13 549 -10 535 10 c 0
 463 109 433 189 320 253 c 0
 299 265 277 272 260 274 c 1
 259 56 l 1x3580
 361 55 348 43 382 43 c 0x5180
349 571 m 0x1680
 313 571 269 537 259 527 c 1
 260 362 l 1
 268 352 306 308 384 308 c 0
 470 308 492 352 492 438 c 0
 492 531 446 571 349 571 c 0x1680
EndSplineSet
Validated: 1
EndChar

StartChar: S
Encoding: 83 83 54
Width: 653
VWidth: -12
Flags: HW
HStem: -28 83<286.032 437.693> 246 126<186.801 315.976> 587 69<222.778 343.5> 605 20G<555.5 569>
VStem: 19 54<-92.9238 -68> 68 107<341.5 496.344> 517 108<159.292 293.988>
LayerCount: 2
Back
Fore
SplineSet
124 163 m 1xda
 206 111 310 55 382 55 c 7
 438 55 517 141 517 222 c 0
 517 270 490 313 465 313 c 0
 401 313 308 246 204 246 c 0
 109 246 68 307 68 376 c 0
 68 557 198 656 318 656 c 0xe6
 369 656 454 598 508 550 c 1
 539 602 l 1
 539 602 548 625 563 625 c 0
 575 625 592 616 592 602 c 0
 592 588 585 578 584 577 c 2
 538 512 l 2
 521 488 499 456 479 427 c 1
 492 429 502 430 513 430 c 0
 605 430 625 331 625 269 c 0
 625 89 467 -28 364 -28 c 0
 278 -28 160 -11 101 14 c 1
 73 -68 l 2
 73 -69 69 -94 48 -94 c 0
 36 -94 19 -84 19 -70 c 0
 19 -59 26 -47 26 -47 c 1
 58 17 80 108 124 163 c 1xda
237 372 m 0
 293 372 355 400 420 417 c 1
 355 508 289 587 256 587 c 0
 227 587 175 515 175 428 c 0
 175 394 204 372 237 372 c 0
EndSplineSet
Validated: 1
EndChar

StartChar: U
Encoding: 85 85 55
Width: 739
VWidth: -15
Flags: HW
HStem: -31 74<271.146 427.078>
VStem: 85 118<118.766 493.886> 531 118<115.984 123 123.241 599.66>
LayerCount: 2
Back
Fore
SplineSet
219 652 m 1
 206 588 204 559 203 211 c 0
 203 92 277 43 351 43 c 0
 401 43 531 64 531 195 c 0
 531 272 529 454 529 556 c 0
 529 610 482 605 482 626 c 3
 482 650 595 654 635 654 c 3
 648 654 653 610 653 577 c 0
 653 455 649 123 649 123 c 2
 649 37 720 49 720 19 c 0
 720 1 692 -27 649 -27 c 0
 613 -27 563 10 543 54 c 1
 497 0 365 -31 295 -31 c 0
 191 -31 85 77 85 216 c 0
 85 281 89 555 89 580 c 0
 89 607 28 604 28 629 c 7
 28 650 205 652 209 652 c 2
 219 652 l 1
EndSplineSet
Validated: 1
EndChar

StartChar: T
Encoding: 84 84 56
Width: 701
VWidth: -17
Flags: HW
HStem: -14 22G<126 192.5 546 584> 533 69<407.276 626.423> 542 80<59.1038 282.837>
VStem: 0 55<494.393 539.537> 290 116<56.3455 525.478> 638 63<619.826 682.175>
LayerCount: 2
Back
Fore
SplineSet
0 523 m 0xbc
 0 584 35 622 96 622 c 0xbc
 255 622 427 602 504 602 c 0
 567 602 638 619 638 636 c 0
 638 644 612 667 611 668 c 2
 602 674 l 1
 665 713 l 1
 668 710 701 686 701 654 c 0
 701 653 691 533 553 533 c 0xdc
 449 533 505 530 434 530 c 0
 411 530 406 519 406 515 c 2
 406 78 l 2
 406 30 583 64 584 -4 c 1
 584 -13 l 1
 576 -13 l 1
 516 -12 380 7 334 7 c 0
 273 7 250 -10 135 -14 c 1
 126 -14 l 1
 126 -6 l 2
 126 64 290 30 290 78 c 2
 290 515 l 1
 278 533 155 542 84 542 c 0
 59 542 55 520 55 479 c 2
 55 470 l 1
 27 477 0 483 0 523 c 0xbc
EndSplineSet
Validated: 1
EndChar

StartChar: V
Encoding: 86 86 57
Width: 630
VWidth: -15
Flags: HW
VStem: 548 83<531.133 636.33>
LayerCount: 2
Back
Fore
SplineSet
10 622 m 0
 10 644 63 655 114 655 c 0
 165 655 306 292 391 135 c 1
 461 299 548 501 548 534 c 0
 548 547 525 579 525 630 c 7
 525 651 573 652 595 652 c 0
 612 652 631 647 631 622 c 0
 631 556 418 -37 370 -37 c 0
 325 -37 162 361 94 511 c 0
 59 591 10 601 10 622 c 0
EndSplineSet
Validated: 1
EndChar

StartChar: W
Encoding: 87 87 58
Width: 999
VWidth: -14
Flags: HW
VStem: 923 76<521.814 635.81>
LayerCount: 2
Back
Fore
SplineSet
923 530 m 0
 923 543 902 575 902 626 c 7
 902 647 946 649 966 649 c 0
 981 649 999 644 999 620 c 0
 999 555 809 -39 765 -39 c 0
 726 -39 602 281 534 448 c 1
 475 260 366 -37 332 -37 c 0
 291 -37 148 362 86 512 c 0
 54 593 10 601 10 622 c 0
 10 644 59 655 105 655 c 0
 153 655 275 296 351 138 c 1
 411 298 469 445 481 474 c 0
 498 515 515 581 538 627 c 1
 544 640 l 1
 552 627 l 1
 594 561 707 291 784 134 c 1
 846 297 923 497 923 530 c 0
EndSplineSet
Validated: 1
EndChar

StartChar: X
Encoding: 88 88 59
Width: 630
VWidth: -15
Flags: HW
HStem: -18 22G<81 137 497 546> 546 100<59.2349 120.555>
DStem2: 332 415 263 294 0.50646 -0.862264<-210.445 0 57.6813 83.3444 137.222 355.362>
LayerCount: 2
Back
Fore
SplineSet
583 91 m 1
 593 83 612 85 612 65 c 0
 612 48 568 -17 524 -17 c 0
 470 -17 448 -8 421 25 c 0
 396 56 328 192 305 240 c 1
 257 114 170 -18 104 -18 c 4
 58 -18 19 6 19 34 c 0
 19 62 83 56 95 65 c 0
 185 124 253 270 263 294 c 1
 249 321 149 495 104 546 c 1
 92 546 19 547 19 575 c 3
 19 605 86 646 110 646 c 0
 188 646 303 463 332 415 c 1
 356 465 442 643 522 643 c 0
 542 643 567 618 567 603 c 0
 567 586 552 569 518 552 c 0
 459 523 375 371 363 347 c 1
 380 315 501 77 526 64 c 1
 539 66 569 82 583 91 c 1
EndSplineSet
Validated: 1
EndChar

StartChar: Y
Encoding: 89 89 60
Width: 470
VWidth: -15
Flags: HW
HStem: 595 51<28.6824 40.96>
VStem: 207 112<48 322.742> 393 77<525.099 644.799>
LayerCount: 2
Back
Fore
SplineSet
101 646 m 1
 160 596 215 459 283 355 c 1
 331 432 393 526 393 577 c 0
 393 636 400 648 440 648 c 0
 468 648 470 626 470 615 c 0
 470 533 390 417 324 301 c 1
 324 253 319 186 319 147 c 0
 319 91 323 58 324 48 c 1
 334 44 409 45 409 22 c 0
 409 5 403 -8 385 -8 c 0
 363 -8 330 5 298 5 c 0
 206 5 131 -7 111 -7 c 1
 111 -7 108 -8 104 -8 c 0
 95 -8 90 0 90 10 c 0
 90 43 184 47 204 48 c 1
 205 82 207 104 207 143 c 0
 207 191 204 254 201 299 c 1
 91 476 78 567 10 595 c 1
 10 601 l 2
 10 624 69 645 97 646 c 1
 101 646 l 1
EndSplineSet
Validated: 1
EndChar

StartChar: Z
Encoding: 90 90 61
Width: 647
VWidth: -10
Flags: HW
HStem: -14 21G<19 37> 0 114<213 496.178> 553 105<63.1013 345.014> 643 8<463 555>
VStem: 28 15<506 510> 560 69<-112.996 -7>
LayerCount: 2
Back
Fore
SplineSet
544 651 m 7x1c
 566 651 573 642 573 621 c 7
 573 583 213 114 213 114 c 5
 576 114 629 106 629 74 c 4
 629 33 627 -149 574 -149 c 4
 561 -149 560 -127 560 -117 c 4
 560 -104 563 -31 565 -7 c 5
 522 -6 325 0 259 0 c 4x5c
 162 0 37 -14 37 -14 c 5
 19 -14 l 5x8c
 19 0 l 5
 297 357 437 520 469 561 c 5
 439 564 377 569 359 569 c 4
 273 569 211 553 101 553 c 4
 73 553 43 507 43 506 c 6
 28 481 l 5
 28 510 l 5
 28 510 31 658 70 658 c 7x6c
 192 658 442 643 484 643 c 4
 533 643 510 651 544 651 c 7x1c
EndSplineSet
Validated: 1
EndChar

StartChar: dieresis
Encoding: 168 168 62
Width: 269
VWidth: -31
Flags: HW
HStem: 421 111<14.8814 87.9947 165.405 238.176>
VStem: -8 125<448.538 504.413> 142 124<447.58 505.602>
LayerCount: 2
Back
Fore
SplineSet
204 421 m 0
 189 421 142 454 142 475 c 0
 142 490 182 532 200 532 c 0
 210 532 266 494 266 480 c 0
 266 465 221 421 204 421 c 0
54 421 m 0
 37 421 -8 455 -8 475 c 0
 -8 490 31 532 49 532 c 0
 59 532 117 494 117 480 c 0
 117 465 71 421 54 421 c 0
EndSplineSet
Validated: 1
EndChar

StartChar: degree
Encoding: 176 176 71
Width: 441
VWidth: -29
Flags: HW
HStem: 363 51<129.413 193.554> 506 50<101.336 170.006>
VStem: 26 74<443.036 505.223> 194 76<414.173 483.187>
LayerCount: 2
Back
Fore
SplineSet
194 433 m 7
 194 466 159 506 131 506 c 0
 102 506 100 504 100 489 c 0
 100 450 150 414 169 414 c 7
 188 414 194 420 194 433 c 7
162 363 m 0
 93 363 26 411 26 463 c 0
 26 527 77 556 150 556 c 0
 209 556 270 505 270 474 c 0
 270 413 234 363 162 363 c 0
EndSplineSet
Validated: 1
EndChar

StartChar: asciicircum
Encoding: 94 94 75
Width: 454
VWidth: -28
Flags: HW
HStem: 364 32<372.485 422.095>
VStem: 30 75<373 412.683>
LayerCount: 2
Back
Fore
SplineSet
215 532 m 5
 340 478 351 396 416 396 c 6
 424 396 l 5
 424 388 l 6
 424 368 397 364 362 364 c 4
 309 364 255 437 212 468 c 5
 158 441 115 408 114 398 c 4
 113 388 106 381 105 379 c 5
 105 373 l 5
 83 370 71 366 50 366 c 7
 35 366 30 376 30 384 c 4
 31 430 160 508 215 532 c 5
EndSplineSet
Validated: 1
EndChar

StartChar: acute
Encoding: 180 180 87
Width: 214
VWidth: -34
Flags: HW
HStem: 401 208
VStem: 10 188
LayerCount: 2
Back
Fore
SplineSet
156 609 m 4
 184 609 198 600 198 577 c 4
 198 542 74 401 21 401 c 6
 10 401 l 5
 13 412 l 6
 42 516 118 609 156 609 c 4
EndSplineSet
Validated: 1
EndChar

StartChar: grave
Encoding: 96 96 88
Width: 214
VWidth: -34
Flags: HW
HStem: 401 208
VStem: 10 188
LayerCount: 2
Back
Fore
SplineSet
10 577 m 0
 10 600 24 609 52 609 c 7
 91 609 174 507 198 401 c 1
 188 401 l 2
 135 401 10 542 10 577 c 0
EndSplineSet
Validated: 1
EndChar

StartChar: dotlessi
Encoding: 305 305 105
Width: 233
VWidth: -4
Flags: HW
HStem: -18 21G<51.9353 80>
VStem: 52 98<66 320.225>
LayerCount: 2
Back
Fore
SplineSet
225 75 m 0
 225 52 100 -18 60 -18 c 2
 52 -18 l 1
 51 291 l 2
 51 333 -1 314 -1 343 c 0
 2 366 115 390 150 393 c 1
 150 66 l 1
 167 70 201 99 201 99 c 1
 206 103 l 1
 211 97 l 1
 211 97 225 86 225 75 c 0
EndSplineSet
Validated: 1
EndChar

StartChar: asciitilde
Encoding: 126 126 113
Width: 484
VWidth: -14
Flags: HW
HStem: 236 78<276.017 409.583> 302 77<71.1622 212.053>
LayerCount: 2
Back
Fore
SplineSet
150 379 m 0x40
 254 379 272 314 340 314 c 0
 444 314 455 372 455 372 c 1
 471 369 l 1
 471 369 463 236 332 236 c 0x80
 198 236 240 302 150 302 c 0
 82 302 6 238 6 238 c 1
 -8 227 l 1
 -7 244 l 2
 -7 245 0 379 150 379 c 0x40
EndSplineSet
Validated: 1
EndChar

StartChar: Ccedilla
Encoding: 199 199 120
Width: 655
VWidth: -8
Flags: HW
HStem: -198 54<313.013 396.155> -20 61<327.448 410.363> 598 64<206.883 334.339>
VStem: 1 105<251.889 449.593> 413 91<-127.185 -19.4473> 567 47<-82.6875 31>
LayerCount: 2
Back
Fore
SplineSet
614 -63 m 1
 602 -71 596 -85 583 -85 c 2
 581 -85 l 1
 568 -78 576 -75 567 31 c 1
 538 13 512 2 485 -6 c 1
 493 -19 504 -35 504 -58 c 0
 504 -133 442 -198 362 -198 c 0
 319 -198 260 -159 260 -111 c 0
 260 -101 267 -95 276 -95 c 0
 303 -95 323 -144 336 -144 c 0
 398 -144 413 -109 413 -71 c 0
 413 -53 409 -34 406 -19 c 5
 386 -20 347 -20 311 -20 c 3
 92 -20 1 147 1 335 c 0
 1 483 118 662 267 662 c 0
 354 662 413 661 476 596 c 1
 522 632 543 660 573 660 c 0
 588 660 590 642 590 631 c 7
 590 598 521 539 457 490 c 1
 452 494 l 1
 452 494 340 598 255 598 c 0
 182 598 106 435 106 351 c 0
 106 169 309 41 413 41 c 0
 445 41 509 97 602 157 c 1
 615 165 l 1
 615 151 l 2
 615 86 614 16 614 -60 c 2
 614 -63 l 1
EndSplineSet
Validated: 1
EndChar

StartChar: ccedilla
Encoding: 231 231 121
Width: 388
VWidth: 3
Flags: HW
HStem: -153 54<133.211 223.722> -13 68<188.914 241> 318 72<148.834 257.079>
VStem: 11 106<119.301 282.022> 241 90<-80.5272 -11.0066>
LayerCount: 2
Back
Fore
SplineSet
383 104 m 1
 368 76 355 46 323 19 c 1
 327 9 331 -1 331 -14 c 4
 331 -89 270 -153 185 -153 c 4
 137 -153 82 -114 82 -66 c 4
 82 -56 88 -50 97 -50 c 4
 122 -50 143 -99 157 -99 c 4
 225 -99 241 -64 241 -26 c 4
 241 -20 241 -15 240 -11 c 1
 230 -12 218 -13 206 -13 c 0
 82 -13 11 87 11 191 c 0
 11 324 91 390 222 390 c 0
 318 390 373 354 373 323 c 3
 373 293 342 276 312 259 c 1
 266 284 247 318 187 318 c 3
 154 318 117 270 117 185 c 0
 117 116 184 55 267 55 c 0
 316 55 327 115 352 115 c 0
 365 115 371 106 383 104 c 1
EndSplineSet
Validated: 1
EndChar

StartChar: zero
Encoding: 48 48 122
Width: 462
VWidth: -14
Flags: HW
HStem: -31 62<158.187 244.69> 573 61<218.904 300.072>
VStem: 28 99<122.839 412.95> 336 98<197.446 458.106>
LayerCount: 2
Back
Fore
SplineSet
336 376 m 0
 336 459 311 573 272 573 c 0
 162 573 127 356 127 219 c 0
 127 85 157 31 190 31 c 0
 314 31 336 306 336 376 c 0
231 -31 m 0
 89 -31 28 102 28 299 c 0
 28 523 113 634 231 634 c 0
 367 634 434 466 434 299 c 0
 434 80 373 -31 231 -31 c 0
EndSplineSet
Validated: 1
EndChar

StartChar: one
Encoding: 49 49 123
Width: 310
VWidth: -14
Flags: HW
HStem: -9 52<1.11909 109.527 210.304 310.645>
VStem: 111 98<55 531.998>
LayerCount: 2
Back
Fore
SplineSet
311 16 m 4
 311 3 299 -10 281 -10 c 7
 240 -10 202 0 163 0 c 4
 115 0 69 -9 19 -9 c 7
 7 -9 1 4 1 16 c 4
 1 24 2 39 10 43 c 4
 25 50 91 54 111 55 c 5
 110 522 l 2
 110 529 106 532 99 532 c 3
 79 532 35 508 13 508 c 3
 5 508 0 509 0 553 c 3
 0 568 149 629 208 645 c 1
 209 55 l 5
 229 55 291 47 299 43 c 4
 306 40 311 26 311 16 c 4
EndSplineSet
Validated: 1
EndChar

StartChar: two
Encoding: 50 50 124
Width: 523
VWidth: -14
Flags: HW
HStem: -31 115<241.147 443.535> -20 90<176 429.462> 567 76<166.349 295.294>
VStem: 352 86<392.649 514.242> 445 50<84.4716 180.723>
LayerCount: 2
Back
Fore
SplineSet
445 114 m 4xb8
 445 138 448 181 470 181 c 4
 481 181 495 174 495 156 c 4
 495 92 487 -31 461 -31 c 4xb8
 444 -31 304 -20 238 -20 c 4
 152 -20 40 -34 40 -34 c 5
 24 -36 l 5
 33 -21 l 5
 113 97 204 215 204 215 c 5
 290 331 352 383 352 463 c 4
 352 518 280 567 225 567 c 4
 107 567 100 365 62 365 c 4
 46 365 35 380 35 394 c 4
 35 509 130 643 242 643 c 4
 339 643 438 577 438 470 c 4
 438 384 358 316 259 176 c 5
 176 70 l 5x78
 315 71 420 78 430 84 c 4
 440 94 445 108 445 114 c 4xb8
EndSplineSet
Validated: 1
EndChar

StartChar: three
Encoding: 51 51 125
Width: 475
VWidth: -13
Flags: HW
HStem: -25 60<178.98 310.864> 561 78<97 313>
VStem: 19 52<-22.8296 49.3566> 52 45<486.179 561> 342 105<74.1257 249.491>
LayerCount: 2
Back
Fore
SplineSet
247 35 m 4xd8
 316 35 342 71 342 191 c 4
 342 303 145 328 143 328 c 6
 129 330 l 5
 313 562 l 5
 97 561 l 5
 96 547 97 486 73 486 c 7
 56 486 52 548 52 570 c 6
 52 639 l 5xd8
 446 639 l 5
 259 388 l 5
 304 377 447 326 447 185 c 4
 447 58 383 -25 247 -25 c 4
 174 -25 92 38 71 50 c 5
 61 30 54 -36 36 -36 c 4
 25 -36 19 -27 19 -18 c 4xe8
 19 6 43 60 52 78 c 6
 78 133 l 5
 78 133 176 35 247 35 c 4xd8
EndSplineSet
Validated: 1
EndChar

StartChar: four
Encoding: 52 52 126
Width: 526
VWidth: -14
Flags: HW
HStem: -8 54<194 313.434 399.405 496> 198 56<116 283.36> 206 54<307.484 313 397 427.895> 592 38<397 465.83>
VStem: 313 84<52.3954 206 267 529>
LayerCount: 2
Back
Fore
SplineSet
116 254 m 1xd8
 313 260 l 1xb8
 313 529 l 1
 285 481 193 345 116 254 c 1xd8
473 330 m 2
 482 330 l 1
 482 322 l 1
 482 322 480 249 458 230 c 0
 439 215 409 210 397 209 c 1
 398 59 l 1
 415 49 467 46 489 46 c 2
 496 46 l 1
 498 40 l 1
 498 40 504 26 504 14 c 0
 504 6 499 -8 485 -8 c 0
 439 -8 384 4 348 4 c 0
 310 4 249 -8 197 -8 c 0
 186 -8 180 -2 180 7 c 0
 180 20 191 37 191 37 c 1
 194 41 l 1
 198 41 l 2
 223 41 303 42 314 56 c 1
 313 206 l 1xb8
 28 198 l 1xd8
 28 273 l 1
 183 393 266 625 266 625 c 1
 268 630 l 1
 389 630 l 2
 421 630 466 628 466 610 c 3
 466 595 407 592 397 592 c 1
 397 267 l 1
 409 268 426 270 428 272 c 0
 432 276 444 330 473 330 c 2
EndSplineSet
Validated: 1
EndChar

StartChar: five
Encoding: 53 53 127
Width: 446
VWidth: -14
Flags: HW
HStem: -32 61<144.541 279.938> 324 78<119.048 288.807> 557 67<117.362 327.058>
VStem: 27 90<381 549.284> 324 84<125.673 288.635>
LayerCount: 2
Back
Fore
SplineSet
30 599 m 1
 79 619 224 624 297 624 c 0
 338 624 390 614 390 564 c 0
 390 528 382 514 363 514 c 0
 329 514 344 557 225 557 c 0
 186 557 158 555 116 544 c 1
 117 524 117 500 117 477 c 0
 117 443 117 400 117 381 c 1
 158 400 218 402 274 402 c 0
 349 402 408 333 408 243 c 0
 408 97 312 -32 202 -32 c 0
 131 -32 28 -1 28 28 c 3
 28 56 42 88 58 111 c 1
 108 66 162 29 241 29 c 3
 301 29 324 132 324 184 c 0
 324 313 282 324 176 324 c 0
 124 324 67 291 30 258 c 1
 27 301 27 410 27 484 c 3
 27 529 30 564 30 599 c 1
EndSplineSet
Validated: 1
EndChar

StartChar: six
Encoding: 54 54 128
Width: 506
VWidth: -13
Flags: HW
HStem: -37 69<190.263 329.09> 340 63<192.413 298.781> 588 46<226.488 324.484>
VStem: 24 104<100.076 333.667> 371 107<85.8835 250.353>
LayerCount: 2
Back
Fore
SplineSet
282 634 m 0
 390 634 446 610 446 574 c 0
 446 543 414 529 390 529 c 0
 356 529 311 588 287 588 c 0
 195 588 159 471 142 358 c 1
 176 388 232 403 291 403 c 0
 430 403 478 289 478 177 c 0
 478 86 407 -37 265 -37 c 0
 90 -37 24 86 24 221 c 0
 24 472 108 634 282 634 c 0
128 171 m 3
 128 74 203 32 269 32 c 0
 334 32 371 84 371 165 c 0
 371 235 314 340 247 340 c 0
 207 340 128 290 128 171 c 3
EndSplineSet
Validated: 1
EndChar

StartChar: seven
Encoding: 55 55 129
Width: 513
VWidth: -14
Flags: HW
HStem: -15 21G<36 63.5 346 398> 568 51<144.214 358.763>
LayerCount: 2
Back
Fore
SplineSet
266 66 m 1
 266 41 398 60 398 -6 c 2
 398 -15 l 1
 294 -11 284 6 231 6 c 0
 185 5 91 -13 36 -15 c 1
 36 -6 l 1
 37 59 146 36 167 81 c 0
 189 130 359 541 359 543 c 3
 359 552 350 568 332 568 c 0
 265 567 58 553 30 479 c 1
 27 479 l 2
 14 479 10 531 10 531 c 1
 10 550 13 628 42 628 c 0
 72 628 229 619 283 619 c 0
 311 619 433 634 479 634 c 2
 484 634 l 1
 484 626 l 1
 483 591 481 575 465 542 c 0
 452 514 288 118 266 66 c 1
EndSplineSet
Validated: 1
EndChar

StartChar: eight
Encoding: 56 56 130
Width: 483
VWidth: -14
Flags: HW
HStem: -38 61<180.933 336.791> 586 51<187.742 315.749>
VStem: 28 101<78.0016 220.649> 65 97<436.392 562.544> 348 81<407.293 554.522> 379 76<68.9705 203.424>
LayerCount: 2
Back
Fore
SplineSet
162 497 m 0xd8
 162 424 250 380 267 372 c 1
 281 374 348 389 348 485 c 0
 348 540 317 586 256 586 c 0
 190 586 162 553 162 497 c 0xd8
379 153 m 0xe4
 379 215 266 277 244 287 c 1
 223 280 129 245 129 160 c 0
 129 80 175 23 258 23 c 0
 352 23 379 81 379 153 c 0xe4
65 485 m 0xd0
 65 588 139 637 255 637 c 0
 350 637 429 570 429 485 c 0xd8
 429 435 409 375 344 341 c 1
 413 298 455 243 455 151 c 0
 455 49 360 -38 246 -38 c 0
 111 -38 28 30 28 152 c 0xe4
 28 221 96 287 180 322 c 1
 98 366 65 420 65 485 c 0xd0
EndSplineSet
Validated: 1
EndChar

StartChar: nine
Encoding: 57 57 131
Width: 488
VWidth: -13
Flags: HW
HStem: -34 44<169.637 298.291> 236 48<180.039 321.784> 566 64<169.623 306.798>
VStem: 19 105<349.562 514.651> 361 104<144.071 488.37>
LayerCount: 2
Back
Fore
SplineSet
218 -34 m 0
 112 -34 22 25 22 60 c 0
 22 91 54 104 77 104 c 0
 113 104 155 10 233 10 c 0
 335 10 351 95 364 279 c 1
 340 262 292 236 234 236 c 0
 98 236 19 311 19 423 c 0
 19 512 86 630 224 630 c 0
 370 630 465 563 465 325 c 0
 465 87 384 -34 218 -34 c 0
361 427 m 0
 361 531 293 566 232 566 c 0
 167 566 124 510 124 435 c 0
 124 367 169 284 235 284 c 0
 304 284 361 300 361 427 c 0
EndSplineSet
Validated: 1
EndChar

StartChar: underscore
Encoding: 95 95 132
Width: 556
VWidth: 13
Flags: HW
HStem: -31 88<18.1448 508.193>
LayerCount: 2
Back
Fore
SplineSet
-6 -7 m 1
 -6 7 9 47 19 57 c 1
 24 57 l 1
 24 57 188 52 293 52 c 0
 389 52 529 57 529 57 c 1
 538 57 l 1
 538 49 l 1
 538 49 538 18 532 3 c 0
 528 -3 393 -31 276 -31 c 0
 102 -31 2 -8 2 -8 c 1
 -6 -7 l 1
EndSplineSet
Validated: 1
EndChar

StartChar: equal
Encoding: 61 61 133
Width: 585
VWidth: -10
Flags: HW
HStem: 140 84<31.9869 529.906> 284 84<40.8999 537.906> 354 20G<35 41>
LayerCount: 2
Back
Fore
SplineSet
4 149 m 1x80
 6 161 19 226 27 226 c 1
 28 229 l 1
 32 228 l 1
 32 228 197 224 302 224 c 0
 398 224 540 228 540 228 c 1
 548 229 l 1
 548 222 l 1
 548 222 548 190 542 175 c 0
 538 160 523 150 522 149 c 2
 520 149 l 1
 520 149 403 140 286 140 c 0
 112 140 11 149 11 149 c 1
 4 149 l 1x80
11 292 m 1
 12 304 27 370 35 370 c 1
 37 374 l 1xa0
 41 373 l 1
 41 373 206 368 311 368 c 0xc0
 407 368 548 373 548 373 c 1
 556 374 l 1xa0
 556 365 l 1
 556 365 556 335 550 320 c 0
 546 306 532 293 532 293 c 1
 530 292 l 1
 528 292 l 1
 528 292 411 284 294 284 c 0xc0
 120 284 20 292 20 292 c 1
 11 292 l 1
EndSplineSet
Validated: 1
EndChar

StartChar: hyphen
Encoding: 45 45 134
Width: 323
VWidth: -10
Flags: HW
HStem: 218 85<18 287.449>
VStem: 3 298<220 295.755>
LayerCount: 2
Back
Fore
SplineSet
301 309 m 5
 299 291 301 268 288 230 c 4
 287 228 286 226 283 226 c 6
 283 226 220 218 158 218 c 4
 67 218 10 226 10 226 c 5
 3 227 l 5
 3 234 l 6
 3 244 10 303 16 304 c 5
 18 308 l 5
 24 308 l 5
 24 308 110 303 165 303 c 4
 215 303 292 308 292 308 c 5
 301 309 l 5
EndSplineSet
Validated: 1
EndChar

StartChar: plus
Encoding: 43 43 135
Width: 460
VWidth: -4
Flags: HW
HStem: -8 21G<192 201> 156 64<20.1128 34 34.0641 198 271 407.953 408 410 412 422.94 423 423.804>
VStem: 199 66<0.873077 17 17.0467 152 216 356.947 357 373.956 374 374.388>
LayerCount: 2
Back
Fore
SplineSet
265 13 m 1
 250 -2 209 -7 201 -7 c 6
 192 -8 l 1
 192 0 l 1
 192 0 199 89 199 152 c 1
 81 152 18 156 17 156 c 2
 10 156 l 1
 10 164 l 5
 11 178 26 214 30 220 c 1
 34 219 l 1
 34 219 122 217 198 216 c 1
 197 284 192 357 192 357 c 1
 192 361 l 1
 195 368 239 381 256 381 c 2
 264 381 l 1
 265 374 l 1
 265 374 270 314 271 216 c 1
 341 217 423 219 423 219 c 1
 431 220 l 1
 430 211 l 2
 430 203 422 157 412 157 c 1
 410 156 l 1
 408 156 l 1
 408 156 343 153 271 152 c 1
 270 81 265 17 265 17 c 1
 265 13 l 1
EndSplineSet
Validated: 1
EndChar

StartChar: exclam
Encoding: 33 33 136
Width: 264
VWidth: -14
Flags: HW
HStem: -34 148<64.4916 145.514>
VStem: 24 172<11.2148 71.5195> 33 129<295.98 619.192>
LayerCount: 2
Back
Fore
SplineSet
162 520 m 0xa0
 162 396 147 160 106 160 c 0
 70 160 33 386 33 515 c 0
 33 585 49 643 98 643 c 0
 147 643 162 592 162 520 c 0xa0
110 -34 m 0
 89 -34 24 12 24 39 c 0
 24 59 79 114 104 114 c 0
 117 114 196 63 196 45 c 0xc0
 196 25 133 -34 110 -34 c 0
EndSplineSet
Validated: 1
EndChar

StartChar: bar
Encoding: 124 124 137
Width: 148
VWidth: -3
Flags: HW
VStem: 45 85<-47.2249 552.444>
LayerCount: 2
Back
Fore
SplineSet
37 742 m 5
 56 755 94 774 112 774 c 6
 121 774 l 5
 121 766 l 5
 121 766 130 528 130 311 c 4
 130 166 122 -124 122 -124 c 5
 122 -126 l 5
 121 -129 l 5
 121 -129 108 -146 94 -152 c 4
 70 -161 48 -158 38 -160 c 5
 38 -151 l 5
 38 -151 45 171 45 290 c 4
 45 422 37 738 37 738 c 5
 37 742 l 5
EndSplineSet
Validated: 1
EndChar

StartChar: slash
Encoding: 47 47 138
Width: 281
VWidth: -14
Flags: HW
VStem: 23 228
LayerCount: 2
Back
Fore
SplineSet
251 637 m 1
 251 626 101 -63 89 -93 c 5
 86 -98 l 5
 76 -90 64 -89 44 -70 c 4
 33 -56 24 -34 23 -32 c 5
 40 6 178 643 188 705 c 1
 198 699 l 1
 207 696 250 659 251 640 c 1
 252 638 l 1
 251 637 l 1
EndSplineSet
Validated: 1
EndChar

StartChar: backslash
Encoding: 92 92 139
Width: 281
VWidth: -14
Flags: HW
VStem: 20 64<589.069 665.084>
LayerCount: 2
Back
Fore
SplineSet
84 698 m 1
 94 637 233 5 250 -31 c 5
 249 -33 240 -55 229 -69 c 4
 209 -88 196 -89 186 -97 c 5
 184 -92 l 5
 173 -54 20 617 20 630 c 3
 20 631 20 632 20 633 c 3
 20 650 66 688 74 692 c 2
 84 698 l 1
EndSplineSet
Validated: 1
EndChar

StartChar: numbersign
Encoding: 35 35 140
Width: 585
VWidth: -14
Flags: HW
HStem: 214 84<17.7786 33 33.0212 80 189 292 405 519.953> 224 80<19.9763 33 33.0212 77.7705> 360 82<33.9141 41 41.0343 121 227 334 444 527.968 528 545.348>
DStem2: 80 221 164 215 0.262548 0.964919<-202.086 0 103.881 144.888 251.842 394.145> 292 214 382 219 0.260841 0.965382<-190.501 0 111.533 150.934 258.79 405.4>
LayerCount: 2
Back
Fore
SplineSet
11 366 m 1x60
 12 385 30 433 37 444 c 1
 41 444 l 1
 41 444 88 444 142 442 c 1
 169 543 194 640 194 641 c 2
 197 651 l 1
 206 646 l 1
 206 646 235 630 247 618 c 0
 258 607 262 585 262 585 c 2
 262 584 262 581 262 580 c 2
 262 580 248 520 227 442 c 5
 271 442 313 442 357 442 c 1
 385 544 411 644 411 645 c 2
 414 657 l 1
 424 650 l 1
 424 650 451 633 462 621 c 0
 473 608 476 588 478 586 c 1
 477 584 l 1
 477 584 464 521 444 441 c 1
 504 443 547 445 548 445 c 2
 556 445 l 1
 556 437 l 1
 556 437 556 406 550 392 c 0
 543 374 532 368 530 365 c 1
 528 365 l 1
 528 365 484 362 423 360 c 1
 416 339 411 318 405 299 c 1
 477 301 539 304 540 304 c 2
 548 304 l 1
 548 296 l 1
 548 296 548 265 542 251 c 0
 537 234 523 227 520 224 c 1x60
 520 224 456 221 382 219 c 1
 331 49 306 -25 300 -40 c 1
 291 -36 l 1
 291 -36 267 -22 256 -10 c 0
 244 4 235 26 234 28 c 1
 235 32 l 1
 235 32 263 119 292 214 c 1
 286 214 l 2xa0
 241 214 196 214 164 215 c 1
 116 53 88 -35 88 -36 c 2
 86 -45 l 1
 77 -39 l 1
 77 -39 54 -28 43 -15 c 0
 32 0 23 21 22 25 c 1
 23 27 l 1
 23 27 52 123 80 221 c 1
 32 223 12 224 11 224 c 2
 4 225 l 1
 5 244 22 288 28 304 c 1
 33 304 l 1
 33 304 62 303 103 302 c 1
 110 323 114 341 121 360 c 1
 57 362 20 365 20 365 c 1
 11 366 l 1x60
302 298 m 2xa0
 317 298 l 1
 324 319 327 338 333 356 c 0
 333 357 334 359 334 359 c 1
 294 359 l 2
 262 359 233 360 206 360 c 1
 189 299 l 1
 230 298 269 298 302 298 c 2xa0
EndSplineSet
Validated: 1
EndChar

StartChar: at
Encoding: 64 64 141
Width: 748
VWidth: -14
Flags: HW
HStem: -31 62<315.28 515.299> 152 17<339 422> 436 70<286.565 421.42> 577 57<249.347 432.226>
VStem: 6 130<205.392 431.172> 180 112<171.185 227.919> 436 109<346.21 420.272> 589 119<184.417 399.768>
LayerCount: 2
Back
Fore
SplineSet
416 -31 m 0
 144 -31 6 96 6 297 c 0
 6 526 155 634 381 634 c 0
 563 634 708 477 708 306 c 0
 708 85 631 -31 416 -31 c 0
279 97 m 0
 258 97 239 99 224 105 c 1
 278 56 355 31 441 31 c 0
 498 31 535 61 557 101 c 1
 555 101 555 100 553 100 c 0
 511 100 432 150 422 152 c 1
 413 151 383 97 279 97 c 0
136 334 m 0
 136 263 152 204 180 158 c 1
 179 162 180 167 180 173 c 0
 180 309 436 315 436 372 c 0
 436 418 402 436 354 436 c 0
 321 436 289 424 285 418 c 1
 286 414 318 418 318 396 c 0
 318 369 276 369 251 369 c 0
 222 369 180 387 180 418 c 0
 180 480 304 506 367 506 c 0
 421 506 545 484 545 418 c 2
 546 204 l 2
 546 191 561 184 583 177 c 1
 589 205 589 232 589 257 c 0
 589 460 482 577 327 577 c 0
 224 577 136 477 136 334 c 0
339 169 m 0
 400 169 425 255 433 289 c 1
 393 278 292 240 292 194 c 0
 292 175 309 169 339 169 c 0
EndSplineSet
Validated: 1
EndChar

StartChar: oe
Encoding: 339 339 142
Width: 684
VWidth: 13
Flags: HW
HStem: 0 62<206.024 301.672> 7 64<443.194 570.815> 304 63<125.352 228.956> 321 48<431.47 486.321>
VStem: 28 91<165.236 284.192>
DStem2: 511 262 504 212 0.897199 0.441626<-115.418 -0.707918>
LayerCount: 2
Back
Fore
SplineSet
637 113 m 1x58
 612 69 591 8 478 7 c 0x58
 427 7 383 27 353 58 c 1
 325 20 288 0 236 0 c 0
 127 0 28 91 28 188 c 0
 28 309 104 367 217 367 c 0xa8
 262 367 305 342 335 314 c 1
 365 352 413 369 477 369 c 0
 541 369 578 329 598 311 c 1
 612 318 623 322 633 322 c 0
 649 322 656 308 656 292 c 0
 656 271 582 247 504 212 c 0
 450 188 428 173 410 162 c 1
 422 93 458 71 521 71 c 0
 594 71 584 123 610 123 c 0
 622 123 626 115 637 113 c 1x58
304 120 m 0
 304 204 236 304 180 304 c 0
 130 304 119 293 119 247 c 0
 119 150 214 62 250 62 c 7xa8
 302 62 304 71 304 120 c 0
451 321 m 0x18
 436 321 409 261 405 216 c 1
 428 224 485 247 511 262 c 1
 498 286 477 321 451 321 c 0x18
EndSplineSet
Validated: 1
EndChar

StartChar: question
Encoding: 63 63 143
Width: 302
VWidth: -14
Flags: HW
HStem: -34 148<58.0366 138.819> 564 69<48.1232 157.615>
VStem: 16 172<10.2124 71.5195> 66 41<161 170 170.025 254.525> 230 58<393.602 489.374>
LayerCount: 2
Back
Fore
SplineSet
66 168 m 6xd8
 66 183 57 276 57 304 c 7
 57 354 230 350 230 441 c 0
 230 484 146 564 117 564 c 0
 107 564 89 544 62 544 c 0
 37 544 26 567 26 589 c 0
 26 617 55 633 87 633 c 0
 130 633 288 588 288 426 c 0
 288 277 106 285 106 224 c 0
 106 205 107 170 107 170 c 1
 107 161 l 1
 66 161 l 1
 66 168 l 6xd8
104 -34 m 0
 83 -34 16 12 16 39 c 0
 16 59 71 114 96 114 c 0
 109 114 188 64 188 46 c 0xe8
 188 26 127 -34 104 -34 c 0
EndSplineSet
Validated: 1
EndChar

StartChar: percent
Encoding: 37 37 144
Width: 715
VWidth: -14
Flags: HW
HStem: -23 56<536.363 616.54> 236 54<470.181 560.179> 317 55<135.257 214.594> 574 56<69.4689 158.503>
VStem: -13 79<451.287 565.151> 217 82<390.338 502.898> 385 82<113.313 224.807> 618 78<49.0588 163.998>
DStem2: 177 41 236 -27 0.393181 0.919461<0 207.638>
LayerCount: 2
Back
Fore
SplineSet
223 -29 m 5
 215 -26 177 29 177 39 c 6
 177 41 l 1
 195 74 412 575 429 631 c 1
 434 642 l 1
 443 635 l 1
 443 635 468 616 479 603 c 0
 489 588 488 567 490 565 c 5
 489 564 l 1
 488 552 240 -19 236 -27 c 6
 231 -36 l 1
 223 -29 l 5
563 -23 m 0
 470 -23 385 54 385 137 c 0
 385 240 452 290 548 290 c 0
 625 290 696 204 696 158 c 0
 696 60 655 -23 563 -23 c 0
618 80 m 0
 618 150 564 236 518 236 c 0
 475 236 467 228 467 189 c 0
 467 106 547 33 576 33 c 3
 615 33 618 38 618 80 c 0
162 317 m 0
 71 317 -13 394 -13 477 c 0
 -13 580 52 630 146 630 c 0
 226 630 299 545 299 499 c 0
 299 401 257 317 162 317 c 0
217 419 m 0
 217 490 162 574 116 574 c 0
 75 574 66 567 66 529 c 0
 66 446 145 372 174 372 c 3
 213 372 217 377 217 419 c 0
EndSplineSet
Validated: 1
EndChar

StartChar: ampersand
Encoding: 38 38 145
Width: 662
VWidth: -14
Flags: HW
HStem: -30 52<134.572 264.562> 586 51<151.055 243.208>
VStem: -1 91<69.946 238.488> 66 73<469.207 574.235> 271 61<437.341 557.227> 498 64<280.882 334.878>
DStem2: 211 416 127 362 0.738305 -0.674467<-114.869 -25.5964 63.2833 299.344 360.148 526.391>
LayerCount: 2
Back
Fore
SplineSet
66 510 m 0xdc
 66 569 113 637 193 637 c 0
 259 637 332 579 332 497 c 0
 332 449 322 410 262 378 c 1
 305 338 376 267 431 213 c 1
 467 266 498 311 498 319 c 0
 498 352 446 315 446 361 c 3
 446 383 517 384 523 384 c 3
 546 384 599 383 599 364 c 7
 599 319 562 350 562 320 c 0
 562 308 525 238 477 173 c 1
 522 129 540 105 589 44 c 0
 608 21 643 35 643 4 c 0
 643 -29 606 -34 576 -34 c 0
 553 -34 523 -25 510 -10 c 0
 453 56 439 71 411 99 c 1
 347 38 257 -30 186 -30 c 0
 72 -30 -1 39 -1 159 c 0xec
 -1 227 54 323 127 362 c 1
 77 401 66 449 66 510 c 0xdc
90 159 m 0
 90 78 130 22 196 22 c 0
 272 22 330 85 370 134 c 1
 316 189 204 293 180 316 c 1
 158 299 90 242 90 159 c 0
139 522 m 0xdc
 139 480 197 428 211 416 c 1
 226 422 271 439 271 485 c 0
 271 540 242 586 194 586 c 0
 163 586 139 563 139 522 c 0xdc
EndSplineSet
Validated: 1
EndChar

StartChar: dollar
Encoding: 36 36 146
Width: 501
VWidth: -15
Flags: HW
HStem: -18 60<216 256> 592 50<216.282 255>
VStem: -2 92<439.211 529.649> 160 54<-44.5875 -28 69 280 407 568 642 670.998 689 689.075> 255 59<-44.7012 -18 86 240 378.384 571 647 692.705> 260 59<86 240 375 571> 369 103<122.966 264.5>
LayerCount: 2
Back
Fore
SplineSet
90 482 m 0xf2
 90 443 132 420 164 407 c 1
 163 461 162 520 161 568 c 1
 132 548 90 521 90 482 c 0xf2
254 672 m 2
 254 681 289 702 302 702 c 2
 312 702 l 1
 312 694 l 1
 312 694 313 675 314 647 c 1
 371 641 466 584 466 533 c 0
 466 489 454 472 422 472 c 0
 392 472 366 540 317 571 c 1
 319 514 321 439 321 367 c 1
 393 348 472 312 472 217 c 0
 472 103 391 39 314 6 c 1
 314 -38 l 2
 314 -57 270 -67 255 -67 c 1
 255 -58 l 1
 255 -58 255 -42 256 -18 c 1
 242 -21 225 -21 214 -22 c 1
 214 -43 l 2
 214 -60 175 -75 160 -75 c 1
 160 -65 l 1
 160 -65 160 -51 161 -28 c 1
 88 -26 -3 -11 -3 75 c 7
 -3 127 11 135 56 154 c 1
 84 116 132 84 162 69 c 1
 164 149 165 240 165 292 c 1
 88 310 -2 347 -2 462 c 0
 -2 561 85 605 160 626 c 1
 159 649 159 662 159 663 c 2
 159 667 l 2
 159 675 190 697 203 697 c 2
 213 697 l 1
 213 689 l 1
 213 689 214 670 215 642 c 1
 228 643 242 645 255 646 c 1xfa
 255 664 254 668 254 669 c 2
 254 672 l 2
251 42 m 3
 253 42 255 43 256 43 c 0
 257 116 260 210 260 272 c 1xf6
 246 275 233 278 221 280 c 1
 220 208 218 113 216 44 c 1
 227 43 239 42 251 42 c 3
235 592 m 3
 229 592 222 590 216 589 c 1
 218 533 219 458 220 382 c 1
 233 380 248 377 259 375 c 1
 258 447 257 531 256 592 c 1
 249 592 243 592 235 592 c 3
369 156 m 0
 369 197 338 223 319 240 c 1
 318 188 318 134 317 86 c 1
 338 108 369 133 369 156 c 0
EndSplineSet
Validated: 1
EndChar

StartChar: parenleft
Encoding: 40 40 147
Width: 239
VWidth: -14
Flags: HW
VStem: 8 100<158.049 446.565>
LayerCount: 2
Back
Fore
SplineSet
211 -30 m 3
 211 -48 198 -50 183 -50 c 3
 143 -50 8 102 8 286 c 0
 8 529 138 664 183 664 c 0
 198 664 211 657 211 645 c 0
 211 596 108 567 108 286 c 0
 108 55 211 19 211 -30 c 3
EndSplineSet
Validated: 1
EndChar

StartChar: parenright
Encoding: 41 41 148
Width: 231
VWidth: -14
Flags: HW
VStem: 117 101<158.049 446.565>
LayerCount: 2
Back
Fore
SplineSet
42 -50 m 7
 27 -50 14 -48 14 -30 c 7
 14 19 117 55 117 286 c 0
 117 567 14 596 14 645 c 0
 14 657 27 664 42 664 c 0
 87 664 218 529 218 286 c 0
 218 102 82 -50 42 -50 c 7
EndSplineSet
Validated: 1
EndChar

StartChar: asterisk
Encoding: 42 42 149
Width: 348
VWidth: -32
Flags: HW
HStem: 462 75<29.3374 97.9964 236.304 304.583>
VStem: 14 305<480.109 528.691>
LayerCount: 2
Back
Fore
SplineSet
282 384 m 0
 282 373 277 357 255 357 c 0
 223 357 188 410 169 429 c 1
 151 407 126 357 92 357 c 0
 72 357 62 372 62 384 c 0
 62 412 87 441 98 462 c 1
 71 468 14 473 14 514 c 0
 14 534 37 537 54 537 c 0
 77 537 105 531 122 529 c 1
 128 552 121 612 169 612 c 0
 214 612 211 550 213 529 c 1
 231 532 255 537 276 537 c 0
 295 537 319 533 319 514 c 0
 319 470 260 469 236 463 c 1
 251 442 282 414 282 384 c 0
EndSplineSet
Validated: 1
EndChar

StartChar: germandbls
Encoding: 223 223 150
Width: 510
VWidth: -14
Flags: HW
HStem: -27 52<213.197 321.355> 570 64<212.649 331.379>
VStem: 70 110<50.5298 523.286> 367 98<407.487 533.645> 383 97<79.4808 214.158>
LayerCount: 2
Back
Fore
SplineSet
211 8 m 7xe8
 211 12 213 22 215 25 c 1
 220 25 l 2
 292 25 383 50 383 147 c 0xe8
 383 234 290 281 224 319 c 1
 213 324 l 1
 225 331 l 1
 299 366 367 409 367 449 c 0
 367 541 324 570 263 570 c 0
 210 570 182 520 182 444 c 2
 180 -34 l 1
 166 -26 l 2
 118 1 -3 -12 -3 15 c 0
 -3 33 59 54 70 60 c 1
 70 418 l 2
 70 564 161 634 293 634 c 0
 397 634 465 545 465 456 c 0xf0
 465 395 427 360 361 324 c 1
 423 278 480 234 480 145 c 0
 480 26 329 -27 230 -27 c 2
 225 -27 l 1
 218 -15 211 -5 211 8 c 7xe8
EndSplineSet
Validated: 1
EndChar

StartChar: braceleft
Encoding: 123 123 151
Width: 361
VWidth: -14
Flags: HW
VStem: 139 93<101.453 242.203 390.739 528.769>
LayerCount: 2
Back
Fore
SplineSet
305 -50 m 7
 274 -50 139 65 139 194 c 0
 139 275 -1 281 -1 309 c 0
 -1 343 137 351 137 443 c 0
 137 553 269 664 305 664 c 0
 320 664 332 657 332 645 c 0
 332 603 232 560 232 443 c 0
 232 363 162 322 141 309 c 1
 163 296 232 265 232 194 c 0
 232 51 332 14 332 -30 c 7
 332 -41 317 -50 305 -50 c 7
EndSplineSet
Validated: 1
EndChar

StartChar: braceright
Encoding: 125 125 152
Width: 360
VWidth: -14
Flags: HW
VStem: 113 92<101.453 240.234 393.162 528.769>
LayerCount: 2
Back
Fore
SplineSet
41 -50 m 3
 26 -50 13 -48 13 -30 c 3
 13 14 113 51 113 194 c 0
 113 265 183 297 204 309 c 1
 181 323 113 363 113 443 c 0
 113 560 13 603 13 645 c 0
 13 657 26 664 41 664 c 0
 77 664 208 553 208 443 c 0
 208 351 346 343 346 309 c 0
 346 281 205 275 205 194 c 0
 205 65 72 -50 41 -50 c 3
EndSplineSet
Validated: 1
EndChar

StartChar: bracketleft
Encoding: 91 91 153
Width: 217
VWidth: -14
Flags: HW
HStem: -68 65<118 185.273> -59 59<130.727 183.797> 600 59<117.88 185.093> 602 65<114 192.326>
VStem: 20 87<39.2201 570.94>
LayerCount: 2
Back
Fore
SplineSet
203 659 m 1x28
 199 645 188 601 178 600 c 1x28
 114 602 l 1
 113 568 107 401 107 297 c 0
 107 231 117 33 118 -3 c 5x98
 178 0 l 5
 191 -13 200 -42 204 -59 c 5x48
 112 -68 l 5
 111 -68 l 6
 98 -68 43 -58 36 -52 c 5
 32 -50 l 5
 32 -46 l 5
 32 -46 20 204 20 290 c 0
 20 385 31 640 31 640 c 1
 31 644 l 1
 36 646 l 1
 43 652 96 667 107 667 c 2
 108 667 l 1x98
 203 659 l 1x28
EndSplineSet
Validated: 1
EndChar

StartChar: bracketright
Encoding: 93 93 154
Width: 220
VWidth: -14
Flags: HW
HStem: -65 65<30.9307 99> -56 59<30.0054 86.0693> 600 59<31.0028 97.016> 602 65<22.2891 101>
VStem: 105 87<33.7638 541.57>
LayerCount: 2
Back
Fore
SplineSet
107 667 m 1x18
 121 667 182 652 182 644 c 2
 182 640 l 1
 182 640 192 385 192 290 c 0
 192 204 183 -43 183 -43 c 1
 183 -47 l 1
 180 -49 l 1
 174 -55 118 -65 105 -65 c 2x98
 12 -56 l 1
 12 -42 26 1 38 3 c 1x48
 99 0 l 1
 100 39 105 231 105 297 c 0
 105 402 102 570 101 602 c 1x98
 36 600 l 1
 30 604 11 646 11 659 c 1x28
 107 667 l 1x18
EndSplineSet
Validated: 1
EndChar

StartChar: uni00AD
Encoding: 173 173 155
Width: 323
VWidth: -10
Flags: HW
HStem: 218 85<18 287.449>
VStem: 3 298<220 295.755>
LayerCount: 2
Back
Fore
SplineSet
301 309 m 5
 299 291 301 268 288 230 c 4
 287 228 286 226 283 226 c 6
 283 226 220 218 158 218 c 4
 67 218 10 226 10 226 c 5
 3 227 l 5
 3 234 l 6
 3 244 10 303 16 304 c 5
 18 308 l 5
 24 308 l 5
 24 308 110 303 165 303 c 4
 215 303 292 308 292 308 c 5
 301 309 l 5
EndSplineSet
Validated: 1
EndChar

StartChar: quotedblright
Encoding: 8221 8221 156
Width: 348
VWidth: 41
Flags: HW
HStem: 377 316<58.6293 82.6978 230.629 255.698>
VStem: 30 115<488.888 657.212> 202 116<488.888 657.212>
LayerCount: 2
Back
Fore
SplineSet
202 391 m 6
 202 543 208 693 257 693 c 7
 297 693 318 677 318 643 c 4
 318 602 299 377 215 377 c 6
 202 377 l 5
 202 391 l 6
30 391 m 6
 30 543 36 693 85 693 c 7
 125 693 145 677 145 643 c 4
 145 602 126 377 42 377 c 6
 30 377 l 5
 30 391 l 6
EndSplineSet
Validated: 1
EndChar

StartChar: quotedblleft
Encoding: 8220 8220 157
Width: 348
VWidth: 41
Flags: HW
HStem: 377 316<92.3022 117.371 265.302 289.371>
VStem: 30 116<412.788 581.112> 203 115<412.788 581.112>
LayerCount: 2
Back
Fore
SplineSet
146 679 m 6
 146 527 140 377 91 377 c 7
 51 377 30 393 30 427 c 4
 30 468 49 693 133 693 c 6
 146 693 l 5
 146 679 l 6
318 679 m 6
 318 527 312 377 263 377 c 7
 223 377 203 393 203 427 c 4
 203 468 222 693 306 693 c 6
 318 693 l 5
 318 679 l 6
EndSplineSet
Validated: 1
EndChar

StartChar: quoteright
Encoding: 8217 8217 158
Width: 177
VWidth: 41
Flags: HW
HStem: 380 314<60.7083 84.5327>
VStem: 30 117<491.774 651.066>
LayerCount: 2
Back
Fore
SplineSet
30 394 m 6
 30 545 40 694 86 694 c 7
 128 694 147 679 147 645 c 4
 147 605 129 380 43 380 c 6
 30 380 l 5
 30 394 l 6
EndSplineSet
Validated: 1
EndChar

StartChar: quoteleft
Encoding: 8216 8216 159
Width: 177
VWidth: 41
Flags: HW
HStem: 380 314<92.4673 116.292>
VStem: 30 117<422.934 582.226>
LayerCount: 2
Back
Fore
SplineSet
147 680 m 6
 147 529 137 380 91 380 c 7
 49 380 30 395 30 429 c 4
 30 469 48 694 134 694 c 6
 147 694 l 5
 147 680 l 6
EndSplineSet
Validated: 1
EndChar

StartChar: endash
Encoding: 8211 8211 160
Width: 420
VWidth: -10
Flags: HW
HStem: 218 82<19.0563 27 30 391.931>
LayerCount: 2
Back
Fore
SplineSet
410 306 m 5
 408 288 411 267 393 230 c 4
 392 228 390 226 386 226 c 6
 386 226 301 218 218 218 c 4
 96 218 19 226 19 226 c 5
 10 227 l 5
 10 234 l 6
 10 244 19 300 27 301 c 5
 30 305 l 5
 38 305 l 5
 38 305 153 300 227 300 c 4
 294 300 398 305 398 305 c 5
 410 306 l 5
EndSplineSet
Validated: 1
EndChar

StartChar: uni2011
Encoding: 8209 8209 161
Width: 323
VWidth: -10
Flags: HW
HStem: 218 85<18 287.449>
VStem: 3 298<220 295.755>
LayerCount: 2
Back
Fore
SplineSet
301 309 m 5
 299 291 301 268 288 230 c 4
 287 228 286 226 283 226 c 6
 283 226 220 218 158 218 c 4
 67 218 10 226 10 226 c 5
 3 227 l 5
 3 234 l 6
 3 244 10 303 16 304 c 5
 18 308 l 5
 24 308 l 5
 24 308 110 303 165 303 c 4
 215 303 292 308 292 308 c 5
 301 309 l 5
EndSplineSet
Validated: 1
EndChar

StartChar: uni2010
Encoding: 8208 8208 162
Width: 323
VWidth: -10
Flags: HW
HStem: 218 85<18 287.449>
VStem: 3 298<220 295.755>
LayerCount: 2
Back
Fore
SplineSet
301 309 m 5
 299 291 301 268 288 230 c 4
 287 228 286 226 283 226 c 6
 283 226 220 218 158 218 c 4
 67 218 10 226 10 226 c 5
 3 227 l 5
 3 234 l 6
 3 244 10 303 16 304 c 5
 18 308 l 5
 24 308 l 5
 24 308 110 303 165 303 c 4
 215 303 292 308 292 308 c 5
 301 309 l 5
EndSplineSet
Validated: 1
EndChar

StartChar: figuredash
Encoding: 8210 8210 163
Width: 420
VWidth: -10
Flags: HW
HStem: 218 82<19.0563 27 30 391.931>
LayerCount: 2
Back
Fore
SplineSet
410 306 m 5
 408 288 411 267 393 230 c 4
 392 228 390 226 386 226 c 6
 386 226 301 218 218 218 c 4
 96 218 19 226 19 226 c 5
 10 227 l 5
 10 234 l 6
 10 244 19 300 27 301 c 5
 30 305 l 5
 38 305 l 5
 38 305 153 300 227 300 c 4
 294 300 398 305 398 305 c 5
 410 306 l 5
EndSplineSet
Validated: 1
EndChar

StartChar: emdash
Encoding: 8212 8212 164
Width: 642
VWidth: -10
Flags: HW
HStem: 218 82<68.5322 598.865>
LayerCount: 2
Back
Fore
SplineSet
632 306 m 5
 627 288 632 266 605 230 c 4
 603 228 600 226 594 226 c 6
 594 226 462 218 333 218 c 4
 143 218 24 226 24 226 c 5
 10 227 l 5
 10 234 l 6
 10 244 24 300 36 301 c 5
 41 305 l 5
 53 305 l 5
 53 305 232 300 347 300 c 4
 451 300 613 305 613 305 c 5
 632 306 l 5
EndSplineSet
Validated: 1
EndChar

StartChar: onedotenleader
Encoding: 8228 8228 165
Width: 263
VWidth: 9
Flags: HW
HStem: -20 149<82.8928 162.22>
VStem: 40 172<24.8728 86.5195>
LayerCount: 2
Back
Fore
SplineSet
127 -20 m 4
 106 -20 40 27 40 54 c 4
 40 74 94 129 119 129 c 4
 132 129 212 78 212 60 c 4
 212 40 150 -20 127 -20 c 4
EndSplineSet
Validated: 1
EndChar

StartChar: twodotenleader
Encoding: 8229 8229 166
Width: 483
VWidth: 9
Flags: HW
HStem: -20 149<82.8928 162.22 313.893 393.22>
VStem: 40 172<24.8728 86.5195> 271 172<24.8728 86.5195>
LayerCount: 2
Back
Fore
SplineSet
358 -20 m 4
 337 -20 271 27 271 54 c 4
 271 74 325 129 350 129 c 4
 363 129 443 78 443 60 c 4
 443 40 381 -20 358 -20 c 4
127 -20 m 4
 106 -20 40 27 40 54 c 4
 40 74 94 129 119 129 c 4
 132 129 212 78 212 60 c 4
 212 40 150 -20 127 -20 c 4
EndSplineSet
Validated: 1
EndChar

StartChar: ellipsis
Encoding: 8230 8230 167
Width: 713
VWidth: 9
Flags: HW
HStem: -20 149<82.8928 162.22 313.893 393.22 543.893 623.22>
VStem: 40 172<24.8728 86.5195> 271 172<24.8728 86.5195> 501 172<24.8728 86.5195>
LayerCount: 2
Back
Fore
SplineSet
588 -20 m 0
 567 -20 501 27 501 54 c 0
 501 74 555 129 580 129 c 0
 593 129 673 78 673 60 c 0
 673 40 611 -20 588 -20 c 0
358 -20 m 0
 337 -20 271 27 271 54 c 0
 271 74 325 129 350 129 c 0
 363 129 443 78 443 60 c 0
 443 40 381 -20 358 -20 c 0
127 -20 m 0
 106 -20 40 27 40 54 c 0
 40 74 94 129 119 129 c 0
 132 129 212 78 212 60 c 0
 212 40 150 -20 127 -20 c 0
EndSplineSet
Validated: 1
EndChar

StartChar: aogonek
Encoding: 261 261 176
Width: 470
VWidth: -3
Flags: HW
HStem: -151 35<359.8 447.089> -13 21G<88.5 170.5 389 415> 41 10<178 263> 311 69<123.757 261.859>
VStem: 19 109<53.89 111.802> 264 66<-93.9884 -5.53965> 277 112<223.542 295.023>
LayerCount: 2
Back
Fore
SplineSet
450 -125 m 0xfc
 450 -145 414 -151 397 -151 c 0
 356 -151 325 -135 302 -114 c 0
 278 -92 264 -75 264 -33 c 0xfc
 264 -6 275 13 289 29 c 1
 276 35 266 40 263 41 c 0
 254 40 224 -13 117 -13 c 0
 60 -13 19 6 19 59 c 0
 19 188 277 194 277 248 c 0
 277 292 242 311 192 311 c 0
 157 311 126 298 122 292 c 0
 123 288 155 292 155 270 c 0
 155 246 113 244 89 244 c 0
 61 244 19 260 19 291 c 0
 19 353 140 380 205 380 c 0
 262 380 389 360 389 297 c 2xfa
 390 90 l 2
 390 60 470 71 470 38 c 0
 470 14 436 -9 394 -9 c 0
 384 -9 372 -6 358 -1 c 1
 344 -11 330 -23 330 -39 c 0
 330 -55 333 -82 356 -97 c 0
 388 -118 434 -105 447 -116 c 0
 450 -118 450 -122 450 -125 c 0xfc
178 51 m 0
 242 51 268 137 276 171 c 1
 234 160 128 122 128 76 c 0
 128 57 147 51 178 51 c 0
EndSplineSet
Validated: 1
EndChar

StartChar: Aogonek
Encoding: 260 260 177
Width: 688
VWidth: -15
Flags: HW
HStem: -155 35<574.8 662.089> -9 61<582 663.998> -9 41<401.644 476.832> -7 62<25.709 67.8031 148 236.208> 287 76<317.4 407> 562 69<255 366> 575 69<53.6733 185.115 471.731 541.11>
VStem: 68 80<59 178.836> 479 66<-97.9884 -8.81478>
DStem2: 186 575 207 347 0.225546 0.974233<-507.967 -308.799 -217.389 -0.0250606>
LayerCount: 2
Back
Fore
SplineSet
665 -129 m 0xcb80
 665 -149 629 -155 612 -155 c 0
 571 -155 540 -139 517 -118 c 0
 493 -96 479 -79 479 -37 c 0
 479 -25 481 -14 485 -4 c 1
 466 -6 447 -9 424 -9 c 0
 410 -9 401 6 401 16 c 0
 401 25 407 32 418 32 c 0xa980
 427 32 453 43 484 55 c 1
 428 287 l 1
 359 283 254 263 183 248 c 1
 168 198 150 131 148 59 c 1
 172 58 187 56 217 56 c 0
 235 56 238 36 238 26 c 0
 238 16 233 0 218 0 c 0
 184 0 194 -2 159 -2 c 0
 126 -2 81 -7 47 -7 c 0
 29 -7 24 16 24 29 c 0
 24 38 25 55 40 55 c 0
 47 55 64 58 68 60 c 0
 70 124 174 526 186 575 c 1
 170 580 80 576 62 589 c 0
 44 602 37 635 37 644 c 1
 46 644 l 2x9b80
 158 644 204 631 319 631 c 0x8d80
 400 631 399 644 483 644 c 0
 501 644 544 641 544 611 c 0
 544 572 492 576 470 573 c 1
 470 499 582 165 582 70 c 0
 582 57 606 52 640 52 c 0
 660 52 666 28 666 16 c 0
 666 6 661 -9 646 -9 c 0
 614 -9 617 -4 577 -2 c 1
 561 -13 545 -25 545 -43 c 0
 545 -59 548 -86 571 -101 c 0
 603 -122 649 -109 662 -120 c 0
 665 -122 665 -126 665 -129 c 0xcb80
207 347 m 1
 407 363 l 1
 366 562 l 1x8d80
 255 559 l 1
 207 347 l 1
EndSplineSet
Validated: 1
EndChar

StartChar: Eogonek
Encoding: 280 280 178
Width: 657
VWidth: -12
Flags: HW
HStem: -132 36<626.991 698.167> -26 108<298.24 468.734> 261 104<162 276.137> 566 90<208.988 356.489>
VStem: 28 124<365 442.531> 532 66<-73.9884 14.6179> 584 71<167.243 285> 585 61<108.687 268.004>
LayerCount: 2
Back
Fore
SplineSet
271 566 m 0xf8
 174 566 156 458 152 365 c 1
 533 387 l 1
 484 452 378 566 271 566 c 0xf8
435 82 m 0
 506 82 570 110 585 119 c 1xf9
 584 285 l 1xfa
 532 282 230 263 162 261 c 1
 173 181 235 82 435 82 c 0
701 -105 m 0
 701 -125 666 -132 649 -132 c 0
 625 -132 593 -115 570 -94 c 0
 546 -72 532 -55 532 -13 c 0xfc
 532 5 537 20 545 33 c 1
 483 -3 427 -26 339 -26 c 0
 120 -26 28 141 28 329 c 0
 28 477 146 656 295 656 c 0
 382 656 484 617 549 552 c 1
 568 602 568 655 601 655 c 0
 615 655 619 638 619 626 c 0
 619 582 583 483 570 398 c 1
 655 405 l 5xfa
 647 361 646 111 646 37 c 6
 646 33 l 1xf9
 628 19 598 5 598 -19 c 0xfc
 598 -35 601 -62 624 -77 c 0
 656 -98 685 -85 698 -96 c 0
 701 -98 701 -102 701 -105 c 0
EndSplineSet
Validated: 1
EndChar

StartChar: eogonek
Encoding: 281 281 179
Width: 456
VWidth: -3
Flags: HW
HStem: -140 35<284.8 372.089> -15 68<186.12 189 255.001 332.962> 327 53<172.503 235.539>
VStem: 28 113<212 289.486> 189 66<-82.9243 -22.1875>
DStem2: 216 241 256 208 0.925901 0.377767<-80.3291 51.5582>
LayerCount: 2
Back
Fore
SplineSet
194 327 m 0
 176 327 145 261 141 212 c 1
 159 219 180 228 216 241 c 0
 234 249 252 255 266 263 c 1
 251 290 224 327 194 327 c 0
375 -114 m 0
 375 -134 339 -140 322 -140 c 0
 281 -140 250 -124 227 -103 c 0
 203 -81 189 -64 189 -22 c 2
 189 -15 l 1
 87 3 28 93 28 186 c 0
 28 318 94 380 225 380 c 0
 301 380 341 337 363 317 c 1
 378 325 392 329 403 329 c 0
 421 329 428 314 428 296 c 0
 428 273 345 247 256 208 c 0
 191 181 167 164 146 152 c 1
 159 76 202 53 276 53 c 0
 359 53 347 110 375 110 c 0
 389 110 395 101 407 98 c 1
 381 53 361 -5 258 -16 c 0
 256 -20 255 -24 255 -28 c 0
 255 -44 258 -71 281 -86 c 0
 313 -107 359 -94 372 -105 c 0
 375 -107 375 -111 375 -114 c 0
EndSplineSet
Validated: 1
EndChar

StartChar: zdotaccent
Encoding: 380 380 180
Width: 494
VWidth: -2
Flags: HW
HStem: 4 77<202 423.461> 318 79<72.4995 225.013> 347 35<348.5 426.325> 447 149<204.893 284.22>
VStem: 162 172<491.873 553.52>
LayerCount: 2
Back
Fore
SplineSet
249 447 m 4x98
 228 447 162 494 162 521 c 4
 162 541 216 596 241 596 c 4
 254 596 334 545 334 527 c 4
 334 507 272 447 249 447 c 4x98
415 382 m 3xb8
 428 382 438 373 438 361 c 3
 438 333 202 81 202 81 c 1
 457 80 476 67 476 44 c 3
 476 21 476 -50 438 -50 c 3
 427 -50 426 -33 426 -29 c 0
 426 -23 426 -19 427 -15 c 1
 392 -11 252 4 204 4 c 0
 134 4 46 -20 46 -20 c 1
 19 -27 l 1
 37 -7 l 1
 216 183 286 254 308 277 c 1
 193 299 185 318 90 318 c 0
 70 318 49 291 49 291 c 1
 35 271 l 1
 35 296 l 2
 35 327 74 397 112 397 c 0xd8
 204 397 335 347 362 347 c 0
 392 347 383 382 415 382 c 3xb8
EndSplineSet
Validated: 1
EndChar

StartChar: Zdotaccent
Encoding: 379 379 181
Width: 647
VWidth: -10
Flags: HW
HStem: -14 21G<19 37> 0 114<213 496.178> 553 105<63.1013 345.014> 643 8<463 555> 700 149<254.893 334.22>
VStem: 28 15<506 510> 212 172<744.873 806.52> 560 69<-112.996 -7>
LayerCount: 2
Back
Fore
SplineSet
299 700 m 4x0f
 278 700 212 747 212 774 c 4
 212 794 266 849 291 849 c 4
 304 849 384 798 384 780 c 4
 384 760 322 700 299 700 c 4x0f
544 651 m 3x1f
 566 651 573 642 573 621 c 3
 573 583 213 114 213 114 c 1
 576 114 629 106 629 74 c 0
 629 33 627 -149 574 -149 c 0
 561 -149 560 -127 560 -117 c 0
 560 -104 563 -31 565 -7 c 1
 522 -6 325 0 259 0 c 0x5f
 162 0 37 -14 37 -14 c 1
 19 -14 l 1x8f
 19 0 l 1
 297 357 437 520 469 561 c 1
 439 564 377 569 359 569 c 0
 273 569 211 553 101 553 c 0
 73 553 43 507 43 506 c 2
 28 481 l 1
 28 510 l 1
 28 510 31 658 70 658 c 3x6f
 192 658 442 643 484 643 c 0
 533 643 510 651 544 651 c 3x1f
EndSplineSet
Validated: 1
EndChar

StartChar: lslash
Encoding: 322 322 182
Width: 255
VWidth: -14
Flags: HW
VStem: 63 98<56 268 396 560.625>
LayerCount: 2
Back
Fore
SplineSet
161 56 m 1
 180 60 215 91 218 94 c 1
 223 88 l 1
 223 88 237 76 237 64 c 0
 237 41 111 -29 71 -29 c 2
 63 -29 l 1
 63 268 l 1
 29 257 6 251 6 251 c 1
 6 251 4 307 3 329 c 1
 3 334 l 1
 12 337 26 342 63 356 c 1
 63 521 l 2
 63 553 19 570 19 595 c 0
 21 620 126 641 161 644 c 1
 161 396 l 1
 198 412 228 425 228 425 c 1
 228 425 230 379 232 344 c 0
 232 342 232 339 229 338 c 2
 229 338 225 331 168 306 c 0
 166 305 163 305 161 304 c 1
 161 56 l 1
EndSplineSet
Validated: 1
EndChar

StartChar: Lslash
Encoding: 321 321 183
Width: 662
VWidth: -10
Flags: HW
HStem: -18 21G<10 53> -2 54<260.128 424.663>
VStem: 138 122<54.3551 258 394 581.224> 600 43<-126 -10>
LayerCount: 2
Back
Fore
SplineSet
291 52 m 0x70
 367 52 589 61 618 159 c 1
 622 159 l 2
 642 159 643 90 643 90 c 1
 643 -126 l 1
 600 -126 l 1
 600 -10 l 1
 540 -3 261 -2 205 -2 c 0x70
 128 -2 90 -18 16 -18 c 2
 10 -18 l 1xb0
 10 -9 l 2
 10 68 138 35 138 73 c 0
 138 140 139 200 140 258 c 1
 114 250 98 246 98 246 c 1
 98 246 96 302 95 324 c 1
 95 329 l 1
 105 332 111 334 142 346 c 1
 143 412 144 480 144 557 c 0
 144 605 10 570 10 641 c 2
 10 649 l 1
 17 649 l 1
 129 645 125 629 186 629 c 0
 232 629 338 648 399 649 c 1
 408 649 l 1
 408 641 l 1
 407 571 259 607 259 557 c 2
 259 394 l 1
 293 409 320 420 320 420 c 1
 320 420 322 374 324 339 c 0
 324 337 324 334 321 333 c 2
 321 333 317 326 260 301 c 1
 260 76 l 2
 260 68 271 52 291 52 c 0x70
EndSplineSet
Validated: 1
EndChar

StartChar: uni0412
Encoding: 1042 1042 184
Width: 653
VWidth: -15
Flags: HW
HStem: -24 49<50.1729 136.727 282.779 449.94> 558 45<28.1846 122.702> 579 72<280.976 405.971>
VStem: 139 111<55.7484 537.748> 447 116<408.629 537.014> 497 119<68.3856 222.967>
LayerCount: 2
Back
Fore
SplineSet
336 579 m 4xb8
 293 579 250 544 250 481 c 6
 250 126 l 5
 251 60 274 25 391 25 c 4
 422 25 497 60 497 122 c 4xb4
 497 291 384 280 310 328 c 5
 294 338 l 5
 312 343 l 5
 409 372 447 418 447 469 c 4
 447 522 414 579 336 579 c 4xb8
414 -24 m 4
 274 -24 292 1 201 1 c 4
 191 1 138 -20 72 -20 c 4
 58 -20 50 -10 50 1 c 4
 50 18 65 30 83 30 c 7
 139 30 139 40 139 50 c 6
 139 519 l 5
 137 533 89 558 46 558 c 4
 34 558 28 570 28 578 c 4
 28 588 35 603 49 603 c 7xd4
 135 603 107 576 190 576 c 7
 247 576 254 651 368 651 c 4
 483 651 563 574 563 483 c 4xb8
 563 417 528 354 456 331 c 5
 520 301 616 279 616 155 c 4
 616 17 490 -24 414 -24 c 4
EndSplineSet
Validated: 1
EndChar

StartChar: uni0410
Encoding: 1040 1040 185
Width: 688
VWidth: -15
Flags: HW
HStem: -9 41<401.644 476.832> 0 56<160.608 237.44> 287 76<317.4 407> 562 69<255 366> 575 69<53.6733 185.115 471.731 541.11>
VStem: 68 80<59 178.836>
DStem2: 186 575 207 347 0.225546 0.974233<-507.967 -308.799 -217.389 -0.0250606>
LayerCount: 2
Back
Fore
SplineSet
207 347 m 5x34
 407 363 l 5
 366 562 l 5
 255 559 l 5
 207 347 l 5x34
46 644 m 6x6c
 158 644 204 631 319 631 c 4x34
 400 631 399 644 483 644 c 4
 501 644 544 641 544 611 c 4
 544 572 492 576 470 573 c 5
 470 499 582 165 582 70 c 4
 582 57 606 52 640 52 c 4
 660 52 666 28 666 16 c 4
 666 6 661 -9 646 -9 c 4
 604 -9 623 -1 528 -1 c 4
 492 -1 464 -9 424 -9 c 4
 410 -9 401 6 401 16 c 4
 401 25 407 32 418 32 c 4xac
 427 32 453 43 484 55 c 5
 428 287 l 5
 359 283 254 263 183 248 c 5
 168 198 150 131 148 59 c 5
 172 58 187 56 217 56 c 7
 235 56 238 36 238 26 c 4
 238 16 233 0 218 0 c 4
 184 0 194 -2 159 -2 c 4
 126 -2 81 -7 47 -7 c 4
 29 -7 24 16 24 29 c 4
 24 38 25 55 40 55 c 4
 47 55 64 58 68 60 c 5
 70 124 174 526 186 575 c 5
 170 580 80 576 62 589 c 4
 44 602 37 635 37 644 c 5
 46 644 l 6x6c
EndSplineSet
Validated: 1
EndChar

StartChar: uni0415
Encoding: 1045 1045 186
Width: 657
VWidth: -12
Flags: HW
HStem: -26 108<298.24 468.507> 261 104<162 276.137> 566 90<208.988 356.489>
VStem: 28 124<365 442.531> 585 57<108.687 162.526> 603 39<-87.1846 62.4571>
LayerCount: 2
Back
Fore
SplineSet
435 82 m 4xf8
 506 82 570 110 585 119 c 5
 584 285 l 5
 532 282 230 263 162 261 c 5
 173 181 235 82 435 82 c 4xf8
271 566 m 4
 174 566 156 458 152 365 c 5
 533 387 l 5
 484 452 378 566 271 566 c 4
596 64 m 5
 510 11 450 -26 339 -26 c 4
 120 -26 28 141 28 329 c 4
 28 477 146 656 295 656 c 4
 382 656 484 617 549 552 c 5
 568 602 568 655 601 655 c 4
 615 655 619 638 619 626 c 4
 619 582 583 483 570 398 c 5
 655 405 l 5
 645 282 642 15 642 -65 c 6
 642 -69 l 5
 630 -77 625 -91 612 -91 c 6
 603 -91 l 5xf4
 603 -91 602 -47 596 64 c 5
EndSplineSet
Validated: 1
EndChar

StartChar: uni0418
Encoding: 1048 1048 187
Width: 739
VWidth: -15
Flags: HW
HStem: -31 74<271.146 427.078>
VStem: 85 118<118.766 493.886> 531 118<115.984 123 123.241 599.66>
LayerCount: 2
Back
Fore
SplineSet
219 652 m 5
 206 588 204 559 203 211 c 4
 203 92 277 43 351 43 c 4
 401 43 531 64 531 195 c 4
 531 272 529 454 529 556 c 4
 529 610 482 605 482 626 c 7
 482 650 595 654 635 654 c 7
 648 654 653 610 653 577 c 4
 653 455 649 123 649 123 c 6
 649 37 720 49 720 19 c 4
 720 1 692 -27 649 -27 c 4
 613 -27 563 10 543 54 c 5
 497 0 365 -31 295 -31 c 4
 191 -31 85 77 85 216 c 4
 85 281 89 555 89 580 c 4
 89 607 28 604 28 629 c 7
 28 650 205 652 209 652 c 6
 219 652 l 5
EndSplineSet
Validated: 1
EndChar

StartChar: uni0419
Encoding: 1049 1049 188
Width: 739
VWidth: -15
Flags: HW
HStem: -31 74<271.146 427.078> 738 32<521.485 571.095>
VStem: 85 118<118.766 493.886> 179 75<721.317 761> 531 118<115.984 123 123.241 599.66>
LayerCount: 2
Back
Fore
SplineSet
364 602 m 5xd8
 309 626 180 704 179 750 c 4
 179 758 184 768 199 768 c 7
 220 768 232 764 254 761 c 5
 254 755 l 5
 255 753 262 746 263 736 c 4
 264 726 307 693 361 666 c 5
 404 697 458 770 511 770 c 4
 546 770 573 766 573 746 c 6
 573 738 l 5
 565 738 l 6
 500 738 489 656 364 602 c 5xd8
219 652 m 1
 206 588 204 559 203 211 c 0
 203 92 277 43 351 43 c 0
 401 43 531 64 531 195 c 0
 531 272 529 454 529 556 c 0
 529 610 482 605 482 626 c 3
 482 650 595 654 635 654 c 3
 648 654 653 610 653 577 c 0
 653 455 649 123 649 123 c 2
 649 37 720 49 720 19 c 0
 720 1 692 -27 649 -27 c 0
 613 -27 563 10 543 54 c 1
 497 0 365 -31 295 -31 c 0
 191 -31 85 77 85 216 c 0xe8
 85 281 89 555 89 580 c 0
 89 607 28 604 28 629 c 3
 28 650 205 652 209 652 c 2
 219 652 l 1
EndSplineSet
Validated: 1
EndChar

StartChar: uni041A
Encoding: 1050 1050 189
Width: 664
VWidth: -15
Flags: HW
HStem: -21 45<573.315 639.738>
VStem: 84 121<38.7893 295.144 369 595.08>
LayerCount: 2
Back
Fore
SplineSet
614 595 m 5
 534 576 393 429 336 386 c 5
 429 304 559 24 603 24 c 4
 617 24 640 13 640 -1 c 7
 640 -15 552 -21 516 -21 c 4
 439 -21 303 305 241 305 c 4
 231 305 205 270 205 241 c 6
 205 51 l 6
 205 30 297 44 297 2 c 4
 297 -15 280 -16 269 -16 c 4
 245 -16 187 -8 146 -8 c 4
 105 -8 58 -20 30 -20 c 4
 18 -20 0 -17 0 0 c 4
 0 54 84 23 84 55 c 6
 84 577 l 6
 84 611 8 581 8 622 c 4
 8 639 25 643 37 643 c 4
 65 643 105 629 145 629 c 4
 185 629 225 641 250 641 c 4
 261 641 278 639 278 622 c 4
 278 588 205 604 205 582 c 6
 205 369 l 5
 286 421 543 646 579 646 c 4
 613 646 614 602 614 602 c 5
 614 595 l 5
EndSplineSet
Validated: 1
EndChar

StartChar: uni041D
Encoding: 1053 1053 190
Width: 873
VWidth: -15
Flags: HW
HStem: -17 19G<10 55 459.5 503 572 605 827 864> 301 79<256 388.419> 320 78<585.423 607 721 773.954>
VStem: 137 119<58.4235 301 380 575.747> 607 112<58.4277 320 404 575.328>
LayerCount: 2
Back
Fore
SplineSet
864 -19 m 5xb8
 790 -9 746 -2 668 -2 c 7
 633 -2 630 -17 580 -17 c 6
 572 -17 l 5
 572 -8 l 6
 572 65 603 33 603 74 c 4
 603 155 606 250 607 320 c 5xb8
 256 301 l 5
 256 233 256 146 256 72 c 4
 256 36 502 66 503 -8 c 5
 503 -17 l 5
 495 -17 l 5
 424 -13 280 -8 204 -8 c 4
 129 -8 92 -22 18 -22 c 6
 10 -22 l 5
 10 -14 l 6
 10 63 137 29 137 67 c 4
 137 245 144 374 144 552 c 4
 144 600 10 556 10 627 c 6
 10 636 l 5
 18 636 l 5
 130 632 126 625 185 625 c 4
 216 625 264 636 286 637 c 5
 294 637 l 5
 294 628 l 5
 293 557 255 591 255 552 c 6
 255 380 l 5xd8
 607 398 l 5
 608 449 610 502 610 558 c 4
 610 609 571 559 571 627 c 6
 571 635 l 5
 580 635 l 6
 618 635 640 629 649 629 c 4
 680 629 831 648 853 649 c 5
 862 649 l 5
 862 641 l 5
 861 567 719 593 719 558 c 6
 719 404 l 5
 799 408 l 5
 799 399 l 5
 799 399 798 377 788 357 c 4
 778 342 753 327 752 326 c 6
 721 324 l 5
 721 251 720 158 720 76 c 4
 720 40 863 63 864 -9 c 5
 864 -19 l 5xb8
EndSplineSet
Validated: 1
EndChar

StartChar: uni041C
Encoding: 1052 1052 191
Width: 864
VWidth: -15
Flags: HW
HStem: -19 23G<10 38 183 228 419 433>
VStem: 87 70<41.3096 194.042> 596 112<487.108 569.391> 638 119<41.132 246.804>
LayerCount: 2
Back
Fore
SplineSet
523 611 m 5xe0
 556 617 626 621 641 621 c 4
 672 621 733 636 756 637 c 5
 765 637 l 5
 765 629 l 5
 764 557 708 595 708 559 c 4xe0
 708 502 757 156 757 70 c 4
 757 16 854 55 855 -18 c 5
 855 -27 l 5
 779 -18 782 -10 705 -10 c 7
 642 -10 634 -24 582 -26 c 5
 575 -26 l 5
 575 -18 l 6
 575 59 638 1 638 66 c 4xd0
 638 140 606 272 598 403 c 5
 567 320 493 125 433 0 c 5
 425 -17 l 5
 419 2 l 5
 419 2 273 361 224 460 c 5
 199 341 157 88 157 59 c 4
 157 21 228 61 228 -11 c 6
 228 -19 l 5
 220 -19 l 5
 146 -15 175 -11 99 -11 c 4
 66 -11 59 -22 17 -22 c 6
 10 -22 l 5
 10 -14 l 6
 10 62 87 23 87 61 c 4
 87 110 173 492 173 563 c 4
 173 606 56 557 55 616 c 5
 55 625 l 5
 174 625 l 6
 205 625 272 645 296 646 c 5
 306 646 l 5
 306 604 266 584 263 584 c 5
 314 481 404 302 454 174 c 5
 508 300 596 541 596 559 c 4
 596 583 523 550 523 604 c 6
 523 611 l 5xe0
EndSplineSet
Validated: 1
EndChar

StartChar: uni041E
Encoding: 1054 1054 192
Width: 759
VWidth: -15
Flags: HW
HStem: -17 55<339.241 537.634> 591 57<274.387 455.226>
VStem: 28 131<215.361 446.538> 612 119<153.426 409.414>
LayerCount: 2
Back
Fore
SplineSet
612 264 m 4
 612 473 505 591 350 591 c 4
 247 591 159 489 159 341 c 4
 159 139 288 38 464 38 c 4
 583 38 612 166 612 264 c 4
439 -17 m 4
 167 -17 28 111 28 312 c 4
 28 541 178 648 404 648 c 4
 586 648 731 493 731 322 c 4
 731 101 654 -17 439 -17 c 4
EndSplineSet
Validated: 1
EndChar

StartChar: uni0420
Encoding: 1056 1056 193
Width: 658
VWidth: -14
Flags: HW
HStem: -19 56<15.1354 140.75 297.629 541.134> 3 50<275 419.661> 148 56<350.88 496.355> 560 44<10.1108 104.943> 571 6<217 364>
VStem: 149 126<53 180 254.625 517.901> 542 107<315.995 487.711>
LayerCount: 2
Back
Fore
SplineSet
364 571 m 4x2e
 328 571 285 537 275 527 c 5
 275 270 l 5
 290 258 365 204 445 204 c 4
 527 204 542 319 542 409 c 4
 542 501 461 571 364 571 c 4x2e
13 3 m 4x66
 13 17 23 37 44 37 c 4
 129 37 136 48 142 55 c 5
 149 78 149 192 149 293 c 7
 149 382 131 518 131 518 c 6
 130 531 68 560 25 560 c 4
 12 560 10 574 10 580 c 4
 10 590 16 604 30 604 c 4xb6
 134 604 113 577 217 577 c 4
 274 577 280 652 394 652 c 4
 533 652 649 538 649 404 c 4
 649 300 535 148 423 148 c 4
 328 148 298 174 275 180 c 5
 275 53 l 5
 429 52 486 34 521 34 c 4
 535 34 542 20 542 10 c 4
 542 0 535 -16 521 -16 c 4
 459 -16 396 3 201 3 c 4x6e
 97 3 103 -19 35 -19 c 4xa6
 21 -19 13 -8 13 3 c 4x66
EndSplineSet
Validated: 1
EndChar

StartChar: uni0421
Encoding: 1057 1057 194
Width: 680
VWidth: -12
Flags: HW
HStem: -26 62<228.5 490.82> 593 64<233.944 361.542>
VStem: 28 106<246.389 444.171> 595 46<-89.0486 25>
LayerCount: 2
Back
Fore
SplineSet
641 -69 m 1
 629 -77 624 -91 611 -91 c 2
 609 -91 l 1
 596 -84 604 -81 595 25 c 1
 513 -24 446 -26 338 -26 c 4
 119 -26 28 141 28 329 c 0
 28 477 145 657 294 657 c 0
 381 657 441 655 504 590 c 1
 550 626 570 655 600 655 c 0
 615 655 618 637 618 626 c 3
 618 593 548 533 484 484 c 1
 480 489 l 1
 480 489 367 593 282 593 c 0
 209 593 134 430 134 346 c 0
 134 164 337 36 441 36 c 0
 473 36 537 92 630 152 c 1
 642 159 l 1
 642 146 l 2
 642 81 641 11 641 -65 c 2
 641 -69 l 1
EndSplineSet
Validated: 1
EndChar

StartChar: uni0422
Encoding: 1058 1058 195
Width: 701
VWidth: -17
Flags: HW
HStem: -14 22G<126 192.5 546 584> 533 69<407.276 626.423> 542 80<59.1038 282.837>
VStem: 0 55<494.393 539.537> 290 116<56.3455 525.478> 638 63<619.826 682.175>
LayerCount: 2
Back
Fore
SplineSet
0 523 m 4xbc
 0 584 35 622 96 622 c 4xbc
 255 622 427 602 504 602 c 4
 567 602 638 619 638 636 c 4
 638 644 612 667 611 668 c 6
 602 674 l 5
 665 713 l 5
 668 710 701 686 701 654 c 4
 701 653 691 533 553 533 c 4xdc
 449 533 505 530 434 530 c 4
 411 530 406 519 406 515 c 6
 406 78 l 6
 406 30 583 64 584 -4 c 5
 584 -13 l 5
 576 -13 l 5
 516 -12 380 7 334 7 c 4
 273 7 250 -10 135 -14 c 5
 126 -14 l 5
 126 -6 l 6
 126 64 290 30 290 78 c 6
 290 515 l 5
 278 533 155 542 84 542 c 4
 59 542 55 520 55 479 c 6
 55 470 l 5
 27 477 0 483 0 523 c 4xbc
EndSplineSet
Validated: 1
EndChar

StartChar: uni0425
Encoding: 1061 1061 196
Width: 630
VWidth: -15
Flags: HW
HStem: -18 22G<81 137 497 546> 546 100<59.2349 120.555>
DStem2: 332 415 263 294 0.50646 -0.862264<-210.445 0 57.6813 83.3444 137.222 355.362>
LayerCount: 2
Back
Fore
SplineSet
583 91 m 1
 593 83 612 85 612 65 c 0
 612 48 568 -17 524 -17 c 0
 470 -17 448 -8 421 25 c 0
 396 56 328 192 305 240 c 1
 257 114 170 -18 104 -18 c 4
 58 -18 19 6 19 34 c 0
 19 62 83 56 95 65 c 0
 185 124 253 270 263 294 c 1
 249 321 149 495 104 546 c 1
 92 546 19 547 19 575 c 3
 19 605 86 646 110 646 c 0
 188 646 303 463 332 415 c 1
 356 465 442 643 522 643 c 0
 542 643 567 618 567 603 c 0
 567 586 552 569 518 552 c 0
 459 523 375 371 363 347 c 1
 380 315 501 77 526 64 c 1
 539 66 569 82 583 91 c 1
EndSplineSet
Validated: 1
EndChar

StartChar: uni042F
Encoding: 1071 1071 197
Width: 723
VWidth: -14
Flags: HW
HStem: -18 56<567.282 693.605> -6 49<306.161 445.302> 3 53<329.854 450> 274 34<325 449> 557 44<603.335 698.907> 571 6<360 507>
VStem: 107 110<344.503 524.046> 450 128<425.002 533.989> 450 117<56 274>
LayerCount: 2
Back
Fore
SplineSet
327 43 m 4x5280
 361 43 348 55 450 56 c 5
 449 274 l 5
 432 272 410 265 389 253 c 4
 276 189 246 109 174 10 c 4
 160 -10 113 -13 88 -13 c 4
 53 -13 10 -9 10 25 c 4
 10 54 67 59 71 65 c 4
 122 136 180 215 212 263 c 5
 148 295 107 360 107 434 c 4
 107 568 192 652 330 652 c 4
 443 652 450 577 507 577 c 4x3680
 611 577 577 601 681 601 c 4x1a80
 695 601 699 586 699 577 c 4x1680
 699 569 694 557 682 557 c 4
 639 557 579 528 578 515 c 6x1b
 560 289 l 6
 560 285 560 78 567 55 c 5
 573 48 580 38 665 38 c 4x9a80
 686 38 696 17 696 3 c 4x3280
 696 -8 688 -18 674 -18 c 4x9280
 606 -18 613 3 509 3 c 4x3280
 315 3 390 -6 327 -6 c 4
 312 -6 306 9 306 19 c 4
 306 29 312 43 327 43 c 4x5280
360 571 m 4
 263 571 217 531 217 438 c 4
 217 352 239 308 325 308 c 4
 403 308 441 352 449 362 c 5
 450 527 l 5x17
 440 537 396 571 360 571 c 4
EndSplineSet
Validated: 1
EndChar

StartChar: uni0430
Encoding: 1072 1072 198
Width: 470
VWidth: -3
Flags: HW
HStem: -13 21G<88.5 170.5 374 415> 41 10<178 263> 311 69<123.757 261.859>
VStem: 19 109<53.89 111.802> 277 112<223.542 295.023>
LayerCount: 2
Back
Fore
SplineSet
178 51 m 4
 242 51 268 137 276 171 c 5
 234 160 128 122 128 76 c 4
 128 57 147 51 178 51 c 4
117 -13 m 4
 60 -13 19 6 19 59 c 4
 19 188 277 194 277 248 c 4
 277 292 242 311 192 311 c 4
 157 311 126 298 122 292 c 5
 123 288 155 292 155 270 c 7
 155 246 113 244 89 244 c 7
 61 244 19 260 19 291 c 4
 19 353 140 380 205 380 c 4
 262 380 389 360 389 297 c 6
 390 90 l 6
 390 60 470 71 470 38 c 4
 470 14 436 -9 394 -9 c 4
 354 -9 273 39 263 41 c 5
 254 40 224 -13 117 -13 c 4
EndSplineSet
Validated: 1
EndChar

StartChar: uni0435
Encoding: 1077 1077 199
Width: 450
VWidth: -3
Flags: HW
HStem: -18 71<188.629 332.22> 327 53<174.503 237.539>
VStem: 30 113<212 289.486>
DStem2: 218 241 258 208 0.903986 0.427561<-80.1983 53.441>
LayerCount: 2
Back
Fore
SplineSet
409 98 m 5
 381 49 359 -17 228 -18 c 4
 104 -18 30 82 30 186 c 4
 30 318 96 380 227 380 c 4
 303 380 343 337 365 317 c 5
 380 325 394 329 405 329 c 4
 423 329 430 314 430 296 c 4
 430 273 347 247 258 208 c 4
 193 181 169 164 148 152 c 5
 161 76 204 53 278 53 c 4
 361 53 349 110 377 110 c 4
 391 110 397 101 409 98 c 5
196 327 m 4
 178 327 147 261 143 212 c 5
 161 219 182 228 218 241 c 4
 236 249 254 255 268 263 c 5
 253 290 226 327 196 327 c 4
EndSplineSet
Validated: 1
EndChar

StartChar: uni0438
Encoding: 1080 1080 200
Width: 512
VWidth: -4
Flags: HW
HStem: -15 78<130 291.003>
VStem: 50 98<105.924 337.64> 351 95<126.685 332.823>
LayerCount: 2
Back
Fore
SplineSet
187 386 m 5
 159 325 148 264 148 221 c 7
 148 104 181 63 263 63 c 4
 311 63 350 130 351 265 c 4
 351 363 291 331 291 360 c 7
 291 381 389 384 429 384 c 7
 444 384 446 343 446 311 c 4
 446 196 437 131 437 130 c 4
 437 65 493 67 493 39 c 4
 493 25 462 -16 438 -16 c 4
 424 -16 365 -3 341 41 c 5
 298 6 263 -15 183 -15 c 4
 77 -15 50 93 50 185 c 4
 50 248 63 311 63 333 c 5
 63 333 28 342 28 359 c 7
 28 381 156 386 177 386 c 6
 187 386 l 5
EndSplineSet
Validated: 1
EndChar

StartChar: uni0439
Encoding: 1081 1081 201
Width: 512
VWidth: -4
Flags: HW
HStem: -15 78<130 291.003> 465 85<112 381.449>
VStem: 50 98<105.924 337.64> 351 95<126.685 332.823>
LayerCount: 2
Back
Fore
SplineSet
395 556 m 5
 393 538 395 515 382 477 c 4
 381 475 380 473 377 473 c 6
 377 473 314 465 252 465 c 4
 161 465 104 473 104 473 c 5
 97 474 l 5
 97 481 l 6
 97 491 104 550 110 551 c 5
 112 555 l 5
 118 555 l 5
 118 555 204 550 259 550 c 4
 309 550 386 555 386 555 c 5
 395 556 l 5
187 386 m 1
 159 325 148 264 148 221 c 3
 148 104 181 63 263 63 c 0
 311 63 350 130 351 265 c 0
 351 363 291 331 291 360 c 3
 291 381 389 384 429 384 c 3
 444 384 446 343 446 311 c 0
 446 196 437 131 437 130 c 0
 437 65 493 67 493 39 c 0
 493 25 462 -16 438 -16 c 0
 424 -16 365 -3 341 41 c 1
 298 6 263 -15 183 -15 c 0
 77 -15 50 93 50 185 c 0
 50 248 63 311 63 333 c 1
 63 333 28 342 28 359 c 3
 28 381 156 386 177 386 c 2
 187 386 l 1
EndSplineSet
Validated: 1
EndChar

StartChar: uni0440
Encoding: 1088 1088 202
Width: 535
VWidth: 8
Flags: HW
HStem: -11 67<242.053 382.001> 313 82<251.798 341.044> 314 61<27.4196 101.288>
VStem: 103 111<-104 19 82.6736 292.184> 394 113<89.2522 251.681>
LayerCount: 2
Back
Fore
SplineSet
315 395 m 4xd8
 423 395 507 281 507 225 c 4
 507 97 464 -11 338 -11 c 4
 264 -11 242 1 214 19 c 5
 214 -104 l 5
 237 -105 348 -104 348 -129 c 4
 348 -174 60 -175 60 -175 c 5
 51 -175 l 5
 51 -167 l 6
 51 -137 93 -118 103 -114 c 5
 103 53 103 147 103 314 c 5
 100 317 10 312 10 375 c 6
 10 383 l 5
 19 382 l 5
 19 382 64 375 89 375 c 4xb8
 130 375 203 387 203 387 c 5
 214 389 l 5
 211 329 l 5
 239 357 256 395 315 395 c 4xd8
292 313 m 4xd8
 249 313 229 288 211 260 c 5
 214 115 l 5
 227 70 282 56 339 56 c 4
 388 56 394 95 394 151 c 4
 394 235 352 313 292 313 c 4xd8
EndSplineSet
Validated: 1
EndChar

StartChar: uni043E
Encoding: 1086 1086 203
Width: 468
VWidth: -3
Flags: HW
HStem: -19 69<234.185 336.507> 316 69<134.443 252.409>
VStem: 28 100<168.335 289.438> 341 99<89.306 245.5>
LayerCount: 2
Back
Fore
SplineSet
341 114 m 4
 341 206 266 316 200 316 c 4
 141 316 128 304 128 254 c 4
 128 148 239 50 282 50 c 7
 339 50 341 60 341 114 c 4
264 -19 m 4
 138 -19 28 82 28 188 c 4
 28 321 111 385 242 385 c 4
 348 385 440 275 440 216 c 4
 440 89 388 -19 264 -19 c 4
EndSplineSet
Validated: 1
EndChar

StartChar: uni0441
Encoding: 1089 1089 204
Width: 428
VWidth: -3
Flags: HW
HStem: -19 67<204.498 323.697> 311 72<165.834 284.583>
VStem: 28 106<113.165 275.697>
LayerCount: 2
Back
Fore
SplineSet
400 97 m 5
 372 48 349 -18 223 -19 c 4
 99 -19 28 81 28 185 c 4
 28 318 108 383 239 383 c 4
 335 383 390 348 390 317 c 7
 390 287 359 270 329 253 c 5
 285 289 270 311 204 311 c 7
 171 311 134 264 134 179 c 7
 134 110 201 48 284 48 c 4
 333 48 345 109 370 109 c 4
 383 109 388 99 400 97 c 5
EndSplineSet
Validated: 1
EndChar

StartChar: uni0442
Encoding: 1090 1090 205
Width: 732
VWidth: -3
Flags: HW
HStem: -18 27G<103 141.5 344 385 568 584.5> 304 77<237.328 339.744> 316 65<488.365 630.735>
VStem: 103 100<13.0195 279.321> 344 102<11.25 266.818> 568 108<-12 96> 587 115<4.4218 298.997>
LayerCount: 2
Back
Fore
SplineSet
579 -12 m 2xbc
 568 -12 l 1xbc
 583 49 587 92 587 146 c 3
 587 271 586 316 517 316 c 0xba
 486 316 477 308 446 285 c 1
 446 108 l 2
 446 18 418 -18 352 -18 c 2
 344 -18 l 1
 344 151 l 2
 344 292 286 304 263 304 c 0xda
 233 304 236 297 203 273 c 1
 203 104 l 2
 203 19 174 -18 109 -18 c 2
 103 -18 l 1
 103 153 l 2
 103 362 10 294 10 327 c 0
 10 347 81 381 101 381 c 0xba
 114 381 173 370 195 326 c 1
 231 360 263 381 333 381 c 0xda
 369 381 420 368 439 324 c 1
 478 358 517 381 587 381 c 0
 692 381 702 268 702 177 c 0xba
 702 129 684 13 676 -11 c 1
 676 -11 590 -12 579 -12 c 2xbc
EndSplineSet
Validated: 1
EndChar

StartChar: uni0443
Encoding: 1091 1091 206
Width: 470
VWidth: 8
Flags: HW
HStem: 345 53<35.3913 78.8377>
VStem: 362 78<267.174 392.516>
LayerCount: 2
Back
Fore
SplineSet
109 -100 m 5
 165 -33 164 -39 214 30 c 5
 148 203 99 344 37 345 c 5
 30 345 l 5
 30 354 l 6
 30 385 50 398 119 398 c 4
 195 398 256 259 295 141 c 5
 337 213 362 274 362 326 c 4
 362 387 381 398 410 398 c 4
 428 398 440 379 440 365 c 4
 440 223 252 -33 227 -67 c 5
 236 -80 261 -101 261 -101 c 5
 267 -105 l 5
 263 -112 l 5
 263 -112 225 -176 205 -176 c 4
 165 -176 111 -104 111 -104 c 5
 109 -100 l 5
EndSplineSet
Validated: 1
EndChar

StartChar: uni0445
Encoding: 1093 1093 207
Width: 511
VWidth: -4
Flags: HW
HStem: -15 70<372 442.81> -10 114<44.0985 109.898> 288 103<402.969 466.487> 328 61<30.2779 68.2832>
DStem2: 124 56 238 115 0.577002 0.816743<0.729639 113.966 246.1 373.491> 266 257 201 167 0.599173 -0.800619<-144.511 0 96.9111 251.267>
LayerCount: 2
Back
Fore
SplineSet
463 82 m 1xa0
 480 78 492 63 492 52 c 7
 492 37 418 -15 390 -15 c 0xa0
 354 -15 336 -10 317 12 c 0
 299 32 257 84 238 115 c 1
 192 46 156 -10 127 -10 c 0
 29 -10 19 44 19 56 c 0
 19 63 24 104 65 104 c 0
 105 104 115 73 124 56 c 1
 152 97 178 135 201 167 c 1
 141 249 116 292 22 328 c 1
 22 334 l 2
 22 367 38 389 86 389 c 0x50
 137 389 198 340 266 257 c 1
 329 352 362 391 418 391 c 0
 446 391 481 367 481 337 c 0
 481 309 455 288 428 288 c 0
 409 288 403 308 400 321 c 1
 367 287 334 246 302 202 c 1
 351 113 406 55 416 55 c 0
 426 55 454 65 463 82 c 1xa0
EndSplineSet
Validated: 1
EndChar

StartChar: uni043F
Encoding: 1087 1087 208
Width: 502
VWidth: -3
Flags: HW
HStem: -14 21G<101 143.5 355 377> 304 78<242.453 392.5>
VStem: 101 104<29.875 279.321> 378 94<29.3545 257.523>
LayerCount: 2
Back
Fore
SplineSet
446 24 m 4
 425 -2 388 -14 366 -14 c 6
 355 -14 l 5
 365 24 378 82 378 145 c 7
 378 261 340 304 267 304 c 4
 236 304 239 297 205 273 c 5
 205 103 l 6
 205 68 178 -17 109 -17 c 6
 101 -17 l 5
 101 153 l 6
 101 362 10 294 10 327 c 4
 10 347 81 383 101 383 c 4
 115 383 176 370 198 326 c 5
 237 361 268 382 339 382 c 4
 446 382 472 275 472 183 c 7
 472 90 463 45 446 24 c 4
EndSplineSet
Validated: 1
EndChar

StartChar: uni0411
Encoding: 1041 1041 209
Width: 679
VWidth: -14
Flags: HW
HStem: -31 65<286.563 472.533> -27 44<10.1108 104.943> 363 66<315.208 460.992> 537 55<13.5781 143.641> 562 60<286.001 569.627>
VStem: 149 126<59.0989 327.632 397 533.576> 542 107<93.8088 261.771> 580 62<477.21 545.547>
LayerCount: 2
Back
Fore
SplineSet
370 34 m 4xa6
 467 34 542 76 542 168 c 0
 542 258 481 363 399 363 c 0
 319 363 290 319 275 307 c 1
 273 66 l 1
 283 56 321 34 370 34 c 4xa6
338 622 m 3x2e
 476 622 642 599 642 576 c 3
 642 525 641 474 616 474 c 3
 584 474 580 514 580 528 c 3x2d
 580 557 453 562 362 562 c 3
 317 562 284 547 276 526 c 1
 275 397 l 1
 298 403 328 429 423 429 c 0
 535 429 649 277 649 173 c 0
 649 39 522 -31 383 -31 c 0xae
 269 -31 274 0 217 0 c 0
 113 0 134 -27 30 -27 c 0
 16 -27 10 -13 10 -3 c 0
 10 3 12 17 25 17 c 0
 68 17 130 46 131 59 c 2
 131 59 149 195 149 284 c 3
 149 385 149 502 142 525 c 1
 139 537 108 537 41 537 c 3
 20 537 12 556 12 570 c 0
 12 581 20 592 34 592 c 3x76
 56 592 176 622 338 622 c 3x2e
EndSplineSet
Validated: 1
EndChar

StartChar: uni0413
Encoding: 1043 1043 210
Width: 521
VWidth: -17
Flags: HW
HStem: -8 21G<22 41 373 412> 520 82<40.0177 107.188> 534 80<225.151 451.558>
VStem: 108 116<56.7969 518.703>
LayerCount: 2
Back
Fore
SplineSet
108 78 m 1048,0,-1
432 534 m 3,1,-1
 361 534 226 529 224 515 c 1,4,-1
 224 78 l 2,5,-1
 224 38 348 53 402 26 c 4,8,-1
 412 21 412 4 412 -8 c 5,11,-1
 334 -8 241 7 180 7 c 0,14,-1
 134 7 60 -5 22 -5 c 1,17,-1
 22 62 108 30 108 78 c 2,20,-1
 108 515 l 2,21,-1
 108 519 70 520 47 520 c 1,24,-1
 15 550 12 565 10 602 c 1,27,-1
 87 602 261 614 420 614 c 3,30,-1
 481 614 516 591 516 515 c 3,33,-1
 516 466 487 462 461 462 c 1,36,-1
 461 462 457 534 432 534 c 3,1,-1
EndSplineSet
Validated: 1
EndChar

StartChar: uni041F
Encoding: 1055 1055 211
Width: 833
VWidth: -15
Flags: HW
HStem: -22 22G<10 55 429.5 473 531 564 786 823> 549 77<46.5889 144 256 569 678 777.627>
VStem: 137 119<57.4058 549> 562 117<56.4251 548.715>
LayerCount: 2
Back
Fore
SplineSet
627 626 m 3
 674 626 790 646 812 647 c 1
 821 647 l 1
 821 639 l 1
 820 565 742 555 678 549 c 9
 678 549 679 156 679 74 c 0
 679 38 822 61 823 -11 c 1
 823 -21 l 1
 749 -11 705 -4 627 -4 c 3
 592 -4 589 -19 539 -19 c 2
 531 -19 l 1
 531 -10 l 2
 531 63 562 31 562 72 c 0
 562 153 568 479 569 549 c 1
 256 549 l 1
 256 481 256 146 256 72 c 0
 256 36 472 64 473 -10 c 1
 473 -19 l 1
 465 -19 l 1
 394 -15 280 -8 204 -8 c 0
 129 -8 92 -22 18 -22 c 2
 10 -22 l 1
 10 -14 l 2
 10 63 137 29 137 67 c 0
 137 245 144 371 144 549 c 1
 87 563 10 556 10 627 c 2
 10 636 l 1
 18 636 l 1
 130 632 126 626 185 626 c 3
 216 626 600 626 627 626 c 3
EndSplineSet
Validated: 1
EndChar

StartChar: uni0423
Encoding: 1059 1059 212
Width: 561
VWidth: 8
Flags: HW
LayerCount: 2
Back
Fore
SplineSet
15 644 m 5
 185 645 l 5
 185 614 161 605 161 589 c 7
 161 546 212 478 303 293 c 5
 425 427 455 491 476 580 c 5
 458 601 450 610 450 621 c 5
 450 621 470 633 510 644 c 4
 536 651 561 652 561 652 c 5
 561 510 467 332 311 167 c 4
 226 77 145 0 115 0 c 5
 83 0 24 -1 0 -1 c 5
 0 10 2 21 3 35 c 5
 89 85 165 147 215 229 c 5
 33 573 23 630 15 644 c 5
EndSplineSet
Validated: 1
EndChar

StartChar: uni0414
Encoding: 1044 1044 213
Width: 619
VWidth: 0
Flags: HW
HStem: 18 66<136 419 509 541.48> 534 128<239.06 337.919>
VStem: 48 88<84.7588 326.893> 416 92<84 508.004> 542 79<-58.8388 18>
LayerCount: 2
Back
Fore
SplineSet
136 84 m 1
 419 82 l 1
 416 484 l 3
 416 512 333 534 288 534 c 3
 214 534 138 400 136 84 c 1
268 662 m 3
 317 662 408 596 433 596 c 3
 494 596 473 602 534 602 c 3
 572 602 590 596 590 576 c 3
 590 532 508 587 508 511 c 3
 508 330 509 265 509 84 c 1
 576 82 621 82 621 50 c 3
 621 -48 619 -60 586 -60 c 3
 544 -60 544 -57 542 18 c 1
 357 18 303 18 118 18 c 1
 104 -24 48 -58 20 -58 c 3
 1 -58 0 -54 0 -30 c 3
 0 93 48 66 48 194 c 3
 48 408 102 662 268 662 c 3
EndSplineSet
Validated: 1
EndChar

StartChar: uni0416
Encoding: 1046 1046 214
Width: 884
VWidth: -15
Flags: HW
HStem: -20 44<25.2163 78.2899 805.71 858.784> 596 50<60.876 85.5308 798.469 823.985>
VStem: 391 102<40.2349 300.078 370 595.594>
LayerCount: 2
Back
Fore
SplineSet
77 646 m 4
 107 646 323 422 391 370 c 5
 391 577 l 6
 391 611 327 581 327 622 c 4
 327 639 341 643 351 643 c 4
 375 643 408 629 442 629 c 4
 476 629 510 641 531 641 c 4
 540 641 554 639 554 622 c 4
 554 588 493 604 493 582 c 6
 493 370 l 5
 561 422 778 646 808 646 c 4
 837 646 837 596 837 596 c 5
 770 577 651 429 603 386 c 5
 681 304 791 24 828 24 c 4
 840 24 859 14 859 0 c 7
 859 -14 785 -20 755 -20 c 4
 690 -20 575 306 523 306 c 4
 515 306 493 271 493 242 c 6
 493 54 l 6
 493 33 570 44 570 2 c 4
 570 -15 556 -16 547 -16 c 4
 527 -16 478 -8 443 -8 c 4
 408 -8 369 -20 345 -20 c 4
 335 -20 320 -17 320 0 c 4
 320 54 391 21 391 54 c 6
 391 242 l 6
 391 271 369 306 361 306 c 4
 309 306 195 -20 130 -20 c 4
 100 -20 25 -14 25 0 c 7
 25 14 44 24 56 24 c 4
 93 24 203 304 281 386 c 5
 233 429 114 577 47 596 c 5
 47 596 48 646 77 646 c 4
EndSplineSet
Validated: 1
EndChar

StartChar: uni0417
Encoding: 1047 1047 215
Width: 585
VWidth: -13
Flags: HW
HStem: -28 61<217.311 383.292> 377 21G<76.5 102> 541 75<191.994 334.025>
VStem: 15 66<-13.4705 40.3024> 61 56<378.575 453> 376 151<411.684 504.285> 422 133<82.0056 256.925>
LayerCount: 2
Back
Fore
SplineSet
289 347 m 5xf2
 289 347 376 402 376 461 c 7
 376 501 318 541 257 541 c 7
 188 541 117 453 117 453 c 5
 116 439 117 377 87 377 c 7
 66 377 61 440 61 462 c 6
 61 532 l 5
 61 532 176 616 295 616 c 7
 411 616 527 550 527 473 c 7xec
 527 392 429 356 429 356 c 5
 486 345 555 280 555 184 c 7
 555 56 474 -28 303 -28 c 4
 211 -28 107 36 81 48 c 5
 68 28 60 -39 37 -39 c 4
 23 -39 15 -30 15 -21 c 4
 15 3 46 58 57 76 c 6
 90 132 l 5
 90 132 214 33 303 33 c 4
 390 33 422 69 422 190 c 7
 422 290 289 347 289 347 c 5xf2
EndSplineSet
Validated: 1
EndChar

StartChar: uni041B
Encoding: 1051 1051 216
Width: 707
VWidth: 0
Flags: HW
HStem: -72 72<46.3021 109.074> 0 63<409.609 504 586 695.638> 545 117<332.546 425.767>
VStem: 136 99<31.562 347.275> 504 82<63 518.86>
LayerCount: 2
Back
Fore
SplineSet
235 83 m 3x78
 235 -17 162 -72 88 -72 c 3
 22 -72 0 -22 0 2 c 3
 0 14 7 50 28 50 c 3
 43 50 37 0 86 0 c 3xb8
 123 0 136 124 136 194 c 3
 136 408 190 662 356 662 c 3
 405 662 496 596 521 596 c 3
 582 596 561 602 622 602 c 3
 660 602 678 596 678 576 c 3
 678 532 586 585 586 509 c 3
 586 328 586 244 586 63 c 1
 626 62 701 60 701 28 c 3
 701 8 689 0 552 0 c 3
 447 0 407 1 407 34 c 3
 407 66 466 61 504 63 c 1
 504 217 504 484 504 484 c 0
 504 529 424 545 379 545 c 3
 305 545 235 397 235 83 c 3x78
EndSplineSet
Validated: 1
EndChar

StartChar: uni0424
Encoding: 1060 1060 217
Width: 763
VWidth: -14
Flags: HW
HStem: -17 50<197.281 317.537 445.555 567.842> 148 56<136.33 258.172 504.828 626.757>
VStem: 10 89<304.251 493.92> 320 123<53 180 252.044 548.116> 665 88<304.251 493.92>
LayerCount: 2
Back
Fore
SplineSet
246 571 m 0
 165 571 99 501 99 409 c 0
 99 319 111 204 179 204 c 0
 245 204 308 258 320 270 c 1
 320 527 l 1
 312 537 276 571 246 571 c 0
382 3 m 3
 274 3 267 -17 215 -17 c 3
 203 -17 197 -1 197 9 c 0
 197 19 203 33 215 33 c 0
 244 33 267 53 320 53 c 1
 320 180 l 1
 301 174 276 148 197 148 c 0
 104 148 10 300 10 404 c 0
 10 538 106 652 221 652 c 0
 316 652 319 576 381 576 c 27
 445 576 447 652 542 652 c 0
 657 652 753 538 753 404 c 0
 753 300 659 148 566 148 c 0
 487 148 462 174 443 180 c 1
 443 53 l 1
 498 53 521 32 550 32 c 0
 562 32 568 18 568 8 c 0
 568 -2 562 -18 550 -18 c 0
 499 -18 492 3 382 3 c 3
517 571 m 0
 487 571 451 537 443 527 c 1
 443 270 l 1
 455 258 518 204 584 204 c 0
 652 204 665 319 665 409 c 0
 665 501 598 571 517 571 c 0
EndSplineSet
Validated: 1
EndChar

StartChar: uni0426
Encoding: 1062 1062 218
Width: 701
VWidth: 0
Flags: HW
HStem: -78 138<615.424 686.695> -18 80<232.153 450.938>
VStem: 82 118<94.437 493.886> 469 122<78.9512 596.66> 612 79<-76.8388 0>
LayerCount: 2
Back
Fore
SplineSet
291 -18 m 7x78
 100 -18 82 0 82 216 c 7
 82 281 86 555 86 580 c 4
 86 607 25 604 25 629 c 7
 25 650 202 652 206 652 c 6
 216 652 l 5
 203 588 200 559 200 211 c 7
 200 74 224 62 351 62 c 7x78
 453 62 469 68 469 192 c 7
 469 269 467 451 467 553 c 4
 467 607 420 602 420 623 c 7
 420 647 533 651 573 651 c 7
 586 651 591 607 591 574 c 4
 591 452 591 241 591 60 c 5
 658 58 691 64 691 32 c 7
 691 -66 689 -78 656 -78 c 7xb8
 614 -78 614 -75 612 0 c 5
 612 0 361 -18 291 -18 c 7x78
EndSplineSet
Validated: 1
EndChar

StartChar: uni0427
Encoding: 1063 1063 219
Width: 683
VWidth: 8
Flags: HW
HStem: -10 62<399.901 491> 219 74<231.146 404.956>
VStem: 45 118<368.766 601.312> 480 121<362.225 627.033> 491 110<52.148 304>
LayerCount: 2
Back
Fore
SplineSet
409 -10 m 1xe8
 392 -10 383 -2 383 11 c 3
 383 36 468 51 491 52 c 1xe8
 491 52 492 256 492 304 c 1
 484 243 325 219 255 219 c 3
 151 219 45 327 45 466 c 3
 45 531 45 523 45 548 c 3
 45 592 10 603 10 628 c 3
 10 649 154 652 158 652 c 2
 168 652 l 1
 168 652 163 535 163 461 c 3
 163 342 237 293 311 293 c 3
 361 293 480 314 480 445 c 3
 480 522 478 454 478 556 c 0
 478 610 463 607 463 628 c 3
 463 652 544 654 584 654 c 3
 597 654 601 610 601 577 c 0xf0
 601 455 601 72 601 72 c 2
 601 44 651 51 653 -11 c 9
 653 -11 482 -10 409 -10 c 1xe8
EndSplineSet
Validated: 1
EndChar

StartChar: uni0429
Encoding: 1065 1065 220
Width: 933
VWidth: 0
Flags: HW
HStem: -85 138<847.424 918.695> -18 70<257.177 386.847>
VStem: 82 118<100.79 493.886> 394 114<52 332.01> 701 122<94.9818 589.66> 844 79<-83.8388 -7>
LayerCount: 2
Back
Fore
SplineSet
701 185 m 7x7c
 701 262 699 444 699 546 c 4
 699 600 652 595 652 616 c 7
 652 640 765 644 805 644 c 7
 818 644 823 600 823 567 c 4
 823 445 823 234 823 53 c 5
 890 51 923 57 923 25 c 7
 923 -73 921 -85 888 -85 c 7xbc
 846 -85 846 -82 844 -7 c 5
 844 -7 361 -18 291 -18 c 7
 100 -18 82 0 82 216 c 7
 82 281 86 555 86 580 c 4
 86 607 25 604 25 629 c 7
 25 650 202 652 206 652 c 6
 216 652 l 5
 203 588 200 559 200 211 c 7
 200 74 234 62 394 52 c 5
 394 117 392 553 392 578 c 4
 392 605 331 602 331 627 c 7
 331 648 508 650 512 650 c 6
 522 650 l 5
 509 586 508 400 508 52 c 5
 642 58 701 61 701 185 c 7x7c
EndSplineSet
Validated: 1
EndChar

StartChar: uni0428
Encoding: 1064 1064 221
Width: 928
VWidth: 0
Flags: HW
HStem: -18 70<257.177 394 508 654.75>
VStem: 82 118<100.79 493.886> 394 114<52 332.01> 701 123<99.2157 222 222.162 589.66>
LayerCount: 2
Back
Fore
SplineSet
888 -15 m 1
 888 -15 361 -18 291 -18 c 3
 100 -18 82 0 82 216 c 3
 82 281 86 555 86 580 c 0
 86 607 25 604 25 629 c 3
 25 650 202 652 206 652 c 2
 216 652 l 1
 203 588 200 559 200 211 c 3
 200 74 234 62 394 52 c 1
 394 117 392 553 392 578 c 0
 392 605 331 602 331 627 c 3
 331 648 508 650 512 650 c 2
 522 650 l 1
 509 586 508 400 508 52 c 1
 642 58 701 61 701 185 c 3
 701 262 699 444 699 546 c 0
 699 600 652 595 652 616 c 3
 652 640 765 644 805 644 c 3
 818 644 823 600 823 567 c 0
 823 445 824 222 824 222 c 2
 824 69 882 82 888 -15 c 1
EndSplineSet
Validated: 1
EndChar

StartChar: uni042E
Encoding: 1070 1070 222
Width: 928
VWidth: -15
Flags: HW
HStem: -28 54<572.572 739.487> -7 21G<58 83 278.5 300> 8 601<79.593 220.547> 302 78<223 322> 562 55<519.927 672.107>
VStem: 134 89<55.2188 302 380 528.604> 322 108<183.73 300> 801 97<124.002 400.332>
LayerCount: 2
Back
Fore
SplineSet
300 -7 m 5x57
 257 -7 235 8 182 8 c 4
 135 8 108 -5 58 -5 c 5
 58 70 134 40 134 76 c 4
 134 250 134 327 134 501 c 4
 134 549 20 527 20 602 c 5
 104 607 124 609 182 609 c 4x27
 222 609 223 597 223 542 c 6
 223 380 l 5
 330 380 l 5
 359 541 472 617 630 617 c 4
 779 617 898 467 898 301 c 4
 898 87 835 -28 659 -28 c 4x9f
 436 -28 322 96 322 291 c 4
 322 294 322 297 322 300 c 6
 223 302 l 5
 223 76 l 6
 223 38 300 69 300 -7 c 5x57
801 245 m 4
 801 448 713 562 586 562 c 4
 502 562 430 463 430 319 c 4
 430 123 535 26 679 26 c 4x8f
 776 26 801 150 801 245 c 4
EndSplineSet
Validated: 1
EndChar

StartChar: uni042C
Encoding: 1068 1068 223
Width: 621
VWidth: -15
Flags: HW
HStem: -14 62<260.288 454.667> -10 50<15.8565 101.727> 334 58<254.265 381.741>
VStem: 103 112<87.9499 294.133 370 558.915> 502 79<88.4945 201.901>
LayerCount: 2
Back
Fore
SplineSet
215 617 m 1x78
 215 527 215 370 215 370 c 1
 235 388 290 392 346 392 c 0
 470 392 581 300 581 165 c 0
 581 27 455 -14 379 -14 c 0xb8
 239 -14 257 11 166 11 c 0
 156 11 103 -10 37 -10 c 0
 23 -10 15 0 15 11 c 0
 15 28 30 40 48 40 c 3
 103 40 103 50 103 60 c 2
 103 549 l 1
 90 556 29 579 29 597 c 3
 29 617 89 617 215 617 c 1x78
502 137 m 3
 502 199 398 334 324 334 c 3
 260 334 229 295 215 248 c 1
 215 136 l 2
 215 86 274 48 355 48 c 3
 430 48 502 80 502 137 c 3
EndSplineSet
Validated: 1
EndChar

StartChar: uni042A
Encoding: 1066 1066 224
Width: 645
VWidth: -15
Flags: HW
HStem: -14 64<282.544 485.369> -10 50<39.8565 125.727> 334 58<278.265 405.741> 519 98<59.904 128>
VStem: 5 47<448.182 511> 128 111<86.8164 294.133 370 519> 526 79<86.525 201.901>
LayerCount: 2
Back
Fore
SplineSet
239 617 m 1x7e
 239 527 239 370 239 370 c 1
 259 388 314 392 370 392 c 0
 494 392 605 300 605 165 c 0
 605 27 479 -14 403 -14 c 0xbe
 263 -14 281 11 190 11 c 0
 180 11 127 -10 61 -10 c 0
 47 -10 39 0 39 11 c 0
 39 28 54 40 72 40 c 3
 124 40 127 50 127 60 c 1
 128 519 l 1
 52 511 l 1
 52 476 50 448 30 448 c 3
 7 448 5 476 5 511 c 2
 5 511 5 596 5 606 c 1
 5 606 131 616 239 617 c 1x7e
526 137 m 7
 526 199 422 334 348 334 c 3
 284 334 253 295 239 248 c 1
 239 136 l 2
 239 86 296 50 377 50 c 7
 452 50 526 70 526 137 c 7
EndSplineSet
Validated: 1
EndChar

StartChar: uni042B
Encoding: 1067 1067 225
Width: 922
VWidth: -15
Flags: HW
HStem: -22 21G<576 611.5> -14 68<256.027 465.496> -8 51<16.8539 101.727 762 808.377> 334 58<254.265 381.741> 559 52<763.137 809> 602 20G<585 615 891 905>
VStem: 103 112<89.7177 294.133 370 558.915> 502 79<86.614 201.901> 687 75<49.8541 554.869> 810 47<43 559>
LayerCount: 2
Back
Fore
SplineSet
582 622 m 1x97c0
 648 620 672 602 724 602 c 0x97c0
 750 602 781 607 810 611 c 1x1bc0
 811 624 811 647 826 647 c 0
 838 647 848 630 851 618 c 1
 868 620 883 621 899 622 c 1
 905 622 l 1
 905 614 l 2
 905 584 882 568 857 562 c 1
 857 37 l 1
 882 29 907 19 907 -15 c 2
 907 -23 l 1
 845 -13 812 -8 741 -8 c 3x37c0
 673 -8 642 -22 581 -22 c 2
 576 -22 l 1
 576 -15 l 2
 576 61 681 31 681 67 c 0
 681 243 687 355 687 531 c 0
 687 579 588 547 582 622 c 1x97c0
762 61 m 3
 762 43 790 44 810 43 c 1
 809 559 l 1x3bc0
 786 558 762 550 762 534 c 3
 762 354 762 241 762 61 c 3
215 617 m 1
 215 527 215 370 215 370 c 1
 235 388 290 392 346 392 c 0
 470 392 581 300 581 165 c 0
 581 27 455 -14 379 -14 c 0x53c0
 239 -14 257 11 166 11 c 0
 156 11 103 -10 37 -10 c 0
 23 -10 15 0 15 11 c 0
 15 28 30 40 48 40 c 3
 101 40 103 50 103 60 c 1
 103 549 l 1
 90 556 29 579 29 597 c 3
 29 617 89 617 215 617 c 1
502 137 m 7
 502 199 398 334 324 334 c 3
 260 334 229 295 215 248 c 1
 215 136 l 2
 215 86 276 54 357 54 c 7
 432 54 502 72 502 137 c 7
EndSplineSet
Validated: 1
EndChar

StartChar: uni042D
Encoding: 1069 1069 226
Width: 697
VWidth: -12
Flags: HW
HStem: -26 108<216.5 386.76> 261 104<401.467 523> 282 103<226 297.533> 566 90<314.343 476.012>
VStem: 43 39<-87.1846 64> 173 41<195.214 226> 533 124<365 442.531>
LayerCount: 2
Back
Fore
SplineSet
166 385 m 5xbe
 533 365 l 5
 529 458 511 566 414 566 c 4
 307 566 173 469 124 404 c 5
 94 494 66 582 66 626 c 4
 66 638 70 655 84 655 c 4
 117 655 117 602 136 552 c 5
 201 617 303 656 390 656 c 4
 539 656 657 477 657 329 c 4
 657 141 565 -26 346 -26 c 4
 235 -26 175 11 89 64 c 5
 83 -47 82 -91 82 -91 c 5
 73 -91 l 6
 60 -91 55 -77 43 -69 c 5
 43 -65 l 6
 43 -32 42 70 41 142 c 5
 56 133 179 82 250 82 c 4
 450 82 512 181 523 261 c 5xde
 455 263 278 279 226 282 c 5
 226 282 221 210 214 173 c 5
 187 180 174 192 173 226 c 6
 173 226 171 321 166 385 c 5xbe
EndSplineSet
Validated: 1
EndChar

StartChar: uni0431
Encoding: 1073 1073 227
Width: 478
VWidth: -15
Flags: HW
HStem: -36 64<198.058 317.718> 319 73<184.203 280.093> 521 81<180.034 319.289>
VStem: 30 108<81.2812 284.019 337.032 482.182> 343 105<79.6215 245.319>
LayerCount: 2
Back
Fore
SplineSet
190 602 m 3
 241 602 350 602 350 672 c 0
 350 672 412 667 412 618 c 3
 412 588 366 521 271 521 c 3
 190 521 136 483 136 431 c 3
 136 381 138 337 138 337 c 1
 179 372 217 392 273 392 c 3
 397 392 448 279 448 144 c 3
 448 83 356 -36 251 -36 c 3
 119 -36 30 32 30 174 c 2
 30 425 l 2
 30 535 110 602 190 602 c 3
274 28 m 3
 328 28 343 89 343 165 c 3
 343 230 290 319 233 319 c 3
 211 319 170 315 138 249 c 1
 138 99 l 1
 172 63 219 28 274 28 c 3
EndSplineSet
Validated: 1
EndChar

StartChar: uni0432
Encoding: 1074 1074 228
Width: 421
VWidth: -15
Flags: HW
HStem: -9 50<89 276.242> 180 41<139 248.025> 341 48<148.772 253.863>
VStem: 30 108<46.9753 176 224 329.701> 263 103<235.218 332.551> 289 102<58.4634 163.013>
LayerCount: 2
Back
Fore
SplineSet
121 -9 m 4xf4
 57 -9 30 1 30 21 c 6
 30 289 l 6
 30 360 122 389 212 389 c 4
 303 389 366 342 366 286 c 4xf8
 366 246 350 229 291 201 c 5
 351 178 391 170 391 115 c 4
 391 48 317 -9 121 -9 c 4xf4
198 341 m 7
 164 341 139 325 139 286 c 6
 139 224 l 5
 158 221 175 221 191 221 c 7
 232 221 263 242 263 277 c 4
 263 309 260 341 198 341 c 7
138 176 m 5
 138 111 l 6
 138 71 141 41 191 41 c 4
 268 41 289 63 289 101 c 4xf4
 289 155 267 180 200 180 c 7
 181 180 159 179 138 176 c 5
EndSplineSet
Validated: 1
EndChar

StartChar: uni0433
Encoding: 1075 1075 229
Width: 381
VWidth: -4
Flags: HW
HStem: -12 63<135.242 252.7> 340 45<114 238.254>
VStem: 30 93<73.5683 194> 246 102<217 313.296>
LayerCount: 2
Back
Fore
SplineSet
295 135 m 1
 328 124 351 99 351 65 c 3
 351 7 334 -12 228 -12 c 3
 142 -12 30 41 30 149 c 3
 30 239 246 255 246 298 c 7
 246 322 220 340 190 340 c 0
 149 340 162 281 103 281 c 0
 72 281 47 305 47 335 c 0
 47 378 97 385 131 385 c 0
 217 385 348 352 348 247 c 3
 348 187 123 176 123 107 c 7
 123 79 146 51 175 51 c 3
 263 51 266 88 295 135 c 1
EndSplineSet
Validated: 1
EndChar

StartChar: uni0434
Encoding: 1076 1076 230
Width: 468
VWidth: -3
Flags: HW
HStem: -19 69<234.185 336.507> 316 69<134.443 253.752> 556 67<169.008 266.167>
VStem: 28 100<168.335 289.438> 331 100<367.354 495.192> 341 99<89.306 223.5>
LayerCount: 2
Back
Fore
SplineSet
264 -19 m 0xf4
 138 -19 28 82 28 188 c 0
 28 321 111 385 242 385 c 0
 269 385 295 378 319 366 c 1
 329 379 331 395 331 422 c 0
 331 507 260 556 188 556 c 0
 163 556 171 496 117 496 c 0
 100 496 68 517 68 547 c 0
 68 592 116 623 212 623 c 0
 343 623 431 565 431 432 c 0xf8
 431 377 429 340 423 269 c 1
 434 250 440 231 440 216 c 0
 440 89 388 -19 264 -19 c 0xf4
341 114 m 0xf4
 341 206 266 316 200 316 c 0
 141 316 128 304 128 254 c 0
 128 148 239 50 282 50 c 0
 339 50 341 60 341 114 c 0xf4
EndSplineSet
Validated: 1
EndChar

StartChar: uni0436
Encoding: 1078 1078 231
Width: 590
VWidth: -15
Flags: HW
HStem: -12 45<37.0356 72.387 517.266 556.853> 352 45<523.172 534.688>
VStem: 248 93<1.04825 169.984 226 389.952>
LayerCount: 2
Back
Fore
SplineSet
249 -27 m 6
 247 131 l 2
 247 149 234 170 229 170 c 0
 197 170 144 -12 104 -12 c 0
 86 -12 37 -8 37 10 c 3
 37 29 45 33 52 33 c 0
 75 33 126 174 174 224 c 1
 144 250 72 332 31 344 c 1
 31 344 53 397 71 397 c 0
 89 397 206 258 248 226 c 1
 248 360 l 6
 248 371 269 392 290 404 c 4
 314 418 340 418 340 418 c 5
 341 226 l 1
 383 258 503 397 521 397 c 0
 539 397 560 352 560 352 c 1
 519 340 438 244 408 218 c 1
 456 168 518 32 541 32 c 3
 556 32 557 31 557 12 c 3
 557 -11 506 -12 488 -12 c 0
 448 -12 391 170 359 170 c 0
 354 170 341 148 341 130 c 2
 341 31 l 6
 341 20 320 -1 299 -13 c 4
 275 -27 249 -27 249 -27 c 6
EndSplineSet
Validated: 1
EndChar

StartChar: uni0437
Encoding: 1079 1079 232
Width: 414
VWidth: -13
Flags: HW
HStem: -12 50<137.843 262.927> 335 58<121.707 230.443>
VStem: 237 128<261.289 325.928> 274 111<48.8608 170.606>
LayerCount: 2
Back
Fore
SplineSet
80 281 m 7xe0
 60 281 32 315 32 341 c 7
 32 350 115 393 199 393 c 7
 281 393 365 352 365 303 c 7xe0
 365 252 288 230 288 230 c 5
 328 223 385 182 385 122 c 7
 385 41 327 -12 205 -12 c 4
 140 -12 29 31 29 54 c 7
 29 82 48 118 64 118 c 7
 81 118 134 38 197 38 c 4
 259 38 274 50 274 126 c 7xd0
 274 189 149 230 149 230 c 5
 149 230 237 256 237 293 c 7
 237 318 215 335 172 335 c 7
 123 335 99 281 80 281 c 7xe0
EndSplineSet
Validated: 1
EndChar

StartChar: uni043A
Encoding: 1082 1082 233
Width: 429
VWidth: -15
Flags: HW
HStem: -22 38<374.027 407.553>
VStem: 30 97<4.74134 181.983 222 382.916>
LayerCount: 2
Back
Fore
SplineSet
372 354 m 1
 325 342 268 265 234 238 c 1
 289 186 370 16 396 16 c 3
 404 16 409 9 409 0 c 3
 409 -9 368 -22 305 -22 c 3
 260 -22 186 182 149 182 c 0
 143 182 127 159 127 141 c 2
 127 36 l 2
 127 22 111 8 92 -4 c 0
 66 -20 39 -24 30 -24 c 1
 30 358 l 2
 30 370 53 385 74 396 c 0
 90 404 118 408 125 408 c 1
 127 222 l 1
 175 255 309 404 330 404 c 0
 350 404 372 354 372 354 c 1
EndSplineSet
Validated: 1
EndChar

StartChar: uni043B
Encoding: 1083 1083 234
Width: 498
VWidth: -3
Flags: HW
HStem: -20 68<35.7603 153.262> 302 80<246.527 350.141>
VStem: 134 94<69.8445 286.085> 364 104<5.375 288.61>
LayerCount: 2
Back
Fore
SplineSet
121 -20 m 3
 16 -20 0 43 0 66 c 3
 0 70 1 72 6 72 c 3
 23 72 47 48 72 48 c 3
 131 48 134 136 134 183 c 3
 134 275 160 382 267 382 c 3
 338 382 436 372 465 368 c 1
 468 -19 l 1
 460 -19 l 2
 391 -19 364 6 364 101 c 2
 364 240 l 2
 364 282 333 302 302 302 c 0
 229 302 228 261 228 145 c 3
 228 82 194 -20 121 -20 c 3
EndSplineSet
Validated: 1
EndChar

StartChar: uni043C
Encoding: 1084 1084 235
Width: 531
VWidth: -15
Flags: HW
HStem: -22 21G<30 186 351 501>
VStem: 41 96<11.5261 251> 388 90<10.2461 248>
LayerCount: 2
Back
Fore
SplineSet
417 386 m 3
 439 386 463 388 481 388 c 1
 479 352 478 361 478 347 c 3
 478 311 478 91 478 36 c 3
 478 16 499 18 501 -22 c 1
 351 -22 l 1
 351 33 388 -8 388 34 c 0
 388 81 388 248 388 248 c 1
 364 199 314 112 267 25 c 1
 263 37 172 177 137 251 c 1
 137 251 137 42 137 24 c 0
 137 0 186 29 186 -22 c 1
 30 -22 l 1
 31 18 41 6 41 31 c 0
 41 62 41 299 41 344 c 3
 41 355 37 351 37 387 c 1
 66 387 103 387 125 387 c 3
 149 387 222 258 284 152 c 1
 328 243 394 386 417 386 c 3
EndSplineSet
Validated: 1
EndChar

StartChar: uni043D
Encoding: 1085 1085 236
Width: 485
VWidth: -3
Flags: HW
HStem: 121 78<198 360>
VStem: 91 107<62.3872 121 199 279.321> 360 95<11.5791 33 33.0518 121 199 347.332>
LayerCount: 2
Back
Fore
SplineSet
455 196 m 0
 455 104 454 33 454 33 c 2
 454 -19 362 -29 362 -29 c 1
 361 27 360 70 360 121 c 1
 198 121 l 1
 198 103 l 2
 198 62 169 -29 94 -29 c 1
 91 153 l 2
 88 362 0 294 0 327 c 0
 0 347 71 383 91 383 c 0
 105 383 198 374 198 325 c 2
 198 199 l 1
 360 199 l 1
 360 210 360 222 360 234 c 0
 360 297 347 355 337 393 c 1
 348 393 l 2
 370 393 407 381 428 355 c 0
 445 334 455 289 455 196 c 0
EndSplineSet
Validated: 1
EndChar

StartChar: uni0444
Encoding: 1092 1092 237
Width: 610
VWidth: 8
Flags: HW
HStem: -172 68<175.52 270 340 446.814> -11 67<126.406 245.891 364.109 483.594> 313 82<159.459 236.627 374.181 448.966>
VStem: 20 96<80.6182 257.948> 270 70<-104 19 80.1155 294.168 329 370> 494 96<80.6182 257.948>
CounterMasks: 1 1c
LayerCount: 2
Back
Fore
SplineSet
340 370 m 1
 340 329 l 1
 364 357 377 395 427 395 c 0
 519 395 590 281 590 225 c 0
 590 97 553 -11 446 -11 c 0
 383 -11 364 1 340 19 c 1
 340 -104 l 3
 454 -104 460 -129 460 -174 c 0
 460 -174 337 -172 305 -172 c 3
 199 -172 161 -174 161 -174 c 3
 161 -131 174 -104 270 -104 c 0
 270 19 l 1
 246 1 227 -11 164 -11 c 0
 57 -11 20 97 20 225 c 0
 20 281 92 395 184 395 c 0
 234 395 246 357 270 329 c 1
 270 370 l 1
 340 370 l 1
203 313 m 0
 152 313 116 235 116 151 c 0
 116 95 121 56 163 56 c 0
 211 56 259 70 270 115 c 1
 270 260 l 1
 255 288 240 313 203 313 c 0
407 313 m 0
 370 313 355 288 340 260 c 1
 340 115 l 1
 351 70 399 56 447 56 c 0
 489 56 494 95 494 151 c 0
 494 235 458 313 407 313 c 0
EndSplineSet
Validated: 1
EndChar

StartChar: uni0446
Encoding: 1094 1094 238
Width: 481
VWidth: -4
Flags: HW
HStem: -15 78<114 275.052>
VStem: 34 98<106.337 389.093> 335 95<126.685 382.689> 382 69<-81.269 23.2607>
LayerCount: 2
Back
Fore
SplineSet
136 393 m 5xd0
 136 393 132 264 132 221 c 7
 132 104 165 63 247 63 c 4
 295 63 335 130 335 265 c 4
 335 363 323 345 323 374 c 7
 323 395 374 395 414 395 c 7
 429 395 430 343 430 311 c 4xe0
 430 196 421 131 421 130 c 4
 421 65 451 67 451 39 c 7
 451 -51 446 -85 416 -85 c 7
 394 -85 382 -54 382 -17 c 7
 382 21 362 21 325 41 c 5
 282 6 247 -15 167 -15 c 4
 61 -15 34 93 34 185 c 4
 34 248 35 313 35 335 c 5
 35 335 30 350 30 367 c 7
 30 391 114 393 136 393 c 5xd0
EndSplineSet
Validated: 1
EndChar

StartChar: uni0447
Encoding: 1095 1095 239
Width: 450
VWidth: -4
Flags: HW
HStem: 105 78<156.856 299.26>
VStem: 32 98<208.85 333> 325 95<48.9685 345.037>
LayerCount: 2
Back
Fore
SplineSet
404 0 m 1
 404 0 392 -17 364 -28 c 0
 346 -35 322 -39 322 -39 c 1
 322 -39 321 101 318 141 c 1
 286 111 244 105 164 105 c 3
 94 105 32 175 32 239 c 3
 32 302 37 311 37 333 c 1
 37 333 20 341 20 358 c 3
 20 382 139 386 161 386 c 1
 133 325 130 318 130 275 c 3
 130 209 162 183 244 183 c 3
 292 183 325 219 325 265 c 3
 325 363 294 333 294 362 c 3
 294 383 363 384 403 384 c 3
 418 384 420 343 420 311 c 0
 420 196 404 0 404 0 c 1
EndSplineSet
Validated: 1
EndChar

StartChar: uni0449
Encoding: 1097 1097 240
Width: 770
VWidth: -4
Flags: HW
HStem: -15 78<114 291.435 433.5 564.052>
VStem: 34 98<104.337 387.093> 324 97<105.51 389.093> 624 95<126.685 382.689> 671 69<-81.269 23.2607>
LayerCount: 2
Back
Fore
SplineSet
425 393 m 5xe8
 425 393 421 264 421 221 c 4
 421 104 454 63 536 63 c 4
 584 63 624 130 624 265 c 4
 624 363 612 345 612 374 c 4
 612 395 663 395 703 395 c 4
 718 395 719 343 719 311 c 4xf0
 719 196 710 131 710 130 c 4
 710 65 740 67 740 39 c 4
 740 -51 735 -85 705 -85 c 4
 683 -85 671 -54 671 -17 c 4
 671 21 651 21 614 41 c 5
 571 6 536 -15 456 -15 c 4
 411 -15 381 4 360 34 c 5
 323 -6 252 -17 167 -17 c 4
 61 -17 34 91 34 183 c 4
 34 246 35 311 35 333 c 6
 35 333 30 348 30 365 c 4
 30 389 114 391 136 391 c 5
 136 391 132 262 132 219 c 4
 132 102 165 61 247 61 c 4
 280 61 309 92 324 155 c 4
 323 165 323 175 323 185 c 4
 323 248 324 313 324 335 c 6
 324 335 319 350 319 367 c 4
 319 391 403 393 425 393 c 5xe8
EndSplineSet
Validated: 1
EndChar

StartChar: uni0448
Encoding: 1096 1096 241
Width: 770
VWidth: -4
Flags: HW
HStem: -15 78<114.59 291.435 436.191 564.052>
VStem: 34 98<104.337 387.093> 324 97<105.51 389.093> 624 95<126.685 382.689>
LayerCount: 2
Back
Fore
SplineSet
614 41 m 1
 571 6 536 -15 456 -15 c 0
 411 -15 381 4 360 34 c 1
 323 -6 252 -17 167 -17 c 0
 61 -17 34 91 34 183 c 0
 34 246 35 311 35 333 c 2
 35 333 30 348 30 365 c 0
 30 389 114 391 136 391 c 1
 136 391 132 262 132 219 c 0
 132 102 165 61 247 61 c 0
 280 61 309 92 324 155 c 0
 323 165 323 175 323 185 c 0
 323 248 324 313 324 335 c 2
 324 335 319 350 319 367 c 0
 319 391 403 393 425 393 c 1
 425 393 421 264 421 221 c 0
 421 104 454 63 536 63 c 0
 584 63 624 130 624 265 c 0
 624 363 612 345 612 374 c 0
 612 395 663 395 703 395 c 0
 718 395 719 343 719 311 c 0
 719 196 710 131 710 130 c 3
 710 96 738 52 738 24 c 3
 738 -15 733 -20 703 -20 c 3
 681 -20 638 15 614 41 c 1
EndSplineSet
Validated: 1
EndChar

StartChar: uni044A
Encoding: 1098 1098 242
Width: 476
VWidth: -15
Flags: HW
HStem: -36 62<198.711 346.285> 170 68<209.107 325.203>
VStem: 99 93<41.0005 162.542 206 300> 356 90<33.767 140.32>
LayerCount: 2
Back
Fore
SplineSet
34 279 m 0
 22 279 20 288 20 298 c 0
 20 340 66 401 190 405 c 0
 192 405 l 1
 192 206 l 1
 225 227 257 238 302 238 c 0
 404 238 446 165 446 79 c 0
 446 38 370 -36 283 -36 c 0
 172 -36 98 6 98 97 c 0
 99 300 l 1
 84 289 48 279 34 279 c 0
192 53 m 1
 219 31 254 26 299 26 c 0
 342 26 356 46 356 93 c 0
 356 132 313 170 267 170 c 0
 248 170 203 168 192 145 c 1
 192 53 l 1
EndSplineSet
Validated: 1
EndChar

StartChar: uni044B
Encoding: 1099 1099 243
Width: 557
VWidth: -15
Flags: HW
HStem: -36 62<129.831 276.382> 170 68<139.42 254.646>
VStem: 30 93<41.8614 163.018 206 374.598> 286 91<34.1169 140.32> 430 97<-3.12509 384.881>
LayerCount: 2
Back
Fore
SplineSet
123 53 m 5
 150 31 184 26 228 26 c 4
 271 26 286 46 286 93 c 4
 286 132 242 170 196 170 c 4
 177 170 133 168 123 145 c 5
 123 53 l 5
30 345 m 6
 30 391 64 401 123 405 c 5
 123 206 l 5
 155 227 186 238 231 238 c 4
 335 238 377 165 377 79 c 4
 377 38 301 -36 213 -36 c 4
 104 -36 30 7 30 98 c 6
 30 345 l 6
526 413 m 5
 527 28 l 6
 527 15 505 -6 484 -18 c 4
 459 -32 433 -32 433 -32 c 5
 430 -32 l 5
 429 353 l 6
 429 366 451 387 472 399 c 4
 497 413 523 413 523 413 c 5
 526 413 l 5
EndSplineSet
Validated: 1
EndChar

StartChar: uni044C
Encoding: 1100 1100 244
Width: 408
VWidth: -15
Flags: HW
HStem: -36 62<130.203 278.459> 170 68<139.581 256.736>
VStem: 30 93<41.8614 162.542 206 389.528> 288 90<34.1169 140.32>
LayerCount: 2
Back
Fore
SplineSet
120 405 m 0
 123 405 l 1
 123 206 l 1
 155 227 187 238 233 238 c 0
 336 238 378 165 378 79 c 0
 378 38 303 -36 215 -36 c 0
 104 -36 30 7 30 98 c 0
 30 345 l 0
 30 390 62 401 120 405 c 0
123 53 m 1
 150 31 184 26 230 26 c 0
 274 26 288 46 288 93 c 0
 288 132 245 170 198 170 c 0
 178 170 133 168 123 145 c 1
 123 53 l 1
EndSplineSet
Validated: 1
EndChar

StartChar: uni044D
Encoding: 1101 1101 245
Width: 387
VWidth: -12
Flags: HW
HStem: -26 66<97.5786 220.414> 132 85<141.613 244> 144 83<112 208.387> 324 71<135.92 227.155>
VStem: 252 105<217 292.778>
LayerCount: 2
Back
Fore
SplineSet
33 94 m 1xd8
 41 88 115 40 152 40 c 3
 241 40 244 99 244 132 c 1xd8
 208 133 139 142 112 144 c 1
 112 144 101 187 98 227 c 1xb8
 252 217 l 1
 250 274 231 324 180 324 c 0
 124 324 102 279 76 239 c 1
 64 243 54 257 54 284 c 0
 54 291 69 316 83 331 c 0
 125 375 170 395 216 395 c 0
 295 395 357 284 357 193 c 0
 357 77 309 -26 193 -26 c 0
 130 -26 30 11 30 74 c 3
 30 82 31 89 33 94 c 1xd8
EndSplineSet
Validated: 1
EndChar

StartChar: uni044E
Encoding: 1102 1102 246
Width: 621
VWidth: -15
Flags: HW
HStem: -9 69<385.871 487.507> 134 61<123 179> 326 69<285.443 403.409>
VStem: 31 92<9.81153 134 195 368.631> 179 100<196.528 298.34> 492 99<99.306 255.5>
LayerCount: 2
Back
Fore
SplineSet
123 37 m 2
 123 27 102 8 81 -3 c 0
 57 -16 31 -16 31 -16 c 1
 30 340 l 2
 30 350 51 370 72 381 c 0
 96 394 122 394 122 394 c 1
 123 195 l 1
 179 195 l 2
 179 196 179 197 179 198 c 0
 179 331 262 395 393 395 c 0
 499 395 591 285 591 226 c 0
 591 99 539 -9 415 -9 c 0
 315 -9 225 55 192 134 c 1
 123 134 l 1
 123 37 l 2
492 124 m 0
 492 216 417 326 351 326 c 0
 292 326 279 314 279 264 c 0
 279 158 390 60 433 60 c 0
 490 60 492 70 492 124 c 0
EndSplineSet
Validated: 1
EndChar

StartChar: uni044F
Encoding: 1103 1103 247
Width: 422
VWidth: -15
Flags: HW
HStem: -10 22G<72.5 129 386.5 392> 180 41<208.131 288> 341 48<167.137 276.426>
VStem: 55 103<234.768 332.551> 288 104<8.95387 176 224 329.701>
LayerCount: 2
Back
Fore
SplineSet
223 341 m 3
 161 341 158 309 158 277 c 0
 158 242 189 221 230 221 c 3
 246 221 269 221 288 224 c 1
 288 286 l 2
 288 325 257 341 223 341 c 3
144 196 m 1
 84 215 55 246 55 286 c 0
 55 342 118 389 209 389 c 0
 299 389 392 360 392 289 c 2
 392 -9 l 1
 381 -9 344 -9 328 -1 c 0
 306 10 291 21 288 38 c 2
 288 176 l 1
 267 179 240 180 221 180 c 3
 200 180 173 -10 85 -10 c 27
 60 -10 30 -2 30 23 c 3
 30 55 89 44 144 196 c 1
EndSplineSet
Validated: 1
EndChar

StartChar: rcaron
Encoding: 345 345 248
Width: 398
VWidth: 0
Flags: H
HStem: -17 21G<67 88.5> 298 87<239.711 301.754> 353 20G<167 180> 541 32<341.779 391.389>
VStem: -1 75<524.317 564> 67 104<14.413 267.103>
LayerCount: 2
Back
Fore
SplineSet
184 405 m 5x90
 129 429 0 507 -1 553 c 4
 -1 561 4 571 19 571 c 7
 40 571 52 567 74 564 c 5
 74 558 l 5
 75 556 82 549 83 539 c 4
 84 529 127 496 181 469 c 5
 224 500 278 573 331 573 c 4
 366 573 393 569 393 549 c 6
 393 541 l 5
 385 541 l 6
 320 541 309 459 184 405 c 5x90
EndSplineSet
Refer: 18 114 N 1 0 0 1 0 0 3
Validated: 1
EndChar

StartChar: Rcaron
Encoding: 344 344 249
Width: 723
VWidth: 0
Flags: H
HStem: -18 56<15.3953 141.718> -6 49<263.698 402.839> 3 53<259 379.146> 274 34<260 384> 557 44<10.0925 105.665> 571 6<202 349> 808 32<525.426 575.036>
VStem: 131 128<425.002 533.989> 142 117<56 274> 183 75<791.317 831> 492 110<344.503 524.046>
LayerCount: 2
Back
Fore
SplineSet
368 672 m 5x1220
 313 696 184 774 183 820 c 4
 183 828 188 838 203 838 c 7
 224 838 236 834 258 831 c 5
 258 825 l 5
 259 823 266 816 267 806 c 4
 268 796 311 763 365 736 c 5
 408 767 462 840 515 840 c 4
 550 840 577 836 577 816 c 6
 577 808 l 5
 569 808 l 6
 504 808 493 726 368 672 c 5x1220
EndSplineSet
Refer: 53 82 N 1 0 0 1 0 0 3
Validated: 1
EndChar

StartChar: Ccaron
Encoding: 268 268 250
Width: 680
VWidth: 0
Flags: H
HStem: -26 62<228.5 490.82> 593 64<233.944 361.542> 811 32<508.426 558.036>
VStem: 28 106<246.389 444.171> 166 75<794.317 834> 595 46<-89.0486 25>
LayerCount: 2
Back
Fore
SplineSet
351 675 m 5
 296 699 167 777 166 823 c 4
 166 831 171 841 186 841 c 7
 207 841 219 837 241 834 c 5
 241 828 l 5
 242 826 249 819 250 809 c 4
 251 799 294 766 348 739 c 5
 391 770 445 843 498 843 c 4
 533 843 560 839 560 819 c 6
 560 811 l 5
 552 811 l 6
 487 811 476 729 351 675 c 5
EndSplineSet
Refer: 37 67 N 1 0 0 1 0 0 3
Validated: 1
EndChar

StartChar: ccaron
Encoding: 269 269 251
Width: 428
VWidth: 0
Flags: H
HStem: -19 67<204.498 323.697> 311 72<165.834 284.583> 541 32<385.469 435.08>
VStem: 28 106<113.165 275.697> 43 75<524.317 564>
LayerCount: 2
Back
Fore
SplineSet
228 405 m 5xe0
 173 429 44 507 43 553 c 4
 43 561 48 571 63 571 c 7
 84 571 96 567 118 564 c 5
 118 558 l 5
 119 556 126 549 127 539 c 4
 128 529 171 496 225 469 c 5
 268 500 322 573 375 573 c 4
 410 573 437 569 437 549 c 6
 437 541 l 5
 429 541 l 6
 364 541 353 459 228 405 c 5xe0
EndSplineSet
Refer: 2 99 N 1 0 0 1 0 0 3
Validated: 1
EndChar

StartChar: Ecaron
Encoding: 282 282 252
Width: 657
VWidth: 0
Flags: H
HStem: -26 108<298.24 468.507> 261 104<162 276.137> 566 90<208.988 356.489> 812 32<441.426 491.036>
VStem: 28 124<365 442.531> 99 75<795.317 835> 585 57<108.687 162.526> 603 39<-87.1846 62.4571>
LayerCount: 2
Back
Fore
SplineSet
284 676 m 5xf0
 229 700 100 778 99 824 c 4
 99 832 104 842 119 842 c 7
 140 842 152 838 174 835 c 5
 174 829 l 5
 175 827 182 820 183 810 c 4
 184 800 227 767 281 740 c 5
 324 771 378 844 431 844 c 4
 466 844 493 840 493 820 c 6
 493 812 l 5
 485 812 l 6
 420 812 409 730 284 676 c 5xf0
EndSplineSet
Refer: 3 69 N 1 0 0 1 0 0 3
Validated: 1
EndChar

StartChar: ecaron
Encoding: 283 283 253
Width: 443
VWidth: 0
Flags: H
HStem: -18 71<186.629 330.22> 327 53<172.503 235.539> 541 32<371.535 421.145>
VStem: 28 113<212 289.486> 29 75<524.317 564>
DStem2: 216 241 256 208 0.903986 0.427561<-80.1983 53.441>
LayerCount: 2
Back
Fore
SplineSet
214 405 m 5xe0
 159 429 30 507 29 553 c 4
 29 561 34 571 49 571 c 7
 70 571 82 567 104 564 c 5
 104 558 l 5
 105 556 112 549 113 539 c 4
 114 529 157 496 211 469 c 5
 254 500 308 573 361 573 c 4
 396 573 423 569 423 549 c 6
 423 541 l 5
 415 541 l 6
 350 541 339 459 214 405 c 5xe0
EndSplineSet
Refer: 5 101 N 1 0 0 1 0 0 3
Validated: 1
EndChar

StartChar: Dcaron
Encoding: 270 270 254
Width: 629
VWidth: 0
Flags: H
HStem: -21 55<253.468 457.015> 570 44<0.128174 91.5586> 583 72<266.19 390.976> 811 32<451.379 500.989>
VStem: 30 30<-77.8076 -48.3358> 109 75<794.317 834> 111 110<60.4062 550.456> 514 87<145.508 402.261>
LayerCount: 2
Back
Fore
SplineSet
294 675 m 5x99
 239 699 110 777 109 823 c 4
 109 831 114 841 129 841 c 7
 150 841 162 837 184 834 c 5
 184 828 l 5
 185 826 192 819 193 809 c 4
 194 799 237 766 291 739 c 5
 334 770 388 843 441 843 c 4
 476 843 503 839 503 819 c 6
 503 811 l 5
 495 811 l 6
 430 811 419 729 294 675 c 5x99
EndSplineSet
Refer: 38 68 N 1 0 0 1 0 0 3
Validated: 1
EndChar

StartChar: dcaron
Encoding: 271 271 255
Width: 510
VWidth: 0
Flags: HW
HStem: -28 76<190.518 273.43> 310 59<170.539 291.123> 601 20G<382 406.5>
VStem: 28 107<108.6 269.378> 314 111<84.6303 286.632 347 549.342> 457 117<414.774 574.066>
LayerCount: 2
Back
Fore
SplineSet
457 317 m 2
 457 468 467 617 513 617 c 3
 555 617 574 602 574 568 c 0
 574 528 556 303 470 303 c 2
 457 303 l 1
 457 317 l 2
EndSplineSet
Refer: 10 100 N 1 0 0 1 0 0 2
Validated: 1
EndChar

StartChar: Ncaron
Encoding: 327 327 256
Width: 746
VWidth: 0
Flags: H
HStem: -15 21G<32 80 325.5 371> 584 54<33.8762 153> 806 32<532.991 582.602>
VStem: 126 72<50.3352 438 570.42 583.959> 191 75<789.317 829> 630 70<5.32266 43 190 587.075>
LayerCount: 2
Back
Fore
SplineSet
376 670 m 5xe4
 321 694 192 772 191 818 c 4
 191 826 196 836 211 836 c 7
 232 836 244 832 266 829 c 5
 266 823 l 5
 267 821 274 814 275 804 c 4
 276 794 319 761 373 734 c 5
 416 765 470 838 523 838 c 4
 558 838 585 834 585 814 c 6
 585 806 l 5
 577 806 l 6
 512 806 501 724 376 670 c 5xe4
EndSplineSet
Refer: 51 78 N 1 0 0 1 0 0 3
Validated: 1
EndChar

StartChar: ncaron
Encoding: 328 328 257
Width: 549
VWidth: 0
Flags: H
HStem: -14 21G<101 143.5 355 372> 304 78<242.453 392.5> 541 32<425.496 475.106>
VStem: 83 75<524.317 564> 101 104<29.875 279.321> 378 94<74.245 257.523>
LayerCount: 2
Back
Fore
SplineSet
268 405 m 5xe4
 213 429 84 507 83 553 c 4
 83 561 88 571 103 571 c 7
 124 571 136 567 158 564 c 5
 158 558 l 5
 159 556 166 549 167 539 c 4
 168 529 211 496 265 469 c 5
 308 500 362 573 415 573 c 4
 450 573 477 569 477 549 c 6
 477 541 l 5
 469 541 l 6
 404 541 393 459 268 405 c 5xe4
EndSplineSet
Refer: 1 110 N 1 0 0 1 0 0 3
Validated: 1
EndChar

StartChar: Scaron
Encoding: 352 352 258
Width: 653
VWidth: 0
Flags: H
HStem: -28 83<286.032 437.693> 246 126<186.801 315.976> 587 69<222.778 343.5> 605 20G<555.5 569> 812 32<464.426 514.036>
VStem: 19 54<-92.9238 -68> 68 107<341.5 496.344> 122 75<795.317 835> 517 108<159.292 293.988>
LayerCount: 2
Back
Fore
SplineSet
307 676 m 5xc880
 252 700 123 778 122 824 c 4
 122 832 127 842 142 842 c 7
 163 842 175 838 197 835 c 5
 197 829 l 5
 198 827 205 820 206 810 c 4
 207 800 250 767 304 740 c 5
 347 771 401 844 454 844 c 4
 489 844 516 840 516 820 c 6
 516 812 l 5
 508 812 l 6
 443 812 432 730 307 676 c 5xc880
EndSplineSet
Refer: 54 83 N 1 0 0 1 0 0 3
Validated: 1
EndChar

StartChar: scaron
Encoding: 353 353 259
Width: 376
VWidth: 0
Flags: H
HStem: -12 63<140.264 240.335> 340 45<140.746 265> 539 32<326.83 374.181>
VStem: -0 72<522.317 562> 31 102<195 328.582> 256 92<86.0707 227>
LayerCount: 2
Back
Fore
SplineSet
177 403 m 5xe4
 125 427 1 505 -0 551 c 4
 0 559 5 569 19 569 c 7
 39 569 51 565 72 562 c 5
 72 556 l 5
 73 554 79 547 80 537 c 4
 81 527 122 494 174 467 c 5
 215 498 266 571 317 571 c 4
 350 571 376 567 376 547 c 6
 376 539 l 5
 368 539 l 6
 306 539 296 457 177 403 c 5xe4
EndSplineSet
Refer: 19 115 N 1 0 0 1 0 0 3
Validated: 1
EndChar

StartChar: Tcaron
Encoding: 356 356 260
Width: 701
VWidth: 0
Flags: H
HStem: -14 22G<126 192.5 546 584> 533 69<407.276 626.423> 542 80<59.1038 282.837> 799 32<509.426 559.036>
VStem: 0 55<494.393 539.537> 167 75<782.317 822> 290 116<56.3455 525.478> 638 63<619.826 682.175>
LayerCount: 2
Back
Fore
SplineSet
352 663 m 5x9f
 297 687 168 765 167 811 c 4
 167 819 172 829 187 829 c 7
 208 829 220 825 242 822 c 5
 242 816 l 5
 243 814 250 807 251 797 c 4
 252 787 295 754 349 727 c 5
 392 758 446 831 499 831 c 4
 534 831 561 827 561 807 c 6
 561 799 l 5
 553 799 l 6
 488 799 477 717 352 663 c 5x9f
EndSplineSet
Refer: 56 84 N 1 0 0 1 0 0 3
Validated: 1
EndChar

StartChar: tcaron
Encoding: 357 357 261
Width: 379
VWidth: 0
Flags: HW
HStem: -22 80<180.506 285.757> 311 66<169 330.117>
VStem: 66 103<70.9357 304> 214 117<541.774 701.066>
LayerCount: 2
Back
Fore
SplineSet
214 444 m 6
 214 595 224 744 270 744 c 7
 312 744 331 729 331 695 c 4
 331 655 313 430 227 430 c 6
 214 430 l 5
 214 444 l 6
EndSplineSet
Refer: 20 116 N 1 0 0 1 0 0 2
Validated: 1
EndChar

StartChar: Zcaron
Encoding: 381 381 264
Width: 647
VWidth: 0
Flags: H
HStem: -14 21G<19 37> 0 114<213 496.178> 553 105<63.1013 345.014> 643 8<463 555> 806 32<450.426 500.036>
VStem: 28 15<506 510> 108 75<789.317 829> 560 69<-112.996 -7>
LayerCount: 2
Back
Fore
SplineSet
293 670 m 5x0f
 238 694 109 772 108 818 c 4
 108 826 113 836 128 836 c 7
 149 836 161 832 183 829 c 5
 183 823 l 5
 184 821 191 814 192 804 c 4
 193 794 236 761 290 734 c 5
 333 765 387 838 440 838 c 4
 475 838 502 834 502 814 c 6
 502 806 l 5
 494 806 l 6
 429 806 418 724 293 670 c 5x0f
EndSplineSet
Refer: 61 90 N 1 0 0 1 0 0 3
Validated: 1
EndChar

StartChar: zcaron
Encoding: 382 382 265
Width: 452
VWidth: 0
Flags: H
HStem: -10 21G<30 140> 13 60<161.509 389.571> 314 60<60.9665 203.368> 326 35<306 377.166> 526 32<388.666 438.277>
VStem: 46 75<509.317 549> 388 34<-34.3953 -6.00801>
LayerCount: 2
Back
Fore
SplineSet
231 390 m 5xce
 176 414 47 492 46 538 c 4
 46 546 51 556 66 556 c 7
 87 556 99 552 121 549 c 5
 121 543 l 5
 122 541 129 534 130 524 c 4
 131 514 174 481 228 454 c 5
 271 485 325 558 378 558 c 4
 413 558 440 554 440 534 c 6
 440 526 l 5
 432 526 l 6
 367 526 356 444 231 390 c 5xce
EndSplineSet
Refer: 31 122 N 1 0 0 1 0 0 3
Validated: 1
EndChar

